# This file uses centimeters as units for non-parametric coordinates.

mtllib SM_AcessoriesAndMakeup_MakeupBox_02.mtl
g default
v 0.038398 12.990229 -0.174386
v 0.038398 13.490507 -0.174386
v 0.385781 13.440140 -1.046068
v 0.900407 13.440140 -0.545121
v 0.910080 13.440140 0.172998
v 0.409133 13.440140 0.687624
v -0.308986 13.440140 0.697296
v -0.823611 13.440140 0.196349
v -0.833284 13.440140 -0.521769
v -0.332337 13.440140 -1.036395
v 0.420818 13.045675 -1.133985
v 0.987349 13.045675 -0.582513
v 0.997998 13.045675 0.208035
v 0.446525 13.045675 0.774566
v -0.344022 13.045675 0.785214
v -0.910553 13.045675 0.233742
v -0.921202 13.045675 -0.556806
v -0.369730 13.045675 -1.123337
v 0.271914 13.305880 -1.130436
v 0.271914 13.177396 -1.130436
v -0.220826 13.305880 -1.126887
v -0.220826 13.177396 -1.126887
v -0.402135 13.305880 -1.125581
v -0.402135 13.177396 -1.125581
v -0.403186 13.305880 -1.271496
v -0.403186 13.177396 -1.271496
v 0.453224 13.305880 -1.131742
v 0.453224 13.177396 -1.131742
v 0.452172 13.177396 -1.277657
v 0.452172 13.305880 -1.277657
v -0.403186 13.274341 -1.271496
v -0.402135 13.274341 -1.125581
v -0.220826 13.274341 -1.126887
v -0.369730 13.274341 -1.123337
v -0.921202 13.274341 -0.556806
v -0.910553 13.274341 0.233742
v -0.344023 13.274341 0.785215
v 0.446525 13.274341 0.774566
v 0.997998 13.274341 0.208035
v 0.987349 13.274341 -0.582513
v 0.420818 13.274341 -1.133985
v 0.271914 13.274341 -1.130436
v 0.453224 13.274341 -1.131742
v 0.452172 13.274341 -1.277657
v 0.425549 13.305880 -1.277465
v 0.425549 13.274341 -1.277465
v 0.425549 13.177396 -1.277465
v 0.426600 13.177396 -1.131550
v 0.426600 13.274341 -1.131550
v 0.426600 13.305880 -1.131550
v -0.353633 13.305880 -1.271853
v -0.352582 13.305880 -1.125937
v -0.352582 13.274341 -1.125937
v -0.352582 13.177396 -1.125937
v -0.353633 13.177396 -1.271853
v -0.353633 13.274341 -1.271853
vt 0.839943 0.487960
vt 0.980152 0.351478
vt 0.636907 0.685751
vt 0.744135 0.685751
vt 0.534988 0.685751
vt 0.437545 0.685751
vt 0.341785 0.685751
vt 0.244452 0.685751
vt 0.246242 0.250472
vt 0.644293 0.485325
vt 0.507811 0.345116
vt 0.510446 0.149466
vt 0.142718 0.685751
vt 0.035647 0.685751
vt 0.016213 0.685751
vt 0.016213 0.709994
vt 0.636907 0.509986
vt 0.744135 0.509986
vt 0.534988 0.509986
vt 0.456635 0.340958
vt 0.437545 0.509986
vt 0.341785 0.509986
vt 0.244452 0.509986
vt 0.142718 0.509986
vt 0.035647 0.509986
vt 0.016213 0.611235
vt 0.763478 0.685751
vt 0.763478 0.709994
vt 0.763478 0.611235
vt 0.650655 0.012984
vt 0.846305 0.015619
vt 0.982787 0.155828
vt 0.745299 0.250472
vt 0.331029 0.463225
vt 0.458995 0.165685
vt 0.336728 0.040080
vt 0.161456 0.037719
vt 0.035851 0.159986
vt 0.033490 0.335258
vt 0.155757 0.460864
vt 0.400313 0.730846
vt 0.120734 0.728918
vt 0.110164 0.902624
vt 0.367787 0.904369
vt 0.040727 0.973877
vt 0.041276 0.902158
vt 0.045976 0.728402
vt 0.045380 0.807697
vt 0.487485 0.810748
vt 0.488082 0.731452
vt 0.448663 0.904917
vt 0.448114 0.976635
vt 0.502591 0.810852
vt 0.503188 0.731556
vt 0.462583 0.905011
vt 0.462033 0.976729
vt 0.014819 0.973701
vt 0.015368 0.901982
vt 0.017860 0.728208
vt 0.017264 0.807504
vt 0.834376 0.611235
vt 0.102258 0.872656
vt 0.102258 0.889323
vt 0.399228 0.872656
vt 0.399228 0.889323
vt 0.409493 0.875923
vt 0.409493 0.895145
vt 0.494745 0.895145
vt 0.494745 0.875923
vt 0.010769 0.891671
vt 0.010769 0.873329
vt 0.096252 0.873329
vt 0.096252 0.891671
vt 0.409493 0.816838
vt 0.033395 0.709994
vt 0.033395 0.685751
vt 0.743290 0.685751
vt 0.743290 0.709994
vt 0.102258 0.821426
vt 0.303237 0.483817
vt 0.399228 0.821426
vt 0.494745 0.816838
vt 0.743290 0.611235
vt 0.494953 0.895145
vt 0.494953 0.875923
vt 0.494953 0.816838
vt 0.010769 0.816952
vt 0.096252 0.816952
vt 0.033395 0.611235
vt 0.096140 0.873329
vt 0.096140 0.891671
vt 0.096140 0.816952
vt 0.010657 0.816952
vt 0.010657 0.873329
vt 0.010657 0.891671
vt 0.409701 0.875923
vt 0.409701 0.895145
vt 0.409701 0.816838
vn 0.206757 -0.871580 -0.444522
vn 0.494732 -0.842595 -0.212776
vn -0.000000 -1.000000 -0.000000
vn -0.500284 -0.842595 -0.199373
vn -0.407680 -0.822382 -0.396844
vn -0.494732 -0.842595 0.212776
vn -0.199373 -0.842595 0.500283
vn 0.212776 -0.842595 0.494732
vn 0.500284 -0.842595 0.199373
vn 0.040457 0.998317 -0.041561
vn 0.297156 0.904714 -0.305271
vn 0.297156 0.904714 -0.305271
vn -0.021177 0.998563 -0.049238
vn -0.158814 0.924994 -0.345203
vn -0.305271 0.904714 -0.297156
vn -0.057996 0.998317 0.000781
vn -0.425980 0.904714 0.005738
vn -0.425980 0.904714 0.005738
vn -0.040457 0.998317 0.041561
vn -0.297156 0.904714 0.305270
vn -0.297156 0.904714 0.305270
vn 0.000781 0.998317 0.057996
vn 0.005738 0.904714 0.425980
vn 0.005738 0.904714 0.425980
vn 0.041561 0.998317 0.040457
vn 0.305270 0.904714 0.297156
vn 0.305271 0.904714 0.297156
vn 0.057996 0.998317 -0.000781
vn 0.425980 0.904714 -0.005738
vn 0.425980 0.904714 -0.005738
vn 0.682447 0.206759 -0.701082
vn 0.682447 0.206759 -0.701083
vn 0.978303 0.206759 -0.013177
vn 0.978303 0.206759 -0.013177
vn 0.701083 0.206759 0.682447
vn 0.701083 0.206759 0.682447
vn 0.013178 0.206759 0.978303
vn 0.013177 0.206759 0.978303
vn -0.682448 0.206759 0.701082
vn -0.682448 0.206759 0.701082
vn -0.978303 0.206759 0.013177
vn -0.978303 0.206759 0.013177
vn -0.701082 0.206759 -0.682447
vn -0.701082 0.206759 -0.682447
vn -0.012299 0.515876 -0.856575
vn -0.014574 0.262418 -0.964844
vn -0.014603 0.257963 -0.966044
vn -0.005500 0.922646 -0.385608
vn -0.014605 0.257730 -0.966107
vn -0.014574 0.262418 -0.964844
vn -0.012299 0.515876 -0.856575
vn -0.007184 -0.885627 -0.464341
vn -0.999974 0.000000 0.007203
vn -0.999974 0.000000 0.007203
vn -0.999974 0.000000 0.007203
vn -0.999974 0.000000 0.007203
vn 0.999974 0.000000 -0.007204
vn 0.999974 0.000000 -0.007204
vn 0.999974 0.000000 -0.007204
vn 0.999974 0.000000 -0.007204
vn 0.007203 0.000000 0.999974
vn 0.007203 0.000000 0.999974
vn 0.007203 0.000000 0.999974
vn 0.007203 0.000000 0.999974
vn 0.000000 1.000000 0.000000
vn 0.000000 1.000000 0.000000
vn 0.000000 1.000000 0.000000
vn 0.000000 1.000000 0.000000
vn -0.000000 1.000000 0.000000
vn -0.000000 1.000000 0.000000
vn -0.007203 0.000000 -0.999974
vn -0.007203 -0.000000 -0.999974
vn -0.007203 0.000001 -0.999974
vn -0.007203 0.000001 -0.999974
vn 0.007204 0.000000 0.999974
vn 0.007204 0.000000 0.999974
vn 0.007206 0.000000 0.999974
vn 0.007206 0.000000 0.999974
vn -0.000000 -1.000000 0.000000
vn -0.000000 -1.000000 0.000000
vn 0.000000 -1.000000 0.000000
vn 0.000000 -1.000000 0.000000
vn 0.000000 -1.000000 0.000000
vn 0.000000 -1.000000 0.000000
vn -0.007204 -0.000000 -0.999974
vn -0.007203 -0.000000 -0.999974
vn -0.999974 0.000000 0.007203
vn -0.999974 0.000000 0.007203
vn 0.007203 0.000000 0.999974
vn 0.007203 0.000000 0.999974
vn -0.015718 -0.000000 -0.999876
vn -0.015718 -0.000000 -0.999876
vn 0.007206 0.000000 0.999974
vn 0.007204 0.000000 0.999974
vn 0.999974 0.000000 -0.007204
vn 0.999974 0.000000 -0.007204
vn -0.007216 0.000000 -0.999974
vn -0.007216 0.000000 -0.999974
vn -0.007216 0.000000 -0.999974
vn -0.000000 -1.000000 0.000000
vn -0.000000 -1.000000 0.000000
vn 0.007215 0.000000 0.999974
vn 0.007215 0.000000 0.999974
vn 0.007216 0.000000 0.999974
vn -0.000000 1.000000 0.000000
vn -0.000000 1.000000 0.000000
vn 0.000000 1.000000 0.000000
vn 0.000000 1.000000 0.000000
vn 0.007202 0.000000 0.999974
vn 0.007203 0.000000 0.999974
vn 0.007203 0.000000 0.999974
vn 0.000000 -1.000000 0.000000
vn 0.000000 -1.000000 0.000000
vn -0.007201 -0.000000 -0.999974
vn -0.007201 0.000000 -0.999974
vn -0.007201 0.000001 -0.999974
s 1
g pCylinder1
usemtl initialShadingGroup
f 11/1/1 12/2/2 1/33/3
f 17/11/4 18/10/5 1/33/3
f 16/12/6 17/11/4 1/33/3
f 15/30/7 16/12/6 1/33/3
f 14/31/8 15/30/7 1/33/3
f 13/32/9 14/31/8 1/33/3
f 12/2/2 13/32/9 1/33/3
f 2/9/10 4/20/11 3/34/12
f 2/9/13 10/40/14 9/39/15
f 2/9/16 9/39/17 8/38/18
f 2/9/19 8/38/20 7/37/21
f 2/9/22 7/37/23 6/36/24
f 2/9/25 6/36/26 5/35/27
f 2/9/28 5/35/29 4/20/30
f 4/20/11 40/3/31 41/4/32 3/34/12
f 5/35/29 39/5/33 40/3/34 4/20/30
f 6/36/26 38/6/35 39/5/36 5/35/27
f 7/37/23 37/7/37 38/6/38 6/36/24
f 8/38/20 36/8/39 37/7/40 7/37/21
f 9/39/17 35/13/41 36/8/42 8/38/18
f 10/40/14 34/14/43 35/13/44 9/39/15
f 21/16/45 33/15/46 34/14/47 10/40/14 3/34/48 41/4/49 42/27/50 19/80/51
f 3/34/48 10/40/14 2/9/13
f 18/10/52 11/1/1 1/33/3
s 11
f 32/66/53 23/67/54 25/68/55 31/69/56
s 12
f 27/70/57 43/71/58 44/72/59 30/73/60
s 13
f 33/15/61 21/16/62 52/75/63 53/76/64
s 14
f 51/45/65 52/46/66 21/43/67 19/44/68 50/51/69 45/52/70
s 15
f 46/64/71 56/62/72 51/63/73 45/65/74
s 16
f 19/28/75 42/27/76 49/77/77 50/78/78
s 17
f 47/49/79 48/50/80 20/41/81 22/42/82 54/47/83 55/48/84
s 15
f 47/81/85 55/79/86 56/62/72 46/64/71
s 11
f 24/74/87 32/66/53 31/69/56 26/82/88
s 13
f 22/26/89 33/15/61 53/76/64 54/89/90
s 1
f 18/25/52 34/14/47 33/15/46 22/61/91 20/29/92 42/27/50 41/4/49 11/18/1
f 35/13/44 34/14/43 18/25/5 17/24/4
f 36/8/42 35/13/41 17/24/4 16/23/6
f 37/7/40 36/8/39 16/23/6 15/22/7
f 38/6/38 37/7/37 15/22/7 14/21/8
f 39/5/36 38/6/35 14/21/8 13/19/9
f 40/3/34 39/5/33 13/19/9 12/17/2
f 41/4/32 40/3/31 12/17/2 11/18/1
s 16
f 48/83/93 49/77/77 42/27/76 20/29/94
s 12
f 29/88/95 44/72/59 43/71/58 28/87/96
s 15
f 44/72/97 46/90/71 45/91/74 30/73/98
f 46/90/71 44/72/97 29/88/99 47/92/85
s 17
f 48/50/80 47/49/79 29/53/100 28/54/101
s 16
f 28/87/102 43/71/103 49/94/77 48/93/93
f 50/95/78 49/94/77 43/71/103 27/70/104
s 14
f 45/52/70 50/51/69 27/55/105 30/56/106
f 52/46/66 51/45/65 25/57/107 23/58/108
s 13
f 53/96/64 52/97/63 23/67/109 32/66/110
f 53/96/64 32/66/110 24/74/111 54/98/90
s 17
f 55/48/84 54/47/83 24/59/112 26/60/113
s 15
f 26/82/114 31/69/115 56/85/72 55/86/86
f 51/84/73 56/85/72 31/69/115 25/68/116
