# This file uses centimeters as units for non-parametric coordinates.

mtllib SM_AcessoriesAndMakeup_SpinShelf_01.mtl
g default
v -7.808000 -0.046038 3.783421
v -0.241159 -0.046038 3.783421
v -7.808000 20.661775 3.783421
v -0.241159 20.661775 3.783421
v -7.808000 20.661775 -3.783421
v -0.241159 20.661775 -3.783421
v -7.808000 -0.046038 -3.783421
v -0.241159 -0.046038 -3.783421
v -7.808000 4.095525 3.783421
v -7.808000 4.095525 -3.783421
v -0.241159 4.095525 -3.783421
v -0.241159 4.095525 3.783421
v -7.808000 7.408774 -3.783421
v -7.808000 7.408774 3.783421
v -0.241159 7.408774 3.783421
v -0.241159 7.408774 -3.783421
v -7.808000 10.059374 -3.783421
v -7.808000 10.059374 3.783421
v -0.241159 10.059374 3.783421
v -0.241159 10.059374 -3.783421
v -7.808000 13.240095 -3.783421
v -7.808000 13.240095 3.783421
v -0.241159 13.240095 3.783421
v -0.241159 13.240095 -3.783421
v -7.808000 16.208766 -3.783421
v -7.808000 16.208766 3.783421
v -0.241159 16.208766 3.783421
v -0.241159 16.208766 -3.783421
v -7.808000 18.811289 -3.783421
v -7.808000 18.811290 3.783421
v -0.241159 18.811290 3.783421
v -0.241159 18.811289 -3.783421
v -6.572630 4.196519 2.548051
v -6.572630 4.196519 -2.548051
v -6.572630 7.219652 2.548051
v -6.572630 7.219652 -2.548051
v -1.476529 4.196519 2.548050
v -1.476529 7.219652 2.548050
v -1.476529 4.196519 -2.548051
v -1.476529 7.219652 -2.548051
v -6.572630 10.181439 -2.548051
v -6.572630 10.181439 2.548051
v -6.572630 13.083648 2.548051
v -6.572630 13.083648 -2.548051
v -1.476529 10.181439 2.548051
v -1.476529 13.083648 2.548051
v -1.476529 10.181439 -2.548051
v -1.476529 13.083648 -2.548051
v -6.572630 16.270961 -2.548051
v -6.572630 16.270961 2.548051
v -6.572630 18.645602 2.548051
v -6.572630 18.645601 -2.548051
v -1.476529 16.270961 2.548051
v -1.476529 18.645602 2.548051
v -1.476529 16.270961 -2.548051
v -1.476529 18.645601 -2.548051
vt 0.618251 0.248244
vt 0.618251 0.001992
vt 0.667502 0.001992
vt 0.667502 0.248244
vt 0.673784 0.248244
vt 0.673784 0.001992
vt 0.723034 0.001992
vt 0.723034 0.248244
vt 0.729317 0.248244
vt 0.729317 0.001992
vt 0.751323 0.001992
vt 0.751323 0.248244
vt 0.786642 0.248244
vt 0.786642 0.001992
vt 0.808648 0.001992
vt 0.808648 0.248244
vt 0.629486 0.976446
vt 0.629486 0.751756
vt 0.665437 0.751756
vt 0.665437 0.976446
vt 0.546307 0.976445
vt 0.546307 0.751756
vt 0.582257 0.751756
vt 0.582257 0.976445
vt 0.843967 0.248244
vt 0.843967 0.001992
vt 0.875487 0.001992
vt 0.875487 0.248244
vt 0.885808 0.498165
vt 0.885808 0.251913
vt 0.917328 0.251913
vt 0.917328 0.498165
vt 0.464565 0.976445
vt 0.464565 0.751756
vt 0.499078 0.751756
vt 0.499078 0.976445
vt 0.384262 0.976445
vt 0.384262 0.751756
vt 0.418774 0.751756
vt 0.418774 0.976445
vt 0.807706 0.498165
vt 0.807706 0.251913
vt 0.843008 0.251913
vt 0.843008 0.498165
vt 0.725822 0.498166
vt 0.725822 0.251914
vt 0.761124 0.251914
vt 0.761124 0.498166
vt 0.310232 0.976445
vt 0.310232 0.751756
vt 0.338471 0.751756
vt 0.338471 0.976445
vt 0.242476 0.976445
vt 0.242476 0.751756
vt 0.270715 0.751756
vt 0.270715 0.976445
vt 0.057543 0.001992
vt 0.303795 0.001992
vt 0.303795 0.248244
vt 0.057543 0.248244
vt 0.365664 0.001992
vt 0.611916 0.001992
vt 0.611916 0.248244
vt 0.365664 0.248244
vt 0.432989 0.498165
vt 0.432989 0.251913
vt 0.443770 0.262694
vt 0.443770 0.487383
vt 0.679241 0.251913
vt 0.668460 0.262694
vt 0.679241 0.498165
vt 0.668460 0.487383
vt 0.181098 0.498166
vt 0.181098 0.251914
vt 0.191879 0.262696
vt 0.191879 0.487385
vt 0.427350 0.251914
vt 0.416568 0.262696
vt 0.427350 0.498166
vt 0.416568 0.487385
vt 0.001831 0.748087
vt 0.001831 0.501835
vt 0.012612 0.512617
vt 0.012612 0.737305
vt 0.248083 0.501835
vt 0.237302 0.512617
vt 0.248083 0.748087
vt 0.237302 0.737305
vt 0.254597 0.748087
vt 0.254597 0.501835
vt 0.265378 0.512616
vt 0.265378 0.737306
vt 0.500849 0.501835
vt 0.490068 0.512616
vt 0.500849 0.748087
vt 0.490068 0.737306
vt 0.507184 0.748087
vt 0.507184 0.501835
vt 0.517965 0.512617
vt 0.517965 0.737305
vt 0.753436 0.501835
vt 0.742655 0.512617
vt 0.753436 0.748087
vt 0.742655 0.737305
vt 0.671076 0.998008
vt 0.671076 0.751756
vt 0.681857 0.762537
vt 0.681857 0.987227
vt 0.917328 0.751756
vt 0.906547 0.762537
vt 0.917328 0.998008
vt 0.906547 0.987227
vt 0.001831 0.248244
vt 0.001831 0.001992
vt 0.051081 0.001992
vt 0.051081 0.248244
vt 0.310130 0.248245
vt 0.310130 0.001992
vt 0.359380 0.001992
vt 0.359380 0.248245
vt 0.757980 0.248245
vt 0.757980 0.001992
vt 0.779984 0.001992
vt 0.779984 0.248245
vt 0.815304 0.248244
vt 0.815304 0.001992
vt 0.837310 0.001992
vt 0.837310 0.248244
vt 0.587897 0.976446
vt 0.587897 0.751756
vt 0.623847 0.751756
vt 0.623847 0.976446
vt 0.504717 0.976447
vt 0.504717 0.751757
vt 0.540668 0.751757
vt 0.540668 0.976447
vt 0.881586 0.248244
vt 0.881586 0.001992
vt 0.913106 0.001992
vt 0.913106 0.248244
vt 0.848648 0.498167
vt 0.848648 0.251913
vt 0.880168 0.251913
vt 0.880168 0.498167
vt 0.424414 0.976445
vt 0.424414 0.751756
vt 0.458926 0.751756
vt 0.458926 0.976445
vt 0.344110 0.976446
vt 0.344110 0.751756
vt 0.378623 0.751756
vt 0.378623 0.976446
vt 0.766764 0.498166
vt 0.766764 0.251914
vt 0.802067 0.251914
vt 0.802067 0.498166
vt 0.684880 0.498167
vt 0.684880 0.251913
vt 0.720183 0.251913
vt 0.720183 0.498167
vt 0.276354 0.976445
vt 0.276354 0.751756
vt 0.304593 0.751756
vt 0.304593 0.976445
vt 0.208597 0.976447
vt 0.208597 0.751757
vt 0.236836 0.751757
vt 0.236836 0.976447
vn 0.000000 0.000000 1.000000
vn 0.000000 0.000000 1.000000
vn 0.000000 0.000000 1.000000
vn 0.000000 0.000000 1.000000
vn 0.000000 1.000000 0.000000
vn 0.000000 1.000000 0.000000
vn 0.000000 1.000000 0.000000
vn 0.000000 1.000000 0.000000
vn 0.000000 0.000000 -1.000000
vn 0.000000 0.000000 -1.000000
vn 0.000000 0.000000 -1.000000
vn 0.000000 0.000000 -1.000000
vn 0.000000 -1.000000 0.000000
vn 0.000000 -1.000000 0.000000
vn 0.000000 -1.000000 0.000000
vn 0.000000 -1.000000 0.000000
vn 1.000000 0.000000 0.000000
vn 1.000000 0.000000 0.000000
vn 1.000000 0.000000 0.000000
vn 1.000000 0.000000 0.000000
vn -1.000000 0.000000 0.000000
vn -1.000000 0.000000 0.000000
vn -1.000000 0.000000 0.000000
vn -1.000000 0.000000 0.000000
vn -1.000000 0.000000 0.000000
vn -1.000000 0.000000 0.000000
vn -1.000000 0.000000 0.000000
vn -1.000000 0.000000 0.000000
vn 0.000000 0.000000 -1.000000
vn 0.000000 0.000000 -1.000000
vn 0.000000 0.000000 -1.000000
vn 0.000000 0.000000 -1.000000
vn 1.000000 0.000000 0.000000
vn 1.000000 0.000000 0.000000
vn 1.000000 0.000000 0.000000
vn 1.000000 0.000000 0.000000
vn 0.000000 0.000000 1.000000
vn 0.000000 0.000000 1.000000
vn 0.000000 0.000000 1.000000
vn 0.000000 0.000000 1.000000
vn -1.000000 0.000000 0.000000
vn -1.000000 0.000000 0.000000
vn -1.000000 0.000000 0.000000
vn -1.000000 0.000000 0.000000
vn 0.000000 0.000000 1.000000
vn 0.000000 0.000000 1.000000
vn 0.000000 0.000000 1.000000
vn 0.000000 0.000000 1.000000
vn 1.000000 0.000000 0.000000
vn 1.000000 0.000000 0.000000
vn 1.000000 0.000000 0.000000
vn 1.000000 0.000000 0.000000
vn -0.000000 0.000000 -1.000000
vn -0.000000 0.000000 -1.000000
vn -0.000000 0.000000 -1.000000
vn -0.000000 0.000000 -1.000000
vn -1.000000 0.000000 0.000000
vn -1.000000 0.000000 0.000000
vn -1.000000 0.000000 0.000000
vn -1.000000 0.000000 0.000000
vn 0.000000 0.000000 1.000000
vn 0.000000 0.000000 1.000000
vn 0.000000 0.000000 1.000000
vn 0.000000 0.000000 1.000000
vn 1.000000 0.000000 0.000000
vn 1.000000 0.000000 0.000000
vn 1.000000 0.000000 0.000000
vn 1.000000 0.000000 0.000000
vn 0.000000 0.000000 -1.000000
vn 0.000000 0.000000 -1.000000
vn 0.000000 0.000000 -1.000000
vn 0.000000 0.000000 -1.000000
vn -1.000000 0.000000 0.000000
vn -1.000000 0.000000 0.000000
vn -1.000000 0.000000 0.000000
vn -1.000000 0.000000 0.000000
vn 0.000000 0.000000 1.000000
vn 0.000000 0.000000 1.000000
vn 0.000000 0.000000 1.000000
vn 0.000000 0.000000 1.000000
vn 1.000000 0.000000 0.000000
vn 1.000000 0.000000 0.000000
vn 1.000000 0.000000 0.000000
vn 1.000000 0.000000 0.000000
vn 0.000000 0.000000 -1.000000
vn 0.000000 0.000000 -1.000000
vn 0.000000 0.000000 -1.000000
vn 0.000000 0.000000 -1.000000
vn -1.000000 0.000000 0.000000
vn -1.000000 0.000000 0.000000
vn -1.000000 0.000000 0.000000
vn -1.000000 0.000000 0.000000
vn 0.000000 0.000000 1.000000
vn 0.000000 0.000000 1.000000
vn 0.000000 0.000000 1.000000
vn 0.000000 0.000000 1.000000
vn 1.000000 0.000000 0.000000
vn 1.000000 0.000000 0.000000
vn 1.000000 0.000000 0.000000
vn 1.000000 0.000000 0.000000
vn 0.000000 0.000000 -1.000000
vn 0.000000 0.000000 -1.000000
vn 0.000000 0.000000 -1.000000
vn 0.000000 0.000000 -1.000000
vn -1.000000 0.000000 0.000000
vn -1.000000 0.000000 0.000000
vn -1.000000 0.000000 0.000000
vn -1.000000 0.000000 0.000000
vn 0.000000 0.000000 1.000000
vn 0.000000 0.000000 1.000000
vn 0.000000 0.000000 1.000000
vn 0.000000 0.000000 1.000000
vn 1.000000 0.000000 0.000000
vn 1.000000 0.000000 0.000000
vn 1.000000 0.000000 0.000000
vn 1.000000 0.000000 0.000000
vn 0.000000 0.000000 -1.000000
vn 0.000000 0.000000 -1.000000
vn 0.000000 0.000000 -1.000000
vn 0.000000 0.000000 -1.000000
vn -0.081480 0.996675 0.000000
vn -0.081480 0.996675 0.000000
vn -0.081480 0.996675 0.000000
vn -0.081480 0.996675 0.000000
vn -0.151327 -0.988484 0.000000
vn -0.151327 -0.988484 0.000000
vn -0.151327 -0.988484 0.000000
vn -0.151327 -0.988484 0.000000
vn 0.000000 0.996675 0.081480
vn 0.000000 0.996675 0.081480
vn 0.000000 0.996675 0.081480
vn 0.000000 0.996675 0.081480
vn 0.000000 -0.988484 0.151327
vn 0.000000 -0.988484 0.151327
vn 0.000000 -0.988484 0.151327
vn 0.000000 -0.988484 0.151327
vn 0.081480 0.996675 0.000000
vn 0.081480 0.996675 0.000000
vn 0.081480 0.996675 0.000000
vn 0.081480 0.996675 0.000000
vn 0.151327 -0.988484 0.000000
vn 0.151327 -0.988484 0.000000
vn 0.151327 -0.988484 0.000000
vn 0.151327 -0.988484 0.000000
vn -0.000000 -0.988484 -0.151327
vn -0.000000 -0.988484 -0.151327
vn -0.000000 -0.988484 -0.151327
vn -0.000000 -0.988484 -0.151327
vn -0.000000 0.996675 -0.081480
vn -0.000000 0.996675 -0.081480
vn -0.000000 0.996675 -0.081480
vn -0.000000 0.996675 -0.081480
vn -0.098330 0.995154 0.000000
vn -0.098330 0.995154 0.000000
vn -0.098330 0.995154 0.000000
vn -0.098330 0.995154 0.000000
vn -0.125636 -0.992076 0.000000
vn -0.125636 -0.992076 0.000000
vn -0.125636 -0.992076 0.000000
vn -0.125636 -0.992076 0.000000
vn 0.000000 0.995154 0.098330
vn 0.000000 0.995154 0.098330
vn 0.000000 0.995154 0.098330
vn 0.000000 0.995154 0.098330
vn 0.000000 -0.992076 0.125636
vn 0.000000 -0.992076 0.125636
vn 0.000000 -0.992076 0.125636
vn 0.000000 -0.992076 0.125636
vn 0.098330 0.995154 0.000000
vn 0.098330 0.995154 0.000000
vn 0.098329 0.995154 0.000000
vn 0.098329 0.995154 0.000000
vn 0.125636 -0.992076 0.000000
vn 0.125636 -0.992076 0.000000
vn 0.125636 -0.992076 0.000000
vn 0.125636 -0.992076 0.000000
vn 0.000000 -0.992076 -0.125636
vn 0.000000 -0.992076 -0.125636
vn 0.000000 -0.992076 -0.125636
vn 0.000000 -0.992076 -0.125636
vn 0.000000 0.995154 -0.098330
vn 0.000000 0.995154 -0.098330
vn 0.000000 0.995154 -0.098330
vn 0.000000 0.995154 -0.098330
vn -0.050281 0.998735 0.000000
vn -0.050281 0.998735 0.000000
vn -0.050281 0.998735 0.000000
vn -0.050281 0.998735 0.000000
vn -0.132930 -0.991125 0.000000
vn -0.132930 -0.991125 0.000000
vn -0.132930 -0.991125 0.000000
vn -0.132930 -0.991125 0.000000
vn 0.000000 0.998735 0.050282
vn 0.000000 0.998735 0.050282
vn 0.000000 0.998735 0.050282
vn 0.000000 0.998735 0.050282
vn 0.000000 -0.991125 0.132930
vn 0.000000 -0.991125 0.132930
vn 0.000000 -0.991125 0.132930
vn 0.000000 -0.991125 0.132930
vn 0.050281 0.998735 0.000000
vn 0.050281 0.998735 0.000000
vn 0.050281 0.998735 0.000000
vn 0.050281 0.998735 0.000000
vn 0.132930 -0.991125 0.000000
vn 0.132930 -0.991125 0.000000
vn 0.132930 -0.991125 0.000000
vn 0.132930 -0.991125 0.000000
vn 0.000000 -0.991125 -0.132930
vn 0.000000 -0.991125 -0.132930
vn 0.000000 -0.991125 -0.132930
vn 0.000000 -0.991125 -0.132930
vn 0.000000 0.998735 -0.050282
vn 0.000000 0.998735 -0.050282
vn 0.000000 0.998735 -0.050282
vn 0.000000 0.998735 -0.050282
s off
g Shelf
usemtl initialShadingGroup
f 1/113/1 2/114/2 12/115/3 9/116/4
f 3/57/5 4/58/6 6/59/7 5/60/8
f 10/117/9 11/118/10 8/119/11 7/120/12
f 7/61/13 8/62/14 2/63/15 1/64/16
f 2/1/17 8/2/18 11/3/19 12/4/20
f 7/5/21 1/6/22 9/7/23 10/8/24
f 29/9/25 30/10/26 3/11/27 5/12/28
f 5/121/29 6/122/30 32/123/31 29/124/32
f 31/13/33 32/14/34 6/15/35 4/16/36
f 30/125/37 31/126/38 4/127/39 3/128/40
f 34/17/41 33/18/42 35/19/43 36/20/44
f 33/129/45 37/130/46 38/131/47 35/132/48
f 37/21/49 39/22/50 40/23/51 38/24/52
f 36/133/53 40/134/54 39/135/55 34/136/56
f 13/25/57 14/26/58 18/27/59 17/28/60
f 14/137/61 15/138/62 19/139/63 18/140/64
f 15/29/65 16/30/66 20/31/67 19/32/68
f 17/141/69 20/142/70 16/143/71 13/144/72
f 41/33/73 42/34/74 43/35/75 44/36/76
f 42/145/77 45/146/78 46/147/79 43/148/80
f 45/37/81 47/38/82 48/39/83 46/40/84
f 44/149/85 48/150/86 47/151/87 41/152/88
f 21/41/89 22/42/90 26/43/91 25/44/92
f 22/153/93 23/154/94 27/155/95 26/156/96
f 23/45/97 24/46/98 28/47/99 27/48/100
f 25/157/101 28/158/102 24/159/103 21/160/104
f 49/49/105 50/50/106 51/51/107 52/52/108
f 50/161/109 53/162/110 54/163/111 51/164/112
f 53/53/113 55/54/114 56/55/115 54/56/116
f 52/165/117 56/166/118 55/167/119 49/168/120
f 10/65/121 9/66/122 33/67/123 34/68/124
f 14/73/125 13/74/126 36/75/127 35/76/128
f 9/66/129 12/69/130 37/70/131 33/67/132
f 15/79/133 14/73/134 35/76/135 38/80/136
f 12/69/137 11/71/138 39/72/139 37/70/140
f 16/77/141 15/79/142 38/80/143 40/78/144
f 13/74/145 16/77/146 40/78/147 36/75/148
f 11/71/149 10/65/150 34/68/151 39/72/152
f 17/81/153 18/82/154 42/83/155 41/84/156
f 22/89/157 21/90/158 44/91/159 43/92/160
f 18/82/161 19/85/162 45/86/163 42/83/164
f 23/95/165 22/89/166 43/92/167 46/96/168
f 19/85/169 20/87/170 47/88/171 45/86/172
f 24/93/173 23/95/174 46/96/175 48/94/176
f 21/90/177 24/93/178 48/94/179 44/91/180
f 20/87/181 17/81/182 41/84/183 47/88/184
f 25/97/185 26/98/186 50/99/187 49/100/188
f 30/105/189 29/106/190 52/107/191 51/108/192
f 26/98/193 27/101/194 53/102/195 50/99/196
f 31/111/197 30/105/198 51/108/199 54/112/200
f 27/101/201 28/103/202 55/104/203 53/102/204
f 32/109/205 31/111/206 54/112/207 56/110/208
f 29/106/209 32/109/210 56/110/211 52/107/212
f 28/103/213 25/97/214 49/100/215 55/104/216
