# This file uses centimeters as units for non-parametric coordinates.

mtllib SM_AccessoriesandMakeup_Mirror_01.mtl
g default
v -0.219366 5.393535 -1.372693
v -0.219366 6.009912 -0.524322
v -0.219366 6.009912 0.524322
v -0.219366 5.393534 1.372693
v -0.219366 4.396215 1.696742
v -0.219366 3.398895 1.372693
v -0.219366 2.782518 0.524322
v -0.219366 2.782518 -0.524322
v -0.219366 3.398895 -1.372693
v -0.219366 4.396215 -1.696741
v 0.219366 5.393535 -1.372693
v 0.219366 6.009912 -0.524322
v 0.219366 6.009912 0.524322
v 0.219366 5.393534 1.372693
v 0.219366 4.396215 1.696742
v 0.219366 3.398895 1.372693
v 0.219366 2.782518 0.524322
v 0.219366 2.782518 -0.524322
v 0.219366 3.398895 -1.372693
v 0.219366 4.396215 -1.696741
v -0.219366 4.396215 0.000000
v 0.219366 4.396215 0.000000
v -0.219366 4.267182 -1.654816
v 0.219366 4.267182 -1.654816
v -0.219366 4.243963 1.647272
v 0.219366 4.243963 1.647272
v -0.219366 4.369997 2.011641
v -0.219366 4.270180 1.883045
v 0.219366 4.270180 1.883045
v 0.219366 4.369997 2.011641
v -0.219366 4.288506 -1.897950
v 0.219366 4.288506 -1.897950
v -0.219366 4.374890 -2.005522
v 0.219366 4.374890 -2.005522
v -0.219366 2.936049 1.641717
v -0.219366 3.046201 1.526635
v 0.219366 3.046201 1.526635
v 0.219366 2.936049 1.641717
v -0.219366 3.048553 -1.538176
v 0.219366 3.048553 -1.538176
v -0.219366 2.956917 -1.637324
v 0.219366 2.956917 -1.637324
v -0.219366 2.192567 0.106094
v -0.219366 2.339012 0.121410
v 0.219366 2.339012 0.121410
v 0.219366 2.192567 0.106094
v -0.219366 2.341551 -0.108642
v 0.219366 2.341551 -0.108642
v -0.219366 2.213247 -0.103000
v 0.219366 2.213247 -0.103000
v -0.219366 0.220978 0.106094
v 0.219366 0.220978 0.106094
v -0.219366 0.241658 -0.103000
v 0.219366 0.241658 -0.103000
v -0.219366 0.054039 0.106094
v 0.219366 0.054039 0.106094
v -0.219366 0.074719 -0.103000
v 0.219366 0.074719 -0.103000
v -1.548052 0.220978 1.329858
v 1.548052 0.220978 1.329858
v -1.548052 0.054039 1.329858
v 1.548052 0.054039 1.329858
v -1.548052 0.241658 -1.326764
v -1.548052 0.074719 -1.326764
v 1.548052 0.241658 -1.326764
v 1.548052 0.074719 -1.326764
vt 0.736335 0.001922
vt 0.776349 0.001922
vt 0.776349 0.138072
vt 0.736335 0.138072
vt 0.711606 0.001922
vt 0.711606 0.138072
vt 0.923435 0.001922
vt 0.958271 0.001922
vt 0.958271 0.138072
vt 0.923435 0.138072
vt 0.898705 0.001922
vt 0.898705 0.138072
vt 0.590770 0.001922
vt 0.630784 0.001922
vt 0.630784 0.138072
vt 0.590770 0.138072
vt 0.655514 0.001922
vt 0.655514 0.138072
vt 0.783717 0.138072
vt 0.783717 0.001922
vt 0.817622 0.001922
vt 0.817622 0.138072
vt 0.842352 0.001922
vt 0.842352 0.138072
vt 0.963594 0.142063
vt 0.963594 0.278213
vt 0.914487 0.278213
vt 0.914487 0.142063
vt 0.850820 0.278213
vt 0.850820 0.142063
vt 0.908352 0.142063
vt 0.908352 0.278213
vt 0.794936 0.278213
vt 0.794936 0.142063
vt 0.844685 0.142063
vt 0.844685 0.278213
vt 0.788801 0.142063
vt 0.788801 0.278213
vt 0.731910 0.278213
vt 0.731910 0.142063
vt 0.382134 0.374322
vt 0.382134 0.238171
vt 0.461236 0.238171
vt 0.461236 0.374322
vt 0.375999 0.238171
vt 0.375999 0.374322
vt 0.296896 0.374322
vt 0.296896 0.238171
vt 0.115226 0.962723
vt 0.115226 0.001922
vt 0.121924 0.001922
vt 0.121924 0.962723
vt 0.135567 0.001922
vt 0.135567 0.962723
vt 0.128869 0.962723
vt 0.128869 0.001922
vt 0.357296 0.001922
vt 0.391334 0.026651
vt 0.336260 0.066665
vt 0.404335 0.066665
vt 0.315224 0.001922
vt 0.402653 0.071842
vt 0.281186 0.026651
vt 0.416724 0.067520
vt 0.412408 0.070986
vt 0.391334 0.106678
vt 0.268185 0.066665
vt 0.401951 0.124411
vt 0.397973 0.120735
vt 0.357296 0.131408
vt 0.270170 0.072773
vt 0.340392 0.154248
vt 0.340619 0.149100
vt 0.315224 0.131408
vt 0.281186 0.106678
vt 0.260710 0.071722
vt 0.255551 0.067717
vt 0.332003 0.155078
vt 0.331389 0.149202
vt 0.275010 0.120829
vt 0.270392 0.125248
vt 0.340392 0.233350
vt 0.332003 0.234180
vt 0.558944 0.209450
vt 0.524906 0.234180
vt 0.503870 0.169437
vt 0.482833 0.234180
vt 0.571945 0.169437
vt 0.448796 0.209450
vt 0.570263 0.164260
vt 0.435795 0.169437
vt 0.558944 0.129423
vt 0.580018 0.165115
vt 0.584333 0.168581
vt 0.437780 0.163328
vt 0.524906 0.104693
vt 0.565583 0.115367
vt 0.569561 0.111690
vt 0.423161 0.168385
vt 0.428320 0.164380
vt 0.448796 0.129423
vt 0.482833 0.104693
vt 0.508229 0.087001
vt 0.508002 0.081854
vt 0.438002 0.110853
vt 0.442620 0.115273
vt 0.498999 0.086899
vt 0.499613 0.081024
vt 0.499613 0.001922
vt 0.508002 0.002751
vt 0.284063 0.344758
vt 0.283234 0.238171
vt 0.289931 0.238171
vt 0.290761 0.344758
vt 0.277098 0.238171
vt 0.276269 0.344758
vt 0.269571 0.344758
vt 0.270401 0.238171
vt 0.704955 0.138072
vt 0.662882 0.138072
vt 0.662882 0.001922
vt 0.704955 0.001922
vt 0.849981 0.001922
vt 0.892054 0.001922
vt 0.892054 0.138072
vt 0.849981 0.138072
vt 0.974429 0.001922
vt 0.974429 0.138072
vt 0.964969 0.138072
vt 0.964969 0.001922
vt 0.995144 0.001922
vt 0.995144 0.138072
vt 0.982510 0.138072
vt 0.982510 0.001922
vt 0.988253 0.278214
vt 0.988253 0.142063
vt 0.998008 0.142063
vt 0.998008 0.278214
vt 0.969729 0.278214
vt 0.969729 0.142063
vt 0.982118 0.142063
vt 0.982118 0.278214
vt 0.602812 0.278214
vt 0.602812 0.142063
vt 0.659191 0.142063
vt 0.659191 0.278214
vt 0.668421 0.142063
vt 0.668421 0.278214
vt 0.725775 0.142063
vt 0.725775 0.278214
vt 0.535066 0.374322
vt 0.535066 0.238171
vt 0.596676 0.238171
vt 0.596676 0.374322
vt 0.528930 0.238171
vt 0.528930 0.374322
vt 0.467371 0.374322
vt 0.467371 0.238171
vt 0.051091 0.550397
vt 0.051091 0.414247
vt 0.059480 0.414247
vt 0.059480 0.550397
vt 0.001992 0.962723
vt 0.001992 0.001922
vt 0.108579 0.001922
vt 0.108579 0.962723
vt 0.191610 0.414247
vt 0.191610 0.550397
vt 0.142511 0.962723
vt 0.142511 0.001922
vt 0.199999 0.550397
vt 0.249098 0.962723
vt 0.199999 0.414247
vt 0.249098 0.001922
vn 0.000000 0.809017 -0.587785
vn 0.000000 0.809017 -0.587785
vn 0.000000 0.809017 -0.587785
vn 0.000000 0.809017 -0.587785
vn 0.000000 1.000000 0.000000
vn 0.000000 1.000000 0.000000
vn 0.000000 1.000000 0.000000
vn 0.000000 1.000000 0.000000
vn 0.000000 0.809017 0.587785
vn 0.000000 0.809017 0.587785
vn 0.000000 0.809017 0.587785
vn 0.000000 0.809017 0.587785
vn 0.000000 0.309017 0.951057
vn 0.000000 0.309017 0.951057
vn 0.000000 0.309017 0.951057
vn 0.000000 0.309017 0.951057
vn 0.000000 -0.809017 0.587785
vn 0.000000 -0.809017 0.587785
vn 0.000000 -0.809017 0.587785
vn 0.000000 -0.809017 0.587785
vn 0.000000 -1.000000 -0.000000
vn 0.000000 -1.000000 -0.000000
vn 0.000000 -1.000000 -0.000000
vn 0.000000 -1.000000 -0.000000
vn 0.000000 -0.809017 -0.587785
vn 0.000000 -0.809017 -0.587785
vn 0.000000 -0.809017 -0.587785
vn 0.000000 -0.809017 -0.587785
vn 0.000000 -0.309017 -0.951057
vn 0.000000 -0.309017 -0.951057
vn 0.000000 -0.309017 -0.951057
vn 0.000000 -0.309017 -0.951057
vn 0.000000 0.309017 -0.951057
vn 0.000000 0.309017 -0.951057
vn 0.000000 0.309017 -0.951057
vn 0.000000 0.309017 -0.951057
vn -1.000000 -0.000000 0.000000
vn -1.000000 -0.000000 0.000000
vn -1.000000 0.000000 0.000000
vn -1.000000 -0.000000 0.000000
vn -1.000000 -0.000000 0.000000
vn -1.000000 -0.000000 0.000000
vn -1.000000 0.000000 0.000000
vn -1.000000 -0.000000 0.000000
vn -1.000000 0.000000 0.000000
vn -1.000000 -0.000000 0.000000
vn -1.000000 -0.000000 0.000000
vn -1.000000 -0.000000 0.000000
vn -1.000000 -0.000000 0.000000
vn 1.000000 0.000000 0.000000
vn 1.000000 -0.000000 0.000000
vn 1.000000 0.000000 0.000000
vn 1.000000 -0.000000 0.000000
vn 1.000000 0.000000 -0.000000
vn 1.000000 0.000000 0.000000
vn 1.000000 0.000000 0.000000
vn 1.000000 0.000000 0.000000
vn 1.000000 0.000000 0.000000
vn 1.000000 0.000000 0.000000
vn 1.000000 0.000000 0.000000
vn 1.000000 0.000000 0.000000
vn 1.000000 0.000000 0.000000
vn 0.000000 -0.309017 0.951056
vn 0.000000 -0.309017 0.951056
vn 0.000000 -0.309017 0.951056
vn 0.000000 -0.309017 0.951056
vn -1.000000 -0.000000 0.000000
vn -1.000000 -0.000000 0.000000
vn -1.000000 -0.000000 0.000000
vn -1.000000 -0.000000 0.000000
vn 0.000000 -0.993874 0.110517
vn 0.000000 -0.993874 0.110517
vn 0.000000 -0.993874 0.110517
vn 0.000000 -0.993874 0.110517
vn 1.000000 0.000000 0.000000
vn 1.000000 0.000000 0.000000
vn 1.000000 0.000000 0.000000
vn 1.000000 0.000000 0.000000
vn 0.000000 0.996552 0.082970
vn 0.000000 0.996552 0.082970
vn 0.000000 0.996552 0.082970
vn 0.000000 0.996552 0.082970
vn 0.000000 -0.996176 -0.087372
vn 0.000000 -0.996176 -0.087372
vn 0.000000 -0.996176 -0.087372
vn 0.000000 -0.996176 -0.087372
vn -1.000000 -0.000000 0.000000
vn -1.000000 -0.000000 0.000000
vn -1.000000 -0.000000 0.000000
vn -1.000000 -0.000000 0.000000
vn 0.000000 0.997624 -0.068897
vn 0.000000 0.997624 -0.068897
vn 0.000000 0.997624 -0.068897
vn 0.000000 0.997624 -0.068897
vn 1.000000 0.000000 0.000000
vn 1.000000 0.000000 0.000000
vn 1.000000 0.000000 0.000000
vn 1.000000 0.000000 0.000000
vn -1.000000 -0.000000 0.000000
vn -1.000000 -0.000000 0.000000
vn -1.000000 -0.000000 0.000000
vn -1.000000 -0.000000 0.000000
vn 0.000000 0.279578 -0.960123
vn 0.000000 0.279578 -0.960123
vn 0.000000 0.279578 -0.960123
vn 0.000000 0.279578 -0.960123
vn 1.000000 0.000000 0.000000
vn 1.000000 0.000000 0.000000
vn 1.000000 0.000000 0.000000
vn 1.000000 0.000000 0.000000
vn 0.000000 -0.249797 0.968298
vn 0.000000 -0.249797 0.968298
vn 0.000000 -0.249797 0.968298
vn 0.000000 -0.249797 0.968298
vn 0.000000 0.278658 0.960390
vn 0.000000 0.278658 0.960390
vn 0.000000 0.278658 0.960390
vn 0.000000 0.278658 0.960390
vn -1.000000 -0.000000 0.000000
vn -1.000000 -0.000000 0.000000
vn -1.000000 -0.000000 0.000000
vn -1.000000 -0.000000 0.000000
vn 0.000000 -0.251330 -0.967901
vn 0.000000 -0.251330 -0.967901
vn 0.000000 -0.251330 -0.967901
vn 0.000000 -0.251330 -0.967901
vn 1.000000 0.000000 0.000000
vn 1.000000 0.000000 0.000000
vn 1.000000 0.000000 0.000000
vn 1.000000 0.000000 0.000000
vn -1.000000 -0.000000 0.000000
vn -1.000000 -0.000000 0.000000
vn -1.000000 -0.000000 0.000000
vn -1.000000 -0.000000 0.000000
vn 0.000000 0.893261 -0.449539
vn 0.000000 0.893261 -0.449539
vn 0.000000 0.893261 -0.449539
vn 0.000000 0.893261 -0.449539
vn 1.000000 0.000000 0.000000
vn 1.000000 0.000000 0.000000
vn 1.000000 0.000000 0.000000
vn 1.000000 0.000000 0.000000
vn 0.000000 -0.900058 0.435769
vn 0.000000 -0.900058 0.435769
vn 0.000000 -0.900058 0.435769
vn 0.000000 -0.900058 0.435769
vn 0.000000 0.896366 0.443314
vn 0.000000 0.896366 0.443314
vn 0.000000 0.896366 0.443314
vn 0.000000 0.896366 0.443314
vn -1.000000 -0.000000 0.000000
vn -1.000000 -0.000000 0.000000
vn -1.000000 -0.000000 0.000000
vn -1.000000 -0.000000 0.000000
vn 0.000000 -0.899870 -0.436157
vn 0.000000 -0.899870 -0.436157
vn 0.000000 -0.899870 -0.436157
vn 0.000000 -0.899870 -0.436157
vn 1.000000 0.000000 0.000000
vn 1.000000 0.000000 0.000000
vn 1.000000 0.000000 0.000000
vn 1.000000 0.000000 0.000000
vn 0.000000 0.999939 0.011035
vn 0.000000 0.999939 0.011035
vn 0.000000 0.999939 0.011035
vn 0.000000 0.999939 0.011035
vn 1.000000 0.000000 0.000000
vn 1.000000 0.000000 0.000000
vn 1.000000 0.000000 0.000000
vn 1.000000 0.000000 0.000000
vn 0.000000 -0.995145 -0.098424
vn 0.000000 -0.995145 -0.098424
vn 0.000000 -0.995145 -0.098424
vn 0.000000 -0.995145 -0.098424
vn -1.000000 -0.000000 0.000000
vn -1.000000 -0.000000 0.000000
vn -1.000000 -0.000000 0.000000
vn -1.000000 -0.000000 0.000000
vn 0.000000 0.000000 1.000000
vn 0.000000 0.000000 1.000000
vn 0.000000 0.000000 1.000000
vn 0.000000 0.000000 1.000000
vn -1.000000 -0.000000 0.000000
vn -1.000000 -0.000000 0.000000
vn -1.000000 -0.000000 0.000000
vn -1.000000 -0.000000 0.000000
vn 0.000000 0.000000 -1.000000
vn 0.000000 0.000000 -1.000000
vn 0.000000 0.000000 -1.000000
vn 0.000000 0.000000 -1.000000
vn 1.000000 0.000000 0.000000
vn 1.000000 0.000000 0.000000
vn 1.000000 0.000000 0.000000
vn 1.000000 0.000000 0.000000
vn 0.000000 0.000000 1.000000
vn 0.000000 0.000000 1.000000
vn 0.000000 0.000000 1.000000
vn 0.000000 0.000000 1.000000
vn -1.000000 -0.000000 0.000000
vn -1.000000 -0.000000 0.000000
vn -1.000000 -0.000000 0.000000
vn -1.000000 -0.000000 0.000000
vn 0.000000 0.000000 -1.000000
vn 0.000000 0.000000 -1.000000
vn 0.000000 0.000000 -1.000000
vn 0.000000 0.000000 -1.000000
vn 1.000000 0.000000 0.000000
vn 1.000000 0.000000 0.000000
vn 1.000000 0.000000 0.000000
vn 1.000000 0.000000 0.000000
vn 0.000000 1.000000 0.000000
vn 0.000000 1.000000 0.000000
vn 0.000000 1.000000 0.000000
vn 0.000000 1.000000 0.000000
vn 0.000000 -1.000000 0.000000
vn 0.000000 -1.000000 0.000000
vn 0.000000 -1.000000 0.000000
vn 0.000000 -1.000000 0.000000
vn 0.000000 0.999896 0.014431
vn 0.000000 0.999896 0.014431
vn 0.000000 0.999896 0.014431
vn 0.000000 0.999896 0.014431
vn -0.000000 -0.999896 -0.014431
vn -0.000000 -0.999896 -0.014431
vn -0.000000 -0.999896 -0.014431
vn -0.000000 -0.999896 -0.014431
vn 0.000000 1.000000 0.000000
vn 0.000000 1.000000 0.000000
vn 0.000000 1.000000 0.000000
vn 0.000000 1.000000 0.000000
vn 0.000000 -1.000000 0.000000
vn 0.000000 -1.000000 0.000000
vn 0.000000 -1.000000 0.000000
vn 0.000000 -1.000000 0.000000
vn -0.000000 0.999896 0.014431
vn -0.000000 0.999896 0.014431
vn -0.000000 0.999896 0.014431
vn -0.000000 0.999896 0.014431
vn 0.000000 -0.999896 -0.014431
vn 0.000000 -0.999896 -0.014431
vn 0.000000 -0.999896 -0.014431
vn 0.000000 -0.999896 -0.014431
s off
g pCylinder4
usemtl initialShadingGroup
f 1/14/1 2/17/2 12/18/3 11/15/4
f 2/119/5 3/120/6 13/121/7 12/122/8
f 3/5/9 4/1/10 14/4/11 13/6/12
f 4/1/13 5/2/14 15/3/15 14/4/16
f 6/21/17 7/23/18 17/24/19 16/22/20
f 7/123/21 8/124/22 18/125/23 17/126/24
f 8/11/25 9/7/26 19/10/27 18/12/28
f 9/7/29 23/8/30 24/9/31 19/10/32
f 10/13/33 1/14/34 11/15/35 20/16/36
s 1
f 2/57/37 1/58/38 21/59/39
f 3/61/40 2/57/37 21/59/39
f 4/63/41 3/61/40 21/59/39
f 5/67/42 4/63/41 21/59/39
f 6/75/43 25/71/44 21/59/39
f 7/74/45 6/75/43 21/59/39
f 8/70/46 7/74/45 21/59/39
f 9/66/47 8/70/46 21/59/39
f 21/59/39 23/62/48 9/66/47
f 1/58/38 10/60/49 21/59/39
s 2
f 11/84/50 12/85/51 22/86/52
f 12/85/51 13/87/53 22/86/52
f 13/87/53 14/89/54 22/86/52
f 14/89/54 15/91/55 22/86/52
f 22/86/52 26/95/56 16/101/57
f 16/101/57 17/102/58 22/86/52
f 17/102/58 18/96/59 22/86/52
f 18/96/59 19/92/60 22/86/52
f 19/92/60 24/90/61 22/86/52
f 20/88/62 11/84/50 22/86/52
s off
f 26/19/63 25/20/64 6/21/65 16/22/66
s 1
f 21/59/39 25/71/44 5/67/42
f 10/60/49 23/62/48 21/59/39
s 2
f 22/86/52 24/90/61 20/88/62
f 15/91/55 26/95/56 22/86/52
s off
f 5/67/67 25/71/68 28/76/69 27/77/70
f 25/127/71 26/128/72 29/129/73 28/130/74
f 26/95/75 15/91/76 30/99/77 29/100/78
f 15/131/79 5/132/80 27/133/81 30/134/82
f 24/135/83 23/136/84 31/137/85 32/138/86
f 23/62/87 10/60/88 33/64/89 31/65/90
f 10/139/91 20/140/92 34/141/93 33/142/94
f 20/88/95 24/90/96 32/93/97 34/94/98
f 27/77/99 28/76/100 36/80/101 35/81/102
f 28/25/103 29/26/104 37/27/105 36/28/106
f 29/100/107 30/99/108 38/105/109 37/106/110
f 30/29/111 27/30/112 35/31/113 38/32/114
f 32/33/115 31/34/116 39/35/117 40/36/118
f 31/65/119 33/64/120 41/68/121 39/69/122
f 33/37/123 34/38/124 42/39/125 41/40/126
f 34/94/127 32/93/128 40/97/129 42/98/130
f 35/81/131 36/80/132 44/79/133 43/78/134
f 36/143/135 37/144/136 45/145/137 44/146/138
f 37/106/139 38/105/140 46/108/141 45/107/142
f 38/151/143 35/152/144 43/153/145 46/154/146
f 40/149/147 39/150/148 47/148/149 48/147/150
f 39/69/151 41/68/152 49/72/153 47/73/154
f 41/155/155 42/156/156 50/157/157 49/158/158
f 42/98/159 40/97/160 48/103/161 50/104/162
f 44/146/163 45/145/164 48/147/165 47/148/166
f 45/107/167 46/108/168 50/104/169 48/103/170
f 56/159/171 55/160/172 57/161/173 58/162/174
f 43/78/175 44/79/176 47/73/177 49/72/178
f 46/41/179 43/42/180 51/43/181 52/44/182
f 43/78/183 49/72/184 53/82/185 51/83/186
f 49/45/187 50/46/188 54/47/189 53/48/190
f 50/104/191 46/108/192 52/109/193 54/110/194
f 60/49/195 59/50/196 61/51/197 62/52/198
f 59/111/199 63/112/200 64/113/201 61/114/202
f 63/53/203 65/54/204 66/55/205 64/56/206
f 65/115/207 60/116/208 62/117/209 66/118/210
f 52/167/211 51/168/212 59/169/213 60/170/214
f 55/160/215 56/159/216 62/163/217 61/164/218
f 51/168/219 53/171/220 63/172/221 59/169/222
f 57/161/223 55/160/224 61/164/225 64/165/226
f 53/171/227 54/173/228 65/174/229 63/172/230
f 58/162/231 57/161/232 64/165/233 66/166/234
f 54/173/235 52/167/236 60/170/237 65/174/238
f 56/159/239 58/162/240 66/166/241 62/163/242
