# Blender v3.0.0 OBJ File: 'FoodcourtProps.blend'
# www.blender.org
mtllib SM_FoodCourt_Tray.mtl
o SM_FoodCourt_Tray_Cube
v -2.369083 0.102902 -1.918035
v -2.410351 0.102902 -1.959303
v -2.425949 0.075575 -1.902437
v -2.410351 0.102902 1.959303
v -2.369083 0.102902 1.918035
v -2.425949 0.075575 1.902437
v -9.854766 0.102902 -1.918035
v -9.797899 0.075575 -1.902437
v -9.813497 0.102902 -1.959303
v -9.813497 0.102902 1.959303
v -9.797899 0.075575 1.902437
v -9.854766 0.102902 1.918035
v -2.172587 0.180576 2.190798
v -2.137588 0.180576 2.155799
v -2.172587 0.215575 2.155799
v -10.051261 0.180576 2.190798
v -10.051261 0.215575 2.155799
v -10.086260 0.180576 2.155799
v -2.137588 0.180576 -2.155799
v -2.172587 0.180576 -2.190798
v -2.172587 0.215575 -2.155799
v -10.086260 0.180576 -2.155799
v -10.051261 0.215575 -2.155799
v -10.051261 0.180576 -2.190798
v -2.342055 0.188248 2.027599
v -2.243920 0.215575 2.084466
v -2.300786 0.188248 1.986331
v -9.881793 0.188248 2.027599
v -9.923061 0.188248 1.986330
v -9.979928 0.215575 2.084466
v -2.300786 0.188248 -1.986331
v -2.243920 0.215575 -2.084466
v -2.342055 0.188248 -2.027599
v -9.923061 0.188248 -1.986330
v -9.881793 0.188248 -2.027599
v -9.979928 0.215575 -2.084466
v -2.346212 0.042609 -1.941513
v -2.401909 0.014387 -1.926477
v -2.386873 0.042609 -1.982174
v -2.386873 0.042609 1.982174
v -2.401909 0.014387 1.926477
v -2.346212 0.042609 1.941513
v -9.877636 0.042609 -1.941513
v -9.836975 0.042609 -1.982174
v -9.821939 0.014387 -1.926477
v -9.836975 0.042609 1.982174
v -9.877636 0.042610 1.941513
v -9.821939 0.014387 1.926477
v -2.172587 0.180576 2.190798
v -2.172586 0.145893 2.155800
v -2.137588 0.180576 2.155799
v -10.051261 0.180574 2.190798
v -10.086260 0.180574 2.155799
v -10.051262 0.145891 2.155800
v -2.137588 0.180576 -2.155799
v -2.172586 0.145893 -2.155800
v -2.172587 0.180576 -2.190798
v -10.086260 0.180574 -2.155799
v -10.051261 0.180574 -2.190798
v -10.051262 0.145891 -2.155800
v -2.331180 0.118547 2.037867
v -2.290519 0.118547 1.997205
v -2.234823 0.146454 2.093563
v -9.892668 0.118547 2.037867
v -9.989025 0.146453 2.093563
v -9.933329 0.118547 1.997205
v -2.290519 0.118547 -1.997205
v -2.331180 0.118547 -2.037867
v -2.234823 0.146454 -2.093563
v -9.933329 0.118547 -1.997205
v -9.989025 0.146453 -2.093563
v -9.892668 0.118547 -2.037867
vt 0.866421 0.513208
vt 0.633579 0.513208
vt 0.631431 0.509312
vt 0.868569 0.509312
vt 0.625000 0.501997
vt 0.625000 0.748003
vt 0.625000 0.748003
vt 0.625000 0.501997
vt 0.628344 0.743933
vt 0.871656 0.743933
vt 0.873899 0.748003
vt 0.626101 0.748003
vt 0.873899 0.500000
vt 0.626101 0.500000
vt 0.626101 0.500000
vt 0.873899 0.500000
vt 0.632218 0.515395
vt 0.630196 0.511733
vt 0.630196 0.738267
vt 0.632217 0.734605
vt 0.867719 0.734437
vt 0.867719 0.515563
vt 0.869867 0.511666
vt 0.869867 0.738334
vt 0.634069 0.516453
vt 0.865930 0.516453
vt 0.865931 0.733547
vt 0.634069 0.733547
vt 0.626101 0.750000
vt 0.873899 0.750000
vt 0.873899 0.750000
vt 0.626101 0.750000
vt 0.633579 0.736792
vt 0.866421 0.736792
vt 0.868569 0.740689
vt 0.631431 0.740688
vt 0.866509 0.513093
vt 0.868529 0.509427
vt 0.631471 0.509427
vt 0.633491 0.513093
vt 0.628269 0.505930
vt 0.626176 0.502134
vt 0.626176 0.747866
vt 0.628269 0.744070
vt 0.871731 0.744070
vt 0.873824 0.747866
vt 0.873824 0.502134
vt 0.871731 0.505930
vt 0.867783 0.734605
vt 0.869804 0.738267
vt 0.869804 0.511733
vt 0.867783 0.515395
vt 0.634062 0.516428
vt 0.634062 0.733572
vt 0.865938 0.733572
vt 0.865938 0.516428
vt 0.633491 0.736907
vt 0.631471 0.740573
vt 0.868529 0.740573
vt 0.866509 0.736907
vt 0.628344 0.506067
vt 0.626101 0.501997
vt 0.875000 0.748003
vt 0.875000 0.501997
vt 0.875000 0.501997
vt 0.875000 0.748003
vt 0.871656 0.506067
vt 0.873899 0.501997
vt 0.632281 0.515563
vt 0.632281 0.734437
vt 0.630133 0.738334
vt 0.630133 0.511666
vn 0.0000 0.6248 0.7808
vn 0.0000 0.0000 1.0000
vn 0.0000 1.0000 0.0000
vn 0.0000 0.0000 -1.0000
vn 0.8064 -0.5914 0.0000
vn 0.7808 0.6248 0.0000
vn -0.0000 0.6248 -0.7808
vn 0.0000 -0.5914 -0.8064
vn -0.0090 -1.0000 0.0000
vn 0.0090 -1.0000 0.0000
vn 0.0000 -1.0000 0.0090
vn -0.8064 -0.5914 0.0000
vn 0.0000 -1.0000 0.0000
vn 0.0000 -1.0000 -0.0090
vn -0.0000 -0.5914 0.8064
vn -1.0000 0.0000 0.0000
vn -0.3327 0.8824 0.3327
vn -0.3327 0.8824 -0.3327
vn 0.3327 0.8824 0.3327
vn 0.3327 0.8824 -0.3327
vn 0.5773 0.5773 0.5774
vn -0.5774 0.5773 0.5774
vn 0.5773 0.5773 -0.5774
vn -0.5774 0.5773 -0.5774
vn -0.1711 0.9703 -0.1711
vn 0.1711 0.9703 -0.1711
vn -0.1711 0.9703 0.1711
vn 0.1711 0.9703 0.1711
vn 0.3475 -0.8709 -0.3475
vn 0.3475 -0.8709 0.3475
vn -0.3475 -0.8709 -0.3475
vn -0.3475 -0.8709 0.3475
vn 0.5756 -0.5808 0.5756
vn -0.5756 -0.5808 0.5756
vn 0.5756 -0.5808 -0.5756
vn -0.5756 -0.5808 -0.5756
vn 0.1776 -0.9679 0.1776
vn -0.1776 -0.9679 0.1776
vn 0.1776 -0.9679 -0.1776
vn -0.1776 -0.9679 -0.1776
vn 0.0000 0.7071 0.7071
vn 0.7071 0.7071 0.0000
vn -0.7071 0.7071 0.0000
vn 0.0000 0.7071 -0.7071
vn -0.0000 0.9013 -0.4331
vn -0.4331 0.9013 0.0000
vn 0.4331 0.9013 0.0000
vn 0.0000 0.9013 0.4331
vn -0.4682 0.7494 -0.4682
vn 0.4682 0.7494 -0.4682
vn -0.4682 0.7494 0.4682
vn 0.4682 0.7494 0.4682
vn 0.0000 -0.7103 0.7039
vn 0.7039 -0.7103 0.0000
vn -0.7039 -0.7103 0.0000
vn 0.0000 -0.7103 -0.7039
vn 0.0000 -0.8941 0.4480
vn 0.4480 -0.8940 0.0000
vn -0.4480 -0.8941 -0.0000
vn 0.0000 -0.8941 -0.4480
vn 0.0000 -0.8920 0.4520
vn 0.4520 -0.8920 0.0000
vn -0.4520 -0.8920 0.0000
vn 0.0000 -0.8920 -0.4520
vn 0.4908 -0.7199 0.4908
vn -0.4908 -0.7199 0.4908
vn 0.4908 -0.7199 -0.4908
vn -0.4908 -0.7199 -0.4908
vn 1.0000 0.0000 0.0000
vn -0.7084 0.0000 0.7058
vn -0.7084 0.0000 -0.7058
vn -0.7808 0.6248 0.0000
usemtl Material
s off
f 9/1/1 2/2/1 33/3/1 35/4/1
f 19/5/2 14/6/2 51/7/2 55/8/2
f 26/9/3 30/10/3 17/11/3 15/12/3
f 24/13/4 20/14/4 57/15/4 59/16/4
f 37/17/5 67/18/5 62/19/5 42/20/5
f 12/21/6 7/22/6 34/23/6 29/24/6
f 3/25/3 8/26/3 11/27/3 6/28/3
f 13/29/2 16/30/2 52/31/2 49/32/2
f 4/33/7 10/34/7 28/35/7 25/36/7
f 44/37/8 72/38/8 68/39/8 39/40/8
f 69/41/9 56/42/9 50/43/9 63/44/9
f 65/45/10 54/46/10 60/47/10 71/48/10
f 71/48/11 60/47/11 56/42/11 69/41/11
f 47/49/12 66/50/12 70/51/12 43/52/12
f 38/53/13 41/54/13 48/55/13 45/56/13
f 63/44/14 50/43/14 54/46/14 65/45/14
f 40/57/15 61/58/15 64/59/15 46/60/15
f 32/61/3 26/9/3 15/12/3 21/62/3
f 18/63/16 22/64/16 58/65/16 53/66/16
f 30/10/3 36/67/3 23/68/3 17/11/3
f 36/67/3 32/61/3 21/62/3 23/68/3
f 1/69/17 2/2/17 3/25/17
f 4/33/18 5/70/18 6/28/18
f 7/22/19 8/26/19 9/1/19
f 10/34/20 11/27/20 12/21/20
f 13/29/21 14/6/21 15/12/21
f 16/30/22 17/11/22 18/63/22
f 19/5/23 20/14/23 21/62/23
f 22/64/24 23/68/24 24/13/24
f 25/36/25 26/9/25 27/71/25
f 28/35/26 29/24/26 30/10/26
f 31/72/27 32/61/27 33/3/27
f 34/23/28 35/4/28 36/67/28
f 37/17/29 38/53/29 39/40/29
f 40/57/30 41/54/30 42/20/30
f 43/52/31 44/37/31 45/56/31
f 46/60/32 47/49/32 48/55/32
f 49/32/33 50/43/33 51/7/33
f 52/31/34 53/66/34 54/46/34
f 55/8/35 56/42/35 57/15/35
f 58/65/36 59/16/36 60/47/36
f 61/58/37 62/19/37 63/44/37
f 64/59/38 65/45/38 66/50/38
f 67/18/39 68/39/39 69/41/39
f 70/51/40 71/48/40 72/38/40
f 15/12/41 17/11/41 16/30/41 13/29/41
f 21/62/42 15/12/42 14/6/42 19/5/42
f 17/11/43 23/68/43 22/64/43 18/63/43
f 23/68/44 21/62/44 20/14/44 24/13/44
f 25/36/45 28/35/45 30/10/45 26/9/45
f 31/72/46 27/71/46 26/9/46 32/61/46
f 29/24/47 34/23/47 36/67/47 30/10/47
f 35/4/48 33/3/48 32/61/48 36/67/48
f 6/28/45 11/27/45 10/34/45 4/33/45
f 3/25/46 6/28/46 5/70/46 1/69/46
f 11/27/47 8/26/47 7/22/47 12/21/47
f 8/26/48 3/25/48 2/2/48 9/1/48
f 27/71/49 5/70/49 4/33/49 25/36/49
f 12/21/50 29/24/50 28/35/50 10/34/50
f 33/3/51 2/2/51 1/69/51 31/72/51
f 9/1/52 35/4/52 34/23/52 7/22/52
f 49/32/53 52/31/53 54/46/53 50/43/53
f 55/8/54 51/7/54 50/43/54 56/42/54
f 53/66/55 58/65/55 60/47/55 54/46/55
f 59/16/56 57/15/56 56/42/56 60/47/56
f 63/44/57 65/45/57 64/59/57 61/58/57
f 69/41/58 63/44/58 62/19/58 67/18/58
f 65/45/59 71/48/59 70/51/59 66/50/59
f 71/48/60 69/41/60 68/39/60 72/38/60
f 40/57/61 46/60/61 48/55/61 41/54/61
f 37/17/62 42/20/62 41/54/62 38/53/62
f 47/49/63 43/52/63 45/56/63 48/55/63
f 44/37/64 39/40/64 38/53/64 45/56/64
f 61/58/65 40/57/65 42/20/65 62/19/65
f 46/60/66 64/59/66 66/50/66 47/49/66
f 67/18/67 37/17/67 39/40/67 68/39/67
f 43/52/68 70/51/68 72/38/68 44/37/68
f 13/29/69 49/32/69 51/7/69 14/6/69
f 18/63/70 53/66/70 52/31/70 16/30/70
f 19/5/2 55/8/2 57/15/2 20/14/2
f 24/13/71 59/16/71 58/65/71 22/64/71
f 1/69/72 5/70/72 27/71/72 31/72/72
