# This file uses centimeters as units for non-parametric coordinates.

mtllib SM_GenericProp_FramedAdvertisement.mtl
g default
v -23.908804 7.411982 26.970129
v -11.545589 7.411982 26.988472
v -23.908804 25.077374 26.970129
v -11.545589 25.077374 26.988472
v -11.546225 7.411982 27.416931
v -23.909439 7.411982 27.398586
v -23.909439 25.077374 27.398586
v -11.546225 25.077374 27.416931
v -11.940232 7.805989 27.416346
v -23.515430 7.805989 27.399170
v -23.515430 24.683365 27.399170
v -11.940232 24.683365 27.416346
v -11.939528 7.805506 27.267519
v -23.513136 7.805506 27.250347
v -23.513781 24.683720 27.250345
v -11.940950 24.682426 27.267517
vt 0.014290 0.001992
vt 0.014290 0.509314
vt 0.001985 0.509314
vt 0.001985 0.001992
vt 0.033909 0.001992
vt 0.033909 0.509314
vt 0.021604 0.509314
vt 0.021604 0.001992
vt 0.651891 0.997971
vt 0.651891 0.513292
vt 0.656165 0.513306
vt 0.656165 0.997998
vt 0.767891 0.001992
vt 0.767891 0.486708
vt 0.763617 0.486697
vt 0.763617 0.002006
vt 0.633471 0.868363
vt 0.632944 0.513311
vt 0.645249 0.513292
vt 0.645776 0.868344
vt 0.613998 0.868344
vt 0.614525 0.513292
vt 0.626830 0.513311
vt 0.626303 0.868363
vt 0.607390 0.513292
vt 0.607883 0.845668
vt 0.603609 0.845734
vt 0.603116 0.513313
vt 0.592234 0.845666
vt 0.592727 0.513313
vt 0.597001 0.513292
vt 0.596508 0.845714
vt 0.384765 0.013307
vt 0.052344 0.013307
vt 0.041028 0.001992
vt 0.396080 0.001992
vt 0.052344 0.497999
vt 0.041028 0.509314
vt 0.384765 0.497999
vt 0.396080 0.509314
vt 0.402322 0.001992
vt 0.757375 0.001992
vt 0.757375 0.509314
vt 0.402322 0.509314
vt 0.662298 0.513292
vt 0.994674 0.513292
vt 0.994633 0.997971
vt 0.662280 0.998008
vn 0.000000 1.000000 0.000000
vn 0.000000 1.000000 0.000000
vn 0.000000 1.000000 0.000000
vn 0.000000 1.000000 0.000000
vn -0.999999 0.000000 -0.001500
vn -0.999999 0.000000 -0.001500
vn -0.999999 0.000000 -0.001500
vn -0.999999 0.000000 -0.001500
vn 0.000000 -1.000000 0.000000
vn 0.000000 -1.000000 0.000000
vn 0.000000 -1.000000 0.000000
vn 0.000000 -1.000000 0.000000
vn 0.999999 0.000000 0.001500
vn 0.999999 0.000000 0.001500
vn 0.999999 0.000000 0.001500
vn 0.999999 0.000000 0.001500
vn -0.001500 0.000000 0.999999
vn -0.001500 0.000000 0.999999
vn -0.001500 0.000000 0.999999
vn -0.001500 0.000000 0.999999
vn -0.001500 0.000000 0.999999
vn -0.001500 0.000000 0.999999
vn -0.001500 0.000000 0.999999
vn -0.001500 0.000000 0.999999
vn -0.001500 0.000000 0.999999
vn -0.001500 0.000000 0.999999
vn -0.001500 0.000000 0.999999
vn -0.001500 0.000000 0.999999
vn -0.001500 0.000000 0.999999
vn -0.001500 0.000000 0.999999
vn -0.001500 0.000000 0.999999
vn -0.001500 0.000000 0.999999
vn 0.000000 0.999995 -0.003200
vn 0.000000 0.999995 -0.003200
vn 0.000000 0.999995 -0.003200
vn 0.000000 0.999995 -0.003200
vn -0.000100 -0.999998 0.002000
vn -0.000100 -0.999998 0.002000
vn -0.000100 -0.999998 0.002000
vn -0.000100 -0.999998 0.002000
vn -1.000000 0.000000 0.000000
vn -1.000000 0.000000 0.000000
vn -1.000000 0.000000 0.000000
vn -1.000000 0.000000 0.000000
vn 0.999912 0.000000 0.013300
vn 0.999912 0.000000 0.013300
vn 0.999912 0.000000 0.013300
vn 0.999912 0.000000 0.013300
vn 0.001500 0.000000 -0.999999
vn 0.001500 0.000000 -0.999999
vn 0.001500 0.000000 -0.999999
vn 0.001500 0.000000 -0.999999
vn -0.001500 0.000000 0.999999
vn -0.001500 0.000000 0.999999
vn -0.001500 0.000000 0.999999
vn -0.001500 0.000000 0.999999
s off
g SM_GenericProp_FramedAdvertisement:Mesh
usemtl initialShadingGroup
f 7/17/1 8/18/2 4/19/3 3/20/4
f 6/1/5 7/2/6 3/3/7 1/4/8
f 1/21/9 2/22/10 5/23/11 6/24/12
f 2/5/13 4/6/14 8/7/15 5/8/16
f 9/33/17 10/34/18 6/35/19 5/36/20
f 11/37/21 12/39/22 8/40/23 7/38/24
f 12/39/25 9/33/26 5/36/27 8/40/28
f 10/34/29 11/37/30 7/38/31 6/35/32
f 13/25/33 14/26/34 10/27/35 9/28/36
f 15/29/37 16/30/38 12/31/39 11/32/40
f 16/9/41 13/10/42 9/11/43 12/12/44
f 14/13/45 15/14/46 11/15/47 10/16/48
f 3/41/49 4/42/50 2/43/51 1/44/52
f 14/45/53 13/46/54 16/47/55 15/48/56
