# This file uses centimeters as units for non-parametric coordinates.

mtllib SM_GenericProp_Poster.mtl
g default
v -11.546089 7.411982 9.397924
v -23.909317 7.411982 9.397924
v -11.546089 25.077374 9.397924
v -23.909317 25.077374 9.397924
v -23.909317 7.411982 9.270102
v -11.546089 7.411982 9.270102
v -11.546089 25.077374 9.270102
v -23.909317 25.077374 9.270102
vt 0.006850 0.001343
vt 0.006850 0.672700
vt 0.001992 0.672700
vt 0.001992 0.001343
vt 0.019237 0.001343
vt 0.019237 0.672700
vt 0.014379 0.672700
vt 0.014379 0.001343
vt 0.985824 0.001343
vt 0.985824 0.471196
vt 0.980966 0.471196
vt 0.980966 0.001343
vt 0.998008 0.001343
vt 0.998008 0.471196
vt 0.993150 0.471196
vt 0.993150 0.001343
vt 0.026563 0.672700
vt 0.026563 0.001343
vt 0.496416 0.001343
vt 0.496416 0.672700
vt 0.973618 0.672700
vt 0.503765 0.672700
vt 0.503765 0.001343
vt 0.973618 0.001343
vn 0.000000 1.000000 0.000000
vn 0.000000 1.000000 0.000000
vn 0.000000 1.000000 0.000000
vn 0.000000 1.000000 0.000000
vn 1.000000 0.000000 0.000000
vn 1.000000 0.000000 0.000000
vn 1.000000 0.000000 0.000000
vn 1.000000 0.000000 0.000000
vn 0.000000 -1.000000 0.000000
vn 0.000000 -1.000000 0.000000
vn 0.000000 -1.000000 0.000000
vn 0.000000 -1.000000 0.000000
vn -1.000000 0.000000 0.000000
vn -1.000000 0.000000 0.000000
vn -1.000000 0.000000 0.000000
vn -1.000000 0.000000 0.000000
vn 0.000000 0.000000 -1.000000
vn 0.000000 0.000000 -1.000000
vn 0.000000 0.000000 -1.000000
vn 0.000000 0.000000 -1.000000
vn 0.000000 0.000000 1.000000
vn 0.000000 0.000000 1.000000
vn 0.000000 0.000000 1.000000
vn 0.000000 0.000000 1.000000
s off
g SM_GenericProp_Poster:Mesh
usemtl initialShadingGroup
f 7/9/1 8/10/2 4/11/3 3/12/4
f 6/1/5 7/2/6 3/3/7 1/4/8
f 1/13/9 2/14/10 5/15/11 6/16/12
f 2/5/13 4/6/14 8/7/15 5/8/16
f 5/17/17 8/18/18 7/19/19 6/20/20
f 3/21/21 4/22/22 2/23/23 1/24/24
