# Blender v3.0.0 OBJ File: 'GenericProps2.blend'
# www.blender.org
mtllib SM_GenericProp_Poster.mtl
o SM_GenericProp_Poster_Cube.005
v -11.546089 7.411982 9.397924
v -23.909317 7.411982 9.397924
v -11.546089 25.077374 9.397924
v -23.909317 25.077374 9.397924
v -23.909317 7.411982 9.270102
v -11.546089 7.411982 9.270102
v -11.546089 25.077374 9.270102
v -23.909317 25.077374 9.270102
vt 0.625000 0.500000
vt 0.875000 0.500000
vt 0.875000 0.750000
vt 0.625000 0.750000
vt 0.375000 0.500000
vt 0.375000 0.750000
vt 0.125000 0.750000
vt 0.125000 0.500000
vt 0.375000 0.000000
vt 0.625000 0.000000
vt 0.625000 0.250000
vt 0.375000 0.250000
vn 0.0000 1.0000 0.0000
vn 1.0000 0.0000 0.0000
vn 0.0000 -1.0000 0.0000
vn -1.0000 0.0000 0.0000
vn 0.0000 0.0000 -1.0000
vn 0.0000 0.0000 1.0000
usemtl (null)
s off
f 7/1/1 8/2/1 4/3/1 3/4/1
f 6/5/2 7/1/2 3/4/2 1/6/2
f 1/6/3 2/7/3 5/8/3 6/5/3
f 2/9/4 4/10/4 8/11/4 5/12/4
f 5/12/5 8/11/5 7/1/5 6/5/5
f 3/4/6 4/3/6 2/9/6 1/6/6
