# This file uses centimeters as units for non-parametric coordinates.

mtllib SM_SpicySubject_PantsFolded_01.mtl
g default
v -0.941091 0.222919 -3.570043
v -0.941091 0.060376 -3.570043
v -0.540235 0.251301 -0.219991
v 0.608528 0.210517 -0.184072
v -0.576869 0.252870 -0.146731
v 0.570197 0.227528 -0.122646
v -0.650396 0.183085 -0.715291
v -0.578791 0.242793 -0.218172
v 0.643687 0.199393 -0.179943
v -0.471711 0.255282 -0.361157
v 0.641347 0.207641 -0.215798
v -0.279436 0.262701 -0.675393
v 0.751235 0.205130 -0.329398
v -0.694287 0.193736 -0.683435
v 0.900119 0.192294 -2.109479
v 1.781737 0.206533 -2.814435
v -0.973064 0.068794 -3.603601
v 2.384726 0.172385 -2.181446
v 0.978335 0.068794 -3.603600
v -0.615418 0.246458 -0.141312
v 0.605254 0.219491 -0.115680
v -0.509152 0.246649 -0.364422
v 0.675328 0.195951 -0.209730
v -0.314280 0.254162 -0.686868
v 0.782526 0.192897 -0.318666
v -0.617700 0.250584 -0.139918
v 0.602599 0.231765 -0.105834
v -0.613362 0.243701 -0.144119
v 0.610972 0.210835 -0.129482
v -0.196140 0.253175 -0.819952
v -0.380727 0.253360 -0.600925
v 0.870551 0.192019 -0.419495
v 0.736953 0.193394 -0.267521
v -0.675586 0.302538 -0.428585
v 0.707696 0.263926 -0.658285
v -0.579149 0.255637 -0.146027
v 0.567566 0.237952 -0.113999
v -0.574720 0.251068 -0.149001
v 0.575787 0.220183 -0.135248
v -0.345246 0.261918 -0.590697
v -0.162246 0.261725 -0.807396
v 0.705041 0.205568 -0.277402
v 0.840129 0.204257 -0.431092
v -0.633296 0.292416 -0.434299
v 0.663697 0.259731 -0.648624
v -0.646468 0.336524 -0.074810
v -0.633258 0.285308 -0.024480
v 0.600566 0.300288 0.017708
v 0.613508 0.361709 -0.037649
v -0.623251 0.219918 -0.020209
v 0.592851 0.215856 0.020576
v -0.807345 0.215599 -1.544654
v 0.941521 0.215599 -2.479115
v -0.668317 0.437970 -0.356114
v -0.662733 0.403615 -0.233819
v 0.642699 0.404721 -0.219366
v 0.671785 0.409717 -0.427379
v -0.604105 0.108124 -0.103386
v 0.615019 0.069680 -0.094946
v -0.446997 0.102381 -0.479880
v 0.691467 0.046800 -0.223985
v -0.681489 0.367002 -0.638246
v 0.887670 0.364760 -2.078601
v -0.766107 0.221413 -1.247677
v -0.714540 0.259879 -0.876310
v 0.901857 0.259879 -2.184129
v 0.923896 0.221413 -2.348039
v -0.671274 0.405428 -0.562017
v -0.670760 0.409407 -0.555179
v 0.874540 0.410675 -1.978779
v 0.879381 0.405300 -2.015961
v -0.618268 0.170179 -0.037267
v 0.592087 0.151514 -0.003460
v -0.613450 0.124029 -0.067569
v 0.600907 0.091432 -0.053050
v -0.384167 0.104367 -0.595901
v -0.200196 0.103762 -0.817817
v 0.857804 0.043104 -0.420625
v 0.724406 0.044889 -0.265214
v -0.670275 0.448124 -0.421307
v 0.701347 0.410313 -0.648929
v -0.646210 0.274030 -0.199547
v -0.632660 0.267225 -0.158858
v 0.624117 0.299396 -0.162081
v 0.611300 0.282328 -0.116323
v -0.622593 0.258107 -0.141742
v 0.603500 0.254011 -0.100622
v -0.814261 0.066181 -1.541788
v 0.950567 0.066181 -2.484770
v -0.672607 0.301693 -0.383242
v -0.664813 0.290562 -0.304397
v 0.678639 0.272754 -0.455164
v 0.651353 0.291420 -0.289830
v -0.604406 0.242003 -0.162940
v 0.624733 0.203242 -0.154432
v -0.510267 0.100832 -0.340673
v -0.444564 0.250308 -0.491800
v 0.703253 0.194270 -0.233803
v 0.664562 0.050548 -0.187242
v -0.318123 0.104858 -0.683911
v 0.769746 0.044092 -0.318709
v -0.687364 0.218779 -0.633860
v 0.897144 0.215343 -2.087345
v -0.772682 0.071994 -1.244313
v -0.720688 0.110461 -0.872322
v 0.933083 0.071994 -2.354706
v 0.911220 0.110461 -2.192064
v -0.677062 0.257675 -0.557590
v -0.676542 0.261185 -0.550844
v 0.888813 0.255944 -2.024790
v 0.883882 0.261329 -1.987424
v 1.774652 0.058116 -2.812135
v -0.967045 0.217320 -3.597280
v 0.972718 0.217320 -3.597277
v 2.374216 0.024162 -2.182736
v -0.606105 0.270527 -0.207124
v -0.593359 0.266440 -0.166941
v 0.575591 0.280632 -0.126971
v 0.587622 0.294547 -0.171916
v -0.615803 0.143040 -0.052242
v -0.583851 0.260662 -0.148960
v 0.568309 0.256812 -0.110320
v 0.594923 0.116294 -0.026819
v -0.075905 0.225383 -3.610802
v -0.075905 0.058028 -3.610802
v -0.763082 0.055703 -1.562994
v -0.623458 0.283358 -0.308869
v 0.613273 0.286053 -0.295141
v -0.565642 0.250180 -0.166815
v -0.578585 0.102094 -0.174446
v 0.633931 0.059048 -0.136529
v 0.589381 0.213756 -0.158823
v -0.408195 0.258917 -0.484441
v 0.670411 0.206259 -0.242005
v -0.643893 0.207881 -0.666321
v -0.688356 0.342662 -0.687740
v 0.890666 0.341712 -2.100900
v -0.724029 0.061516 -1.269209
v -0.675193 0.099983 -0.901834
v -0.634227 0.246613 -0.590347
v -0.633750 0.250287 -0.582918
vt 0.375000 0.500000
vt 0.125000 0.250000
vt 0.375000 0.750000
vt 0.125000 0.000000
vt 0.269447 0.000000
vt 0.375000 0.894447
vt 0.730553 0.000000
vt 0.625000 0.894447
vt 0.260798 0.000000
vt 0.375000 0.885798
vt 0.739202 0.000000
vt 0.625000 0.885798
vt 0.200412 0.000000
vt 0.375000 0.825412
vt 0.272861 0.020472
vt 0.727139 0.020472
vt 0.281034 0.020472
vt 0.718966 0.020472
vt 0.381505 0.020472
vt 0.375000 0.730486
vt 0.125000 0.019514
vt 0.619026 0.020472
vt 0.875000 0.019514
vt 0.625000 0.730486
vt 0.260791 0.020472
vt 0.739210 0.020472
vt 0.269181 0.020472
vt 0.730819 0.020472
vt 0.272889 0.000000
vt 0.375000 0.897889
vt 0.625000 0.897889
vt 0.727111 0.000000
vt 0.279806 0.000000
vt 0.375000 0.904806
vt 0.625000 0.904806
vt 0.720194 0.000000
vt 0.200275 0.020472
vt 0.799725 0.020472
vt 0.258622 0.020472
vt 0.741378 0.020472
vt 0.262955 0.020472
vt 0.737046 0.020472
vt 0.285930 0.020472
vt 0.278195 0.020472
vt 0.714070 0.020472
vt 0.721805 0.020472
vt 0.231976 0.020472
vt 0.768024 0.020472
vt 0.258623 0.000000
vt 0.375000 0.883623
vt 0.741377 0.000000
vt 0.625000 0.883623
vt 0.262960 0.000000
vt 0.375000 0.887960
vt 0.737040 0.000000
vt 0.625000 0.887960
vt 0.278069 0.000000
vt 0.375000 0.903069
vt 0.281544 0.000000
vt 0.375000 0.906544
vt 0.625000 0.903069
vt 0.721931 0.000000
vt 0.625000 0.906544
vt 0.718456 0.000000
vt 0.232470 0.000000
vt 0.375000 0.857470
vt 0.767530 0.000000
vt 0.625000 0.857470
vt 0.247224 0.234324
vt 0.251198 0.234324
vt 0.748802 0.234324
vt 0.752776 0.234324
vt 0.255385 0.234324
vt 0.744615 0.234324
vt 0.181267 0.234324
vt 0.818733 0.234324
vt 0.236773 0.234324
vt 0.241330 0.234324
vt 0.758670 0.234324
vt 0.763227 0.234324
vt 0.266156 0.234324
vt 0.733844 0.234324
vt 0.275476 0.234324
vt 0.724524 0.234324
vt 0.201448 0.234324
vt 0.798552 0.234324
vt 0.188234 0.234324
vt 0.195875 0.234324
vt 0.804125 0.234324
vt 0.811766 0.234324
vt 0.203761 0.234324
vt 0.204419 0.234324
vt 0.795581 0.234324
vt 0.796239 0.234324
vt 0.258622 0.234324
vt 0.741378 0.234324
vt 0.262956 0.234324
vt 0.737044 0.234324
vt 0.278172 0.234324
vt 0.285225 0.234324
vt 0.714775 0.234324
vt 0.721828 0.234324
vt 0.232056 0.234324
vt 0.767944 0.234324
vt 0.247225 0.020472
vt 0.251209 0.020472
vt 0.752774 0.020472
vt 0.748791 0.020472
vt 0.255390 0.020472
vt 0.744610 0.020472
vt 0.180715 0.020472
vt 0.819285 0.020472
vt 0.236670 0.020472
vt 0.241320 0.020472
vt 0.763330 0.020472
vt 0.758680 0.020472
vt 0.266145 0.020472
vt 0.733855 0.020472
vt 0.272866 0.234324
vt 0.275477 0.020472
vt 0.724523 0.020472
vt 0.727134 0.234324
vt 0.280807 0.234324
vt 0.719193 0.234324
vt 0.201440 0.020472
vt 0.798560 0.020472
vt 0.187681 0.020472
vt 0.195857 0.020472
vt 0.812319 0.020472
vt 0.804143 0.020472
vt 0.203769 0.020472
vt 0.204506 0.020472
vt 0.796230 0.020472
vt 0.795493 0.020472
vt 0.380925 0.234137
vt 0.125000 0.234644
vt 0.375000 0.515356
vt 0.875000 0.234644
vt 0.625000 0.515356
vt 0.619559 0.234137
vt 0.247219 0.000000
vt 0.375000 0.872219
vt 0.251123 0.000000
vt 0.375000 0.876122
vt 0.748878 0.000000
vt 0.625000 0.876122
vt 0.752781 0.000000
vt 0.625000 0.872219
vt 0.260791 0.234324
vt 0.255361 0.000000
vt 0.375000 0.880361
vt 0.744639 0.000000
vt 0.625000 0.880361
vt 0.739209 0.234324
vt 0.490985 0.504106
vt 0.490985 0.746209
vt 0.185114 0.000000
vt 0.375000 0.810114
vt 0.241374 0.000000
vt 0.375000 0.866374
vt 0.625000 0.866374
vt 0.758626 0.000000
vt 0.266204 0.000000
vt 0.375000 0.891204
vt 0.269205 0.234324
vt 0.730795 0.234324
vt 0.733796 0.000000
vt 0.625000 0.891204
vt 0.275471 0.000000
vt 0.375000 0.900471
vt 0.625000 0.900471
vt 0.724529 0.000000
vt 0.201481 0.000000
vt 0.375000 0.826481
vt 0.200287 0.234324
vt 0.799713 0.234324
vt 0.192081 0.000000
vt 0.375000 0.817081
vt 0.196000 0.000000
vt 0.375000 0.821000
vt 0.203726 0.000000
vt 0.375000 0.828726
vt 0.204036 0.000000
vt 0.375000 0.829036
vn 0.182333 0.980686 0.070778
vn 0.094211 -0.995092 0.030260
vn -0.126161 -0.975471 -0.180385
vn -0.039905 0.989085 -0.141838
vn -0.913872 -0.073302 -0.399331
vn -0.231589 0.967711 -0.099509
vn -0.000351 0.998976 -0.045248
vn 0.000259 0.998786 -0.049257
vn 0.004497 -0.998465 -0.055200
vn -0.006730 -0.997410 -0.071615
vn -0.978595 -0.187695 0.084395
vn -0.002057 -0.999986 0.004842
vn 0.051881 -0.998650 0.002664
vn 0.061763 -0.996522 -0.055949
vn 0.058939 0.996911 -0.051921
vn 0.043356 0.999050 0.004504
vn -0.068851 0.899421 0.431628
vn -0.948621 -0.308744 0.069255
vn -0.892275 -0.450512 0.029745
vn -0.079744 0.420904 0.903593
vn 0.009362 -0.998155 -0.059992
vn -0.944704 -0.324687 0.045961
vn -0.007879 -0.999808 0.017964
vn 0.020774 -0.950478 -0.310097
vn -0.065853 0.973932 0.217070
vn 0.025271 0.413864 0.909988
vn 0.025018 0.900318 0.434513
vn 0.947942 -0.279564 0.152482
vn 0.963396 -0.266164 0.032024
vn 0.017948 -0.998067 -0.059499
vn -0.000785 -0.999726 0.023410
vn 0.890728 -0.422065 0.168718
vn 0.030125 -0.938162 -0.344883
vn 0.074983 0.972656 0.219814
vn -0.943858 -0.318601 -0.087327
vn -0.076642 -0.121687 0.989605
vn 0.039703 -0.411121 0.910716
vn 0.032456 -0.125863 0.991517
vn -0.076459 -0.411880 0.908025
vn -0.977836 -0.151138 -0.144893
vn -0.984182 -0.075269 -0.160376
vn -0.077998 -0.602345 0.794416
vn 0.027483 0.679686 -0.732988
vn 0.029090 0.151170 -0.988080
vn 0.025458 -0.657686 -0.752862
vn 0.039449 -0.551528 -0.833223
vn 0.044985 0.287272 -0.956792
vn 0.043727 0.765826 -0.641560
vn 0.999653 0.025483 -0.006650
vn 0.983766 0.149374 0.099459
vn 0.991700 -0.125329 -0.028689
vn 0.052716 -0.598701 0.799236
vn -0.134489 0.990861 0.010356
vn -0.187988 0.978570 -0.084035
vn 0.014866 0.998403 -0.054498
vn -0.946887 -0.282703 0.153245
vn 0.070991 -0.992230 0.102181
vn 0.100627 -0.992554 0.068636
vn -0.707704 0.105079 -0.698651
vn 0.038259 0.999179 0.013347
vn 0.757151 0.055957 0.650839
vn 0.042859 -0.997788 0.050809
vn 0.047933 0.998613 0.021790
vn -0.030193 0.995878 0.085536
vn -0.925742 -0.377379 0.024226
vn 0.004206 -0.999507 0.031100
vn 0.009269 -0.999525 0.029384
vn 0.161700 0.986836 0.002889
vn 0.146170 0.984730 0.094556
vn 0.874842 -0.457359 0.159607
vn 0.200821 -0.978178 0.053274
vn -0.016669 0.999768 -0.013637
vn 0.019625 0.999785 0.006664
vn -0.916280 0.069531 -0.394458
vn -0.935199 0.003705 -0.354104
vn 0.020223 0.996407 -0.082246
vn -0.965315 -0.058055 -0.254552
vn 0.022581 0.946817 -0.320978
vn -0.129355 -0.958672 0.253410
vn -0.184810 -0.982737 0.008521
vn -0.093027 -0.823875 0.559085
vn 0.055726 -0.826795 0.559736
vn 0.039117 -0.963731 0.263992
vn 0.006035 -0.996737 0.080487
vn 0.806324 0.251199 0.535482
vn 0.884360 0.261593 0.386622
vn 0.938663 0.235579 0.251821
vn 0.039205 0.998952 0.023614
vn 0.038904 0.998495 -0.038647
vn 0.039480 0.972333 -0.230239
vn -0.204714 -0.976813 -0.062672
vn -0.000871 -0.999242 0.038929
vn 0.026151 0.999073 0.034187
vn -0.872879 0.189470 -0.449647
vn -0.898674 0.153698 -0.410807
vn 0.024312 0.999361 0.026199
vn -0.209970 -0.972286 -0.102826
vn 0.041304 0.998425 0.037965
vn 0.042864 0.998054 0.045294
vn 0.002143 -0.999785 0.020604
vn 0.735220 0.159466 0.658803
vn 0.756145 0.197618 0.623852
vn -0.194937 -0.972569 -0.126923
vn 0.021491 -0.999402 0.027078
vn -0.177110 -0.973853 -0.142278
vn 0.035114 -0.998646 0.038376
vn -0.194552 -0.965487 -0.173159
vn -0.751424 0.200623 -0.628579
vn 0.033655 0.999100 0.025814
vn -0.821117 0.207024 -0.531891
vn 0.029551 0.998999 0.033597
vn 0.046555 0.997949 0.043944
vn 0.050071 0.998016 0.038161
vn 0.747876 0.139579 0.648999
vn 0.743911 0.141748 0.653072
vn -0.959821 -0.277465 0.041903
vn -0.491067 0.754687 -0.435087
vn -0.959549 -0.178795 0.217483
vn -0.911379 -0.302364 0.279220
vn -0.484675 0.762933 -0.427813
vn -0.970617 -0.136905 0.197888
vn -0.410851 0.837730 -0.359736
vn 0.400932 -0.786649 0.469507
vn 0.418936 -0.785252 0.455931
vn 0.344048 -0.859742 0.377458
vn -0.359144 0.804658 -0.472802
vn -0.376763 0.800998 -0.465244
vn 0.480039 -0.745679 0.462087
vn -0.353722 0.827849 -0.435370
vn 0.473995 -0.770389 0.426415
vn 0.443564 -0.768659 0.460885
vn -0.121061 0.971283 -0.204826
vn -0.384512 0.875080 -0.293913
vn 0.211716 -0.953652 0.213831
vn 0.261688 -0.909736 0.322335
vn -0.946152 -0.253262 0.201632
vn -0.904481 -0.404358 0.135677
vn -0.020712 0.999355 -0.029332
vn 0.013748 -0.999410 0.031490
vn 0.402939 -0.910480 0.093089
vn 0.368547 0.929571 0.008486
s 1
g pasted__pants_2fold Pants_Folded
usemtl initialShadingGroup
f 18/22/1 115/140/2 112/135/3 16/19/4
f 17/20/5 113/137/6 1/1/7 124/155/8 125/156/9 2/3/10
f 88/111/11 17/21/5 2/4/10 126/157/12
f 89/112/13 19/23/14 114/138/15 53/76/16
f 46/69/17 82/105/18 83/106/19 47/70/20
f 116/141/21 82/105/18 91/114/22 127/159/23
f 82/105/18 116/141/21 117/143/24 83/106/19
f 82/105/18 46/69/17 55/78/25 91/114/22
f 48/71/26 49/72/27 46/69/17 47/70/20
f 84/107/28 49/72/27 48/71/26 85/108/29
f 84/107/28 119/147/30 128/162/31 93/116/32
f 119/147/30 84/107/28 85/108/29 118/145/33
f 49/72/27 84/107/28 93/116/32 56/79/34
f 119/148/30 116/142/21 127/160/23 128/161/31
f 119/148/30 118/146/33 117/144/24 116/142/21
f 86/109/35 50/73/36 47/70/20 83/106/19
f 73/96/37 51/74/38 50/73/36 72/95/39
f 72/95/39 26/39/40 20/25/41 120/149/42
f 5/9/43 20/25/41 26/39/40 36/49/44
f 36/49/44 26/39/40 86/109/35 121/150/45
f 26/39/40 72/95/39 50/73/36 86/109/35
f 121/150/45 86/109/35 83/106/19 117/143/24
f 118/146/33 122/153/46 121/151/45 117/144/24
f 5/10/43 36/50/44 37/52/47 6/12/48
f 27/40/49 21/26/50 6/11/48 37/51/47
f 27/40/49 37/51/47 122/152/46 87/110/51
f 87/110/51 122/152/46 118/145/33 85/108/29
f 51/74/38 87/110/51 85/108/29 48/71/26
f 123/154/52 21/26/50 27/40/49 73/96/37
f 73/96/37 27/40/49 87/110/51 51/74/38
f 123/154/52 73/96/37 72/95/39 120/149/42
f 51/74/38 48/71/26 47/70/20 50/73/36
f 124/155/8 114/139/15 19/24/14 125/156/9
f 46/69/17 49/72/27 56/79/34 55/78/25
f 122/153/46 37/52/47 36/50/44 121/151/45
f 88/111/11 52/75/53 113/136/6 17/21/5
f 53/76/16 52/75/53 64/87/54 67/90/55
f 104/127/56 88/111/11 126/157/12 138/177/57
f 64/87/54 52/75/53 88/111/11 104/127/56
f 106/129/58 138/178/57 126/158/12 89/112/13
f 126/158/12 2/3/10 125/156/9 19/23/14 89/112/13
f 106/129/58 89/112/13 53/76/16 67/90/55
f 124/155/8 1/2/7 113/136/6 52/75/53 53/76/16 114/138/15
f 16/19/4 30/43/59 41/59/60
f 115/140/2 18/22/1 32/45/61 78/101/62
f 32/45/61 18/22/1 43/64/63
f 54/77/64 90/113/65 91/114/22 55/78/25
f 128/161/31 127/160/23 44/66/66 45/68/67
f 81/104/68 57/80/69 92/115/70 35/48/71
f 93/116/32 92/115/70 57/80/69 56/79/34
f 80/103/72 54/77/64 57/80/69 81/104/68
f 54/77/64 55/78/25 56/79/34 57/80/69
f 3/5/73 8/27/74 94/117/75 129/163/76
f 129/163/76 94/117/75 28/41/77 38/53/78
f 58/81/79 94/117/75 8/27/74 130/165/80
f 74/97/81 28/41/77 94/117/75 58/81/79
f 20/25/41 28/41/77 74/97/81 120/149/42
f 38/53/78 28/41/77 20/25/41 5/9/43
f 120/149/42 74/97/81 75/98/82 123/154/52
f 75/98/82 74/97/81 58/81/79 59/82/83
f 58/81/79 130/165/80 131/166/84 59/82/83
f 59/82/83 131/166/84 9/28/85 95/118/86
f 123/154/52 75/98/82 29/42/87 21/26/50
f 75/98/82 59/82/83 95/118/86 29/42/87
f 95/118/86 9/28/85 4/7/88 132/167/89
f 95/118/86 132/167/89 39/55/90 29/42/87
f 29/42/87 39/55/90 6/11/48 21/26/50
f 6/12/48 39/56/90 38/54/78 5/10/43
f 129/164/76 38/54/78 39/56/90 132/168/89
f 3/6/73 129/164/76 132/168/89 4/8/88
f 130/165/80 96/119/91 99/122/92 131/166/84
f 133/169/93 97/120/94 22/15/95 10/29/96
f 96/119/91 22/15/95 97/120/94 60/83/97
f 22/15/95 96/119/91 130/165/80 8/27/74
f 10/29/96 22/15/95 8/27/74 3/5/73
f 10/30/96 3/6/73 4/8/88 11/31/98
f 133/170/93 10/30/96 11/31/98 134/171/99
f 61/84/100 98/121/101 23/16/102 99/122/92
f 23/16/102 98/121/101 134/172/99 11/32/98
f 23/16/102 11/32/98 4/7/88 9/28/85
f 99/122/92 23/16/102 9/28/85 131/166/84
f 61/84/100 99/122/92 96/119/91 60/83/97
f 60/83/97 76/99/103 79/102/104 61/84/100
f 76/99/103 100/123/105 101/124/106 79/102/104
f 77/100/107 30/43/59 16/19/4 112/135/3
f 41/59/60 30/43/59 24/17/108 12/33/109
f 24/17/108 30/43/59 77/100/107 100/123/105
f 24/17/108 100/123/105 76/99/103 31/44/110
f 31/44/110 76/99/103 60/83/97 97/120/94
f 12/33/109 24/17/108 31/44/110 40/57/111
f 40/57/111 31/44/110 97/120/94 133/169/93
f 12/34/109 40/58/111 42/61/112 13/35/113
f 16/19/4 41/60/60 43/63/63 18/22/1
f 43/63/63 41/60/60 12/34/109 13/35/113
f 42/61/112 40/58/111 133/170/93 134/171/99
f 32/45/61 43/64/63 13/36/113 25/18/114
f 25/18/114 13/36/113 42/62/112 33/46/115
f 33/46/115 42/62/112 134/172/99 98/121/101
f 78/101/62 32/45/61 25/18/114 101/124/106
f 101/124/106 25/18/114 33/46/115 79/102/104
f 79/102/104 33/46/115 98/121/101 61/84/100
f 115/140/2 78/101/62 77/100/107 112/135/3
f 100/123/105 77/100/107 78/101/62 101/124/106
f 90/113/65 34/47/116 44/65/66 127/159/23 91/114/22
f 80/103/72 34/47/116 90/113/65 54/77/64
f 128/162/31 45/67/67 35/48/71 92/115/70 93/116/32
f 136/175/117 14/37/118 102/125/119 62/85/120
f 62/85/120 102/125/119 108/131/121 68/91/122
f 102/125/119 14/37/118 7/13/123 135/173/124
f 102/125/119 135/173/124 140/181/125 108/131/121
f 136/175/117 62/85/120 63/86/126 137/176/127
f 103/126/128 63/86/126 71/94/129 110/133/130
f 63/86/126 103/126/128 15/38/131 137/176/127
f 140/182/125 135/174/124 103/126/128 110/133/130
f 15/38/131 103/126/128 135/174/124 7/14/123
f 66/89/132 65/88/133 136/175/117 137/176/127
f 107/130/134 66/89/132 137/176/127 15/38/131
f 7/14/123 139/180/135 107/130/134 15/38/131
f 104/127/56 138/177/57 139/179/135 105/128/136
f 105/128/136 139/179/135 7/13/123 14/37/118
f 65/88/133 105/128/136 14/37/118 136/175/117
f 64/87/54 104/127/56 105/128/136 65/88/133
f 64/87/54 65/88/133 66/89/132 67/90/55
f 106/129/58 67/90/55 66/89/132 107/130/134
f 139/180/135 138/178/57 106/129/58 107/130/134
f 68/91/122 108/131/121 109/132/137 69/92/138
f 108/131/121 140/181/125 141/183/139 109/132/137
f 109/132/137 141/183/139 44/65/66 34/47/116
f 69/92/138 109/132/137 34/47/116 80/103/72
f 44/66/66 141/184/139 111/134/140 35/48/71 45/68/67
f 141/184/139 140/182/125 110/133/130 111/134/140
f 70/93/141 111/134/140 110/133/130 71/94/129
f 111/134/140 70/93/141 81/104/68 35/48/71
f 68/91/122 69/92/138 70/93/141 71/94/129
f 70/93/141 69/92/138 80/103/72 81/104/68
f 62/85/120 68/91/122 71/94/129 63/86/126
