# This file uses centimeters as units for non-parametric coordinates.

mtllib SM_GenericProp_DoorFrameSingle_01.mtl
g default
v -25.023481 0.070737 -13.252569
v -25.023481 2.070737 -13.252569
v -25.035944 0.070737 -11.837788
v -25.035944 2.070737 -11.837788
v -27.023403 0.070737 -13.270187
v -27.023403 2.070737 -13.270187
v -27.035866 0.070737 -11.855407
v -27.035866 2.070737 -11.855407
v -25.023481 28.950890 -13.252569
v -25.035944 28.950890 -11.837788
v -27.035866 28.950890 -11.855407
v -27.023403 28.950890 -13.270187
v -25.023481 29.932938 -13.252569
v -25.035944 29.932938 -11.837788
v -27.035866 29.932938 -11.855407
v -27.023403 29.932938 -13.270187
v -17.024418 28.950890 -13.182098
v -17.036882 28.950890 -11.767319
v -17.024418 29.932938 -13.182098
v -17.036882 29.932938 -11.767319
v -9.025354 0.070737 -13.111629
v -9.025354 2.070737 -13.111629
v -9.037819 0.070737 -11.696849
v -9.037819 2.070737 -11.696849
v -7.025434 0.070737 -13.094009
v -7.025434 2.070737 -13.094009
v -7.037897 0.070737 -11.679231
v -7.037897 2.070737 -11.679231
v -9.025354 28.950890 -13.111629
v -9.037819 28.950890 -11.696849
v -7.037897 28.950890 -11.679231
v -7.025434 28.950890 -13.094009
v -9.025354 29.932938 -13.111629
v -9.037819 29.932938 -11.696849
v -7.037897 29.932938 -11.679231
v -7.025434 29.932938 -13.094009
vt 0.929813 0.500149
vt 0.929813 0.465515
vt 0.952333 0.465466
vt 0.952333 0.500099
vt 0.347096 0.000000
vt 0.347096 0.034633
vt 0.315521 0.034633
vt 0.315521 0.000000
vt 0.974093 0.000060
vt 0.974093 0.034692
vt 0.952333 0.034633
vt 0.952333 0.000000
vt 0.315521 0.007852
vt 0.315521 0.042432
vt 0.283967 0.041647
vt 0.283967 0.007066
vt 0.413918 0.517114
vt 0.413918 0.551747
vt 0.389447 0.551744
vt 0.389447 0.517112
vt 0.929813 0.000050
vt 0.952333 0.000000
vt 0.283967 0.506415
vt 0.315521 0.507200
vt 0.315521 0.524180
vt 0.283967 0.523395
vt 0.347096 0.500106
vt 0.315521 0.500106
vt 0.974093 0.500158
vt 0.952333 0.500099
vt 0.315521 0.863413
vt 0.315521 0.828781
vt 0.340020 0.828782
vt 0.340020 0.863414
vt 0.347096 0.517112
vt 0.315521 0.517111
vt 0.974093 0.517164
vt 0.952333 0.517104
vt 0.473385 0.500106
vt 0.473385 0.517112
vt 0.315521 0.690262
vt 0.340020 0.690264
vt 0.157761 0.520255
vt 0.157761 0.503274
vt 0.364491 0.794157
vt 0.340020 0.794155
vt 0.340020 0.655633
vt 0.364491 0.655636
vt 0.974094 0.000000
vt 0.995854 0.000060
vt 0.995854 0.034692
vt 0.974094 0.034633
vt 0.599674 0.000000
vt 0.631249 0.000000
vt 0.631249 0.034634
vt 0.599674 0.034634
vt 0.929813 0.517105
vt 0.907293 0.517155
vt 0.907293 0.482521
vt 0.929813 0.482471
vt 0.000000 0.000000
vt 0.031554 0.000785
vt 0.031554 0.035366
vt 0.000000 0.034581
vt 0.413918 0.517112
vt 0.438390 0.517114
vt 0.438390 0.551747
vt 0.413918 0.551745
vt 0.995854 0.500158
vt 0.974094 0.500099
vt 0.031554 0.500134
vt 0.031554 0.517114
vt 0.000000 0.516329
vt 0.000000 0.499349
vt 0.631249 0.500106
vt 0.599674 0.500106
vt 0.907293 0.017056
vt 0.929813 0.017006
vt 0.315521 0.517112
vt 0.340020 0.517114
vt 0.340020 0.551746
vt 0.315521 0.551744
vt 0.631249 0.517112
vt 0.599674 0.517112
vt 0.907293 0.000050
vt 0.929813 0.000000
vt 0.364491 0.517114
vt 0.340020 0.517112
vn 0.999961 0.000000 0.008800
vn 0.999961 0.000000 0.008800
vn 0.999961 0.000000 0.008800
vn 0.999961 0.000000 0.008800
vn -0.008800 0.000000 0.999961
vn -0.008800 0.000000 0.999961
vn -0.008800 0.000000 0.999961
vn -0.008800 0.000000 0.999961
vn -0.999961 0.000000 -0.008800
vn -0.999961 0.000000 -0.008800
vn -0.999961 0.000000 -0.008800
vn -0.999961 0.000000 -0.008800
vn 0.008800 0.000000 -0.999961
vn 0.008800 0.000000 -0.999961
vn 0.008800 0.000000 -0.999961
vn 0.008800 0.000000 -0.999961
vn 0.000000 -1.000000 0.000000
vn 0.000000 -1.000000 0.000000
vn 0.000000 -1.000000 0.000000
vn 0.000000 -1.000000 0.000000
vn 0.999961 0.000000 0.008800
vn 0.999961 0.000000 0.008800
vn 0.999961 0.000000 0.008800
vn 0.999961 0.000000 0.008800
vn 0.008800 0.000000 -0.999961
vn 0.008800 0.000000 -0.999961
vn 0.008800 0.000000 -0.999961
vn 0.008800 0.000000 -0.999961
vn 0.008800 0.000000 -0.999961
vn 0.008800 0.000000 -0.999961
vn 0.008800 0.000000 -0.999961
vn 0.008800 0.000000 -0.999961
vn -0.008800 0.000000 0.999961
vn -0.008800 0.000000 0.999961
vn -0.008800 0.000000 0.999961
vn -0.008800 0.000000 0.999961
vn -0.999961 0.000000 -0.008800
vn -0.999961 0.000000 -0.008800
vn -0.999961 0.000000 -0.008800
vn -0.999961 0.000000 -0.008800
vn 0.000000 1.000000 0.000000
vn 0.000000 1.000000 0.000000
vn 0.000000 1.000000 0.000000
vn 0.000000 1.000000 0.000000
vn -0.008800 0.000000 0.999961
vn -0.008800 0.000000 0.999961
vn -0.008800 0.000000 0.999961
vn -0.008800 0.000000 0.999961
vn -0.999961 0.000000 -0.008800
vn -0.999961 0.000000 -0.008800
vn -0.999961 0.000000 -0.008800
vn -0.999961 0.000000 -0.008800
vn -0.008800 0.000000 0.999961
vn -0.008800 0.000000 0.999961
vn -0.008800 0.000000 0.999961
vn -0.008800 0.000000 0.999961
vn 0.000000 1.000000 0.000000
vn 0.000000 1.000000 0.000000
vn 0.000000 1.000000 0.000000
vn 0.000000 1.000000 0.000000
vn 0.008800 0.000000 -0.999961
vn 0.008800 0.000000 -0.999961
vn 0.008800 0.000000 -0.999961
vn 0.008800 0.000000 -0.999961
vn 0.000000 -1.000000 0.000000
vn 0.000000 -1.000000 0.000000
vn 0.000000 -1.000000 0.000000
vn 0.000000 -1.000000 0.000000
vn -0.999961 0.000000 -0.008800
vn -0.999961 0.000000 -0.008800
vn -0.999961 0.000000 -0.008800
vn -0.999961 0.000000 -0.008800
vn -0.008800 0.000000 0.999961
vn -0.008800 0.000000 0.999961
vn -0.008800 0.000000 0.999961
vn -0.008800 0.000000 0.999961
vn 0.999961 0.000000 0.008800
vn 0.999961 0.000000 0.008800
vn 0.999961 0.000000 0.008800
vn 0.999961 0.000000 0.008800
vn 0.008800 0.000000 -0.999961
vn 0.008800 0.000000 -0.999961
vn 0.008800 0.000000 -0.999961
vn 0.008800 0.000000 -0.999961
vn 0.000000 -1.000000 0.000000
vn 0.000000 -1.000000 0.000000
vn 0.000000 -1.000000 0.000000
vn 0.000000 -1.000000 0.000000
vn -0.999961 0.000000 -0.008800
vn -0.999961 0.000000 -0.008800
vn -0.999961 0.000000 -0.008800
vn -0.999961 0.000000 -0.008800
vn 0.008800 0.000000 -0.999961
vn 0.008800 0.000000 -0.999961
vn 0.008800 0.000000 -0.999961
vn 0.008800 0.000000 -0.999961
vn 0.008800 0.000000 -0.999961
vn 0.008800 0.000000 -0.999961
vn 0.008800 0.000000 -0.999961
vn 0.008800 0.000000 -0.999961
vn -0.008800 0.000000 0.999961
vn -0.008800 0.000000 0.999961
vn -0.008800 0.000000 0.999961
vn -0.008800 0.000000 0.999961
vn 0.999961 0.000000 0.008800
vn 0.999961 0.000000 0.008800
vn 0.999961 0.000000 0.008800
vn 0.999961 0.000000 0.008800
vn 0.000000 1.000000 0.000000
vn 0.000000 1.000000 0.000000
vn 0.000000 1.000000 0.000000
vn 0.000000 1.000000 0.000000
vn -0.008800 0.000000 0.999961
vn -0.008800 0.000000 0.999961
vn -0.008800 0.000000 0.999961
vn -0.008800 0.000000 0.999961
vn 0.999961 0.000000 0.008800
vn 0.999961 0.000000 0.008800
vn 0.999961 0.000000 0.008800
vn 0.999961 0.000000 0.008800
vn -0.008800 0.000000 0.999961
vn -0.008800 0.000000 0.999961
vn -0.008800 0.000000 0.999961
vn -0.008800 0.000000 0.999961
vn 0.000000 1.000000 0.000000
vn 0.000000 1.000000 0.000000
vn 0.000000 1.000000 0.000000
vn 0.000000 1.000000 0.000000
vn 0.008800 0.000000 -0.999961
vn 0.008800 0.000000 -0.999961
vn 0.008800 0.000000 -0.999961
vn 0.008800 0.000000 -0.999961
vn 0.000000 -1.000000 0.000000
vn 0.000000 -1.000000 0.000000
vn 0.000000 -1.000000 0.000000
vn 0.000000 -1.000000 0.000000
s off
g SM_GenericProp_SingleDoor:Mesh
usemtl initialShadingGroup
f 1/1/1 2/2/2 4/3/3 3/4/4
f 3/5/5 4/6/6 8/7/7 7/8/8
f 7/9/9 8/10/10 6/11/11 5/12/12
f 5/13/13 6/14/14 2/15/15 1/16/16
f 3/17/17 7/18/18 5/19/19 1/20/20
f 4/3/21 2/2/22 9/21/23 10/22/24
f 9/23/25 12/24/26 16/25/27 13/26/28
f 2/15/29 6/14/30 12/24/31 9/23/32
f 8/7/33 4/6/34 10/27/35 11/28/36
f 6/11/37 8/10/38 11/29/39 12/30/40
f 15/31/41 14/32/42 13/33/43 16/34/44
f 11/28/45 10/27/46 14/35/47 15/36/48
f 12/30/49 11/29/50 15/37/51 16/38/52
f 14/35/53 10/27/54 18/39/55 20/40/56
f 13/33/57 14/32/58 20/41/59 19/42/60
f 9/23/61 13/26/62 19/43/63 17/44/64
f 10/45/65 9/46/66 17/47/67 18/48/68
f 21/49/69 23/50/70 24/51/71 22/52/72
f 23/53/73 27/54/74 28/55/75 24/56/76
f 27/57/77 25/58/78 26/59/79 28/60/80
f 25/61/81 21/62/82 22/63/83 26/64/84
f 23/65/85 21/66/86 25/67/87 27/68/88
f 24/51/89 30/69/90 29/70/91 22/52/92
f 29/71/93 33/72/94 36/73/95 32/74/96
f 22/63/97 29/71/98 32/74/99 26/64/100
f 28/55/101 31/75/102 30/76/103 24/56/104
f 26/59/105 32/77/106 31/78/107 28/60/108
f 35/79/109 36/80/110 33/81/111 34/82/112
f 31/75/113 35/83/114 34/84/115 30/76/116
f 32/77/117 36/85/118 35/86/119 31/78/120
f 34/84/121 20/40/122 18/39/123 30/76/124
f 33/81/125 19/42/126 20/41/127 34/82/128
f 29/71/129 17/44/130 19/43/131 33/72/132
f 30/87/133 18/48/134 17/47/135 29/88/136
