# This file uses centimeters as units for non-parametric coordinates.

mtllib SM_GenericProp_CandyBar_01.mtl
g default
v -0.448148 0.145616 1.430864
v 0.448148 0.145616 1.430864
v -0.448148 0.278412 1.430864
v 0.448148 0.278412 1.430864
v -0.448148 0.278412 -1.430864
v 0.448148 0.278412 -1.430864
v -0.448148 0.145616 -1.430864
v 0.448148 0.145616 -1.430864
v -0.500000 0.075311 1.598681
v 0.500000 0.202509 1.598681
v 0.500000 0.335304 1.598681
v -0.500000 0.208107 1.598681
v -0.500000 0.208107 -1.598681
v 0.500000 0.335304 -1.598681
v 0.500000 0.202509 -1.598681
v -0.500000 0.075311 -1.598681
v 0.294561 0.145616 1.430864
v 0.328642 0.075311 1.598680
v 0.328642 0.208107 1.598680
v 0.294561 0.278412 1.430864
v 0.294561 0.278412 -1.430864
v 0.328642 0.208107 -1.598680
v 0.328642 0.075311 -1.598680
v 0.294561 0.145616 -1.430864
v 0.053021 0.145616 1.430864
v 0.059155 0.202509 1.598680
v 0.059155 0.335304 1.598680
v 0.053021 0.278412 1.430864
v 0.053021 0.278412 -1.430864
v 0.059155 0.335304 -1.598680
v 0.059155 0.202509 -1.598680
v 0.053021 0.145616 -1.430864
v -0.123716 0.145616 1.430864
v -0.138030 0.075311 1.598680
v -0.138030 0.208107 1.598680
v -0.123716 0.278412 1.430864
v -0.123716 0.278412 -1.430864
v -0.138030 0.208107 -1.598680
v -0.138030 0.075311 -1.598680
v -0.123716 0.145616 -1.430864
v -0.318125 0.145616 1.430864
v -0.354933 0.202509 1.598681
v -0.354933 0.335304 1.598681
v -0.318125 0.278412 1.430864
v -0.318125 0.278412 -1.430864
v -0.354933 0.335304 -1.598681
v -0.354933 0.202509 -1.598681
v -0.318125 0.145616 -1.430864
v -0.500000 0.406390 1.333652
v -0.500000 0.017638 1.333651
v -0.354933 0.017638 1.333651
v -0.138030 0.017638 1.333651
v 0.059155 0.017638 1.333651
v 0.328642 0.017638 1.333651
v 0.500000 0.017638 1.333651
v 0.500000 0.406390 1.333652
v 0.328642 0.406390 1.333652
v 0.059155 0.406390 1.333652
v -0.138030 0.406390 1.333652
v -0.354933 0.406390 1.333652
v -0.500000 0.017638 -1.346048
v -0.500000 0.406390 -1.346049
v -0.354933 0.406390 -1.346049
v -0.138030 0.406390 -1.346049
v 0.059155 0.406390 -1.346049
v 0.328642 0.406390 -1.346049
v 0.500000 0.406390 -1.346049
v 0.500000 0.017638 -1.346048
v 0.328642 0.017638 -1.346048
v 0.059155 0.017638 -1.346048
v -0.138030 0.017638 -1.346048
v -0.354933 0.017638 -1.346048
vt 0.854104 0.583838
vt 0.574917 0.583837
vt 0.574917 0.322409
vt 0.854104 0.322409
vt 0.666826 0.312925
vt 0.762195 0.312925
vt 0.616336 0.296553
vt 0.711705 0.296553
vt 0.803053 0.296553
vt 0.762195 0.312925
vt 0.848238 0.264676
vt 0.569051 0.264675
vt 0.569051 0.003247
vt 0.848238 0.003247
vt 0.660960 0.274159
vt 0.756329 0.274159
vt 0.797187 0.290531
vt 0.701818 0.290531
vt 0.610470 0.290531
vt 0.660960 0.274159
vt 0.281179 0.638256
vt 0.240678 0.638256
vt 0.240678 0.002514
vt 0.281179 0.002514
vt 0.180122 0.002514
vt 0.180122 0.638257
vt 0.125070 0.002514
vt 0.125070 0.638257
vt 0.049833 0.002514
vt 0.049833 0.638257
vt 0.001992 0.002514
vt 0.001992 0.638257
vt 0.285522 0.001843
vt 0.333362 0.001843
vt 0.333362 0.637585
vt 0.285522 0.637585
vt 0.408599 0.001843
vt 0.408599 0.637585
vt 0.463651 0.001843
vt 0.463651 0.637585
vt 0.524208 0.001843
vt 0.524208 0.637585
vt 0.564708 0.637585
vt 0.564708 0.001843
vt 0.809563 0.845582
vt 0.900911 0.805081
vt 0.996280 0.805081
vt 0.904931 0.845582
vt 0.809563 0.744525
vt 0.904931 0.744525
vt 0.900911 0.689473
vt 0.996280 0.689473
vt 0.809563 0.614236
vt 0.904931 0.614236
vt 0.900911 0.566395
vt 0.996280 0.566395
vt 0.858447 0.549532
vt 0.858447 0.513231
vt 0.950356 0.523507
vt 0.950356 0.564008
vt 0.950356 0.462951
vt 0.858447 0.458954
vt 0.950356 0.407899
vt 0.858447 0.409612
vt 0.950356 0.332662
vt 0.858447 0.342177
vt 0.950356 0.284821
vt 0.858447 0.299298
vt 0.660400 0.866419
vt 0.569051 0.825919
vt 0.664420 0.825919
vt 0.755768 0.866419
vt 0.660400 0.765362
vt 0.755768 0.765362
vt 0.569051 0.710311
vt 0.664420 0.710311
vt 0.660400 0.635074
vt 0.755768 0.635074
vt 0.569051 0.587233
vt 0.664420 0.587233
vt 0.862358 0.293495
vt 0.862358 0.252994
vt 0.954267 0.242718
vt 0.954267 0.279018
vt 0.862358 0.192438
vt 0.954267 0.188441
vt 0.862358 0.137386
vt 0.954267 0.139099
vt 0.862358 0.062149
vt 0.954267 0.071664
vt 0.862358 0.014308
vt 0.954267 0.028785
vt 0.020379 0.831494
vt 0.005903 0.923403
vt 0.005903 0.644216
vt 0.020379 0.736125
vt 0.056680 0.831494
vt 0.046403 0.923403
vt 0.046403 0.644216
vt 0.056680 0.736125
vt 0.106960 0.923403
vt 0.110956 0.831494
vt 0.106960 0.644216
vt 0.110956 0.736125
vt 0.162011 0.923403
vt 0.160299 0.831494
vt 0.162011 0.644216
vt 0.160299 0.736125
vt 0.237249 0.923403
vt 0.227733 0.831494
vt 0.237249 0.644216
vt 0.227733 0.736125
vt 0.285089 0.923403
vt 0.270613 0.831494
vt 0.285089 0.644216
vt 0.270613 0.736125
vt 0.992142 0.367486
vt 0.992142 0.367486
vt 0.975770 0.408344
vt 0.975770 0.316995
vt 0.992142 0.367486
vt 0.975770 0.316995
vt 0.992142 0.367486
vt 0.975770 0.408344
vt 0.992142 0.367486
vt 0.975770 0.316995
vt 0.976499 0.521516
vt 0.976499 0.521516
vt 0.960127 0.562374
vt 0.960127 0.471025
vt 0.976499 0.521516
vt 0.960127 0.471025
vt 0.976499 0.426147
vt 0.960127 0.375657
vt 0.976499 0.521516
vt 0.960127 0.562374
vt 0.976499 0.521516
vt 0.960127 0.471025
vt 0.976499 0.521516
vt 0.960127 0.562374
vt 0.998008 0.465050
vt 0.981636 0.424192
vt 0.981636 0.424192
vt 0.998008 0.373701
vt 0.998008 0.373701
vt 0.981636 0.424192
vt 0.998008 0.465050
vt 0.981636 0.424192
vt 0.998008 0.373701
vt 0.981636 0.424192
vt 0.981636 0.424192
vt 0.998008 0.465050
vt 0.981636 0.519560
vt 0.998008 0.560418
vt 0.960127 0.248557
vt 0.976499 0.299048
vt 0.976499 0.299048
vt 0.960127 0.339906
vt 0.976499 0.299048
vt 0.960127 0.339906
vt 0.976499 0.299048
vt 0.960127 0.248557
vt 0.976499 0.299048
vt 0.960127 0.339906
vn -0.000001 0.000000 1.000000
vn -0.000000 0.000000 1.000000
vn -0.000000 0.000000 1.000000
vn -0.000001 0.000000 1.000000
vn 0.000000 0.604879 0.796317
vn 0.000000 0.604879 0.796317
vn 0.000000 0.999069 0.043144
vn 0.000000 0.999218 0.039544
vn 0.000000 0.000000 -1.000000
vn 0.000000 0.000000 -1.000000
vn 0.000000 0.000000 -1.000000
vn 0.000000 0.000000 -1.000000
vn 0.000000 -0.999218 0.039544
vn 0.000000 -0.999069 0.043144
vn 0.000000 -0.604884 0.796313
vn 0.000000 -0.604884 0.796313
vn 0.882333 -0.000001 0.470625
vn 0.999999 -0.000000 0.001534
vn 0.999999 -0.000000 0.001534
vn 0.882333 -0.000001 0.470625
vn -0.999999 -0.000000 0.001534
vn -0.999999 -0.000000 0.001534
vn -0.882333 -0.000001 0.470625
vn -0.882333 -0.000001 0.470625
vn 0.418529 -0.905152 0.074386
vn -0.052494 -0.998149 -0.030715
vn 0.077185 -0.997014 -0.002250
vn 0.418529 -0.905152 0.074386
vn 0.955433 0.000000 -0.295209
vn 0.955433 0.000000 -0.295209
vn 0.955433 0.000000 -0.295209
vn 0.955433 0.000000 -0.295209
vn -0.077185 0.997014 0.002250
vn 0.052494 0.998149 0.030715
vn -0.418528 0.905152 -0.074386
vn -0.418528 0.905152 -0.074386
vn -0.955433 0.000000 -0.295210
vn -0.955433 0.000000 -0.295210
vn -0.955433 0.000000 -0.295210
vn -0.955433 0.000000 -0.295210
vn -0.418529 0.905152 0.074386
vn 0.052494 0.998149 -0.030715
vn -0.077185 0.997014 -0.002250
vn -0.418529 0.905152 0.074386
vn 0.955433 0.000000 0.295209
vn 0.955433 0.000000 0.295209
vn 0.955433 0.000000 0.295209
vn 0.955433 0.000000 0.295209
vn 0.077185 -0.997014 0.002250
vn -0.052494 -0.998149 0.030715
vn 0.418529 -0.905152 -0.074386
vn 0.418528 -0.905152 -0.074386
vn -0.955432 0.000000 0.295209
vn -0.955433 0.000000 0.295209
vn -0.955432 0.000000 0.295209
vn -0.955433 0.000000 0.295209
vn 0.034106 -0.997140 -0.067440
vn -0.033454 -0.997993 -0.053772
vn 0.361443 -0.923365 -0.129442
vn 0.361443 -0.923365 -0.129442
vn -0.000000 0.000000 1.000000
vn -0.000000 0.000000 1.000000
vn -0.000001 0.000000 1.000000
vn -0.000001 0.000000 1.000000
vn -0.361443 0.923365 0.129442
vn 0.033454 0.997993 0.053772
vn -0.034106 0.997140 0.067441
vn -0.361443 0.923365 0.129442
vn 0.000000 0.999218 0.039544
vn 0.000000 0.999070 0.043120
vn 0.000000 0.604879 0.796317
vn 0.000000 0.604879 0.796317
vn -0.034106 0.997140 -0.067441
vn 0.033454 0.997993 -0.053772
vn -0.361443 0.923365 -0.129442
vn -0.361443 0.923365 -0.129442
vn -0.000000 0.000000 -1.000000
vn -0.000000 0.000000 -1.000000
vn -0.000001 0.000000 -1.000000
vn -0.000001 0.000000 -1.000000
vn 0.361443 -0.923365 0.129442
vn -0.033454 -0.997993 0.053772
vn 0.034106 -0.997140 0.067440
vn 0.361443 -0.923365 0.129442
vn 0.000000 -0.604884 0.796313
vn 0.000000 -0.999070 0.043120
vn 0.000000 -0.999218 0.039544
vn 0.000000 -0.604884 0.796313
vn -0.037223 -0.999147 -0.017860
vn 0.007143 -0.999784 -0.019494
vn 0.000000 0.000000 1.000000
vn 0.000000 0.000000 1.000000
vn -0.007143 0.999784 0.019494
vn 0.037223 0.999147 0.017860
vn 0.000000 0.999040 0.043812
vn 0.000000 0.604880 0.796317
vn 0.037223 0.999147 -0.017860
vn -0.007143 0.999784 -0.019494
vn 0.000000 0.000000 -1.000000
vn 0.000000 0.000000 -1.000000
vn 0.007143 -0.999784 0.019494
vn -0.037223 -0.999147 0.017860
vn 0.000000 -0.604884 0.796313
vn 0.000000 -0.999040 0.043812
vn -0.043113 -0.997006 -0.064183
vn 0.015506 -0.998123 -0.059251
vn 0.000000 0.000000 1.000000
vn 0.000000 0.000000 1.000000
vn -0.015506 0.998123 0.059251
vn 0.043113 0.997006 0.064183
vn 0.000000 0.999041 0.043790
vn 0.000000 0.604879 0.796317
vn 0.043113 0.997006 -0.064183
vn -0.015506 0.998123 -0.059251
vn 0.000000 0.000000 -1.000000
vn 0.000000 0.000000 -1.000000
vn 0.015506 -0.998123 0.059251
vn -0.043113 -0.997006 0.064183
vn 0.000000 -0.604884 0.796313
vn 0.000000 -0.999041 0.043790
vn -0.853192 -0.000001 -0.521596
vn -0.999999 -0.000000 -0.001479
vn -0.999999 -0.000000 -0.001479
vn -0.853192 -0.000001 -0.521596
vn 0.000000 -0.552431 -0.833559
vn 0.000000 -0.552431 -0.833559
vn 0.000000 -0.999061 -0.043324
vn 0.000000 -0.999212 -0.039691
vn 0.000000 -0.999033 -0.043976
vn 0.000000 -0.552431 -0.833559
vn 0.000000 -0.999032 -0.043998
vn 0.000000 -0.552431 -0.833559
vn 0.000000 -0.999062 -0.043300
vn 0.000000 -0.552431 -0.833559
vn 0.000000 -0.999212 -0.039691
vn 0.000000 -0.552431 -0.833559
vn 0.999999 -0.000000 -0.001479
vn 0.999999 -0.000000 -0.001479
vn 0.853192 -0.000001 -0.521596
vn 0.853192 -0.000001 -0.521596
vn 0.000000 0.552428 -0.833560
vn 0.000000 0.999062 -0.043300
vn 0.000000 0.999212 -0.039691
vn 0.000000 0.552428 -0.833560
vn 0.000000 0.552428 -0.833560
vn 0.000000 0.999032 -0.043998
vn 0.000000 0.552428 -0.833560
vn 0.000000 0.999033 -0.043976
vn 0.000000 0.552428 -0.833560
vn 0.000000 0.999061 -0.043324
vn 0.000000 0.999212 -0.039691
vn 0.000000 0.552428 -0.833560
s 1
g pCube1
usemtl initialShadingGroup
f 9/45/1 42/46/2 43/47/3 12/48/4
s 2
f 3/57/5 44/58/6 60/59/7 49/60/8
s 3
f 13/69/9 46/70/10 47/71/11 16/72/12
s 4
f 50/81/13 51/82/14 41/83/15 1/84/16
s 5
f 2/15/17 55/12/18 56/11/19 4/16/20
s 6
f 49/4/21 50/3/22 1/5/23 3/6/24
s 7
f 1/117/25 41/118/26 42/119/27 9/120/28
s off
f 2/15/29 4/16/30 11/17/31 10/18/32
s 8
f 43/9/33 44/10/34 3/6/35 12/8/36
s off
f 3/6/37 1/5/38 9/7/39 12/8/40
s 9
f 5/127/41 45/128/42 46/129/43 13/130/44
s off
f 6/153/45 8/151/46 15/152/47 14/154/48
s 10
f 47/141/49 48/142/50 7/143/51 16/144/52
s off
f 7/133/53 5/127/54 13/130/55 16/134/56
s 7
f 18/19/57 17/20/58 2/15/59 10/18/60
s 1
f 19/54/61 18/53/62 10/55/63 11/56/64
s 8
f 4/159/65 20/156/66 19/155/67 11/160/68
s 2
f 56/67/69 57/65/70 20/66/71 4/68/72
s 9
f 22/138/73 21/137/74 6/139/75 14/140/76
s 3
f 23/78/77 22/77/78 14/79/79 15/80/80
s 10
f 8/151/81 24/150/82 23/149/83 15/152/84
s 4
f 17/90/85 54/89/86 55/91/87 2/92/88
s 7
f 26/124/89 25/123/90 17/125/58 18/126/57
s 1
f 27/52/91 26/51/92 18/53/62 19/54/61
s 8
f 19/155/67 20/156/66 28/157/93 27/158/94
s 2
f 57/65/70 58/63/95 28/64/96 20/66/71
s 9
f 30/136/97 29/135/98 21/137/74 22/138/73
s 3
f 31/76/99 30/75/100 22/77/78 23/78/77
s 10
f 23/149/83 24/150/82 32/148/101 31/147/102
s 4
f 25/88/103 53/87/104 54/89/86 17/90/85
s 7
f 34/122/105 33/121/106 25/123/90 26/124/89
s 1
f 35/50/107 34/49/108 26/51/92 27/52/91
s 8
f 27/158/94 28/157/93 36/161/109 35/162/110
s 2
f 58/63/95 59/61/111 36/62/112 28/64/96
s 9
f 38/132/113 37/131/114 29/135/98 30/136/97
s 3
f 39/74/115 38/73/116 30/75/100 31/76/99
s 10
f 31/147/102 32/148/101 40/146/117 39/145/118
s 4
f 33/86/119 52/85/120 53/87/104 25/88/103
s 7
f 42/119/27 41/118/26 33/121/106 34/122/105
s 1
f 43/47/3 42/46/2 34/49/108 35/50/107
s 8
f 35/162/110 36/161/109 44/163/34 43/164/33
s 2
f 59/61/111 60/59/7 44/58/6 36/62/112
s 9
f 46/129/43 45/128/42 37/131/114 38/132/113
s 3
f 47/71/11 46/70/10 38/73/116 39/74/115
s 10
f 39/145/118 40/146/117 48/142/50 47/141/49
s 4
f 41/83/15 51/82/14 52/85/120 33/86/119
s 6
f 7/93/121 61/94/122 62/95/123 5/96/124
s 4
f 7/93/125 48/97/126 72/98/127 61/94/128
f 71/101/129 72/98/127 48/97/126 40/102/130
f 70/105/131 71/101/129 40/102/130 32/106/132
f 69/109/133 70/105/131 32/106/132 24/110/134
f 68/113/135 69/109/133 24/110/134 8/114/136
s 5
f 67/115/137 68/113/138 8/114/139 6/116/140
s 2
f 21/112/141 66/111/142 67/115/143 6/116/144
f 29/108/145 65/107/146 66/111/142 21/112/141
f 37/104/147 64/103/148 65/107/146 29/108/145
f 45/100/149 63/99/150 64/103/148 37/104/147
f 62/95/151 63/99/150 45/100/149 5/96/152
s 6
f 62/1/123 61/2/122 50/3/22 49/4/21
s 2
f 49/21/8 60/22/7 63/23/150 62/24/151
f 64/25/148 63/23/150 60/22/7 59/26/111
f 65/27/146 64/25/148 59/26/111 58/28/95
f 66/29/142 65/27/146 58/28/95 57/30/70
f 67/31/143 66/29/142 57/30/70 56/32/69
s 5
f 56/11/19 55/12/18 68/13/138 67/14/137
s 4
f 55/33/87 54/34/86 69/35/133 68/36/135
f 54/34/86 53/37/104 70/38/131 69/35/133
f 53/37/104 52/39/120 71/40/129 70/38/131
f 52/39/120 51/41/14 72/42/127 71/40/129
f 61/43/128 72/42/127 51/41/14 50/44/13
