# This file uses centimeters as units for non-parametric coordinates.

mtllib SM_GenericProp_CrumpledPaper_02.mtl
g default
v -2.367367 1.420911 1.362253
v -2.367935 1.280171 1.362253
v 1.263332 2.063069 1.362253
v 1.262764 1.922330 1.362253
v 1.263333 0.184212 -1.587193
v 1.262765 0.043474 -1.587193
v -2.909744 0.790606 -1.968266
v -2.910312 0.649867 -1.968266
v -1.321868 1.416690 1.362253
v -1.864245 0.786386 -1.968266
v -1.864813 0.645646 -1.968266
v -1.322436 1.275951 1.362253
v -1.253566 1.772888 -1.968266
v -0.711189 2.403190 1.362253
v -0.711757 2.262451 1.362253
v -1.254134 1.632148 -1.968266
v -0.114256 0.771208 -1.968266
v -0.114256 1.040289 1.362253
v -0.114824 0.899549 1.362253
v -0.114824 0.630469 -1.968266
v 0.379836 0.208912 -1.587193
v 0.379836 2.087769 1.362253
v 0.379268 1.947030 1.362253
v 0.379268 0.068174 -1.587193
v 1.263333 1.201422 0.331587
v 0.379837 1.226121 0.331587
v -0.114256 0.178641 0.331587
v -0.711189 1.541542 0.331587
v -1.321868 0.555043 0.331587
v -2.909744 0.198039 0.331587
v -2.910312 0.057300 0.331587
v -1.322436 0.414303 0.331587
v -0.711757 1.400802 0.331587
v -0.114824 0.037902 0.331587
v 0.379268 1.085382 0.331587
v 1.262765 1.060682 0.331587
v -2.909744 1.641486 -0.426390
v -1.864245 1.865963 -0.426390
v -1.253566 1.406985 -0.426390
v -0.114256 0.178641 -0.426390
v 0.379837 1.226121 -0.426390
v 1.263333 1.201422 -0.426390
v 1.262765 1.060682 -0.426390
v 0.379268 1.085382 -0.426390
v -0.114824 0.037902 -0.426390
v -1.254134 1.039578 -0.426390
v -1.864813 1.496526 -0.426390
v -2.910312 1.500746 -0.426390
v -2.909744 1.059687 -1.187348
v -1.890135 1.658926 -1.187348
v -1.253566 2.157633 -1.187348
v -0.114256 1.040289 -1.187348
v 0.379837 0.477992 -0.806275
v 1.263332 0.453292 -0.806275
v 1.262764 0.312553 -0.806275
v 0.379269 0.337254 -0.806275
v -0.114824 0.899549 -1.187348
v -1.254134 1.544390 -1.187348
v -1.864813 0.914727 -1.187348
v -2.910312 0.918947 -1.187348
vt 0.193008 0.907696
vt 0.179641 0.907696
vt 0.097257 0.716645
vt 0.110624 0.716645
vt 0.097257 0.367467
vt 0.110624 0.367467
vt 0.301786 0.716645
vt 0.384170 0.907696
vt 0.025727 0.215394
vt 0.039093 0.215394
vt 0.301786 0.367467
vt 0.000000 0.070638
vt 0.013366 0.070638
vt 0.230256 0.215394
vt 0.204529 0.070638
vt 0.392303 0.000000
vt 0.418030 0.144756
vt 0.669004 0.000000
vt 0.705790 0.144756
vt 0.861989 0.716645
vt 0.848623 0.716645
vt 0.879412 0.907696
vt 0.892778 0.907696
vt 1.000000 0.367467
vt 0.986634 0.367467
vt 0.944373 0.144756
vt 0.931007 0.144756
vt 0.918646 0.000000
vt 0.905279 0.000000
vt 0.839748 0.144756
vt 0.855432 0.367467
vt 0.752212 0.000000
vt 0.335646 0.716645
vt 0.560752 0.716645
vt 0.643136 0.907696
vt 0.418030 0.907696
vt 0.335646 0.367467
vt 0.634019 0.367467
vt 0.629770 0.907696
vt 0.547386 0.716645
vt 0.322280 0.716645
vt 0.404664 0.907696
vt 0.598981 0.367467
vt 0.322280 0.367467
vt 0.647247 0.144756
vt 0.404664 0.144756
vt 0.655637 0.000000
vt 0.378936 0.000000
vt 0.288420 0.716645
vt 0.370804 0.907696
vt 0.288420 0.367467
vt 0.216890 0.215394
vt 0.764573 0.144756
vt 0.738845 0.000000
vt 0.820200 0.367467
vt 0.630594 0.716645
vt 0.712978 0.907696
vt 0.191163 0.070638
vt 0.726344 0.907696
vt 0.643960 0.716645
vn 0.000000 -0.000000 1.000000
vn 0.000000 -0.000000 1.000000
vn 0.000000 -0.000000 1.000000
vn 0.000000 -0.000000 1.000000
vn 0.999986 -0.004037 0.003376
vn 0.999986 -0.004037 0.003376
vn 0.999992 -0.004037 0.000096
vn 0.999989 -0.004037 0.002461
vn 0.000000 0.000000 -1.000000
vn 0.000000 0.000000 -1.000000
vn 0.000000 0.000000 -1.000000
vn 0.000000 0.000000 -1.000000
vn -0.956940 0.003863 0.290261
vn -0.939283 0.003792 0.343122
vn -0.886685 0.003579 0.462360
vn -0.886685 0.003579 0.462360
vn 0.095434 -0.712376 0.695279
vn 0.130000 -0.970396 -0.203548
vn 0.136037 -0.978092 -0.157575
vn 0.529099 -0.627902 0.570784
vn -0.168396 0.958799 0.228793
vn -0.163216 0.947564 0.274742
vn -0.095434 0.712376 -0.695279
vn -0.529099 0.627902 -0.570783
vn 0.026790 0.958300 -0.284504
vn -0.576977 0.704414 -0.413398
vn -0.027497 0.766920 -0.641153
vn 0.021444 0.767034 -0.641249
vn 0.000000 0.000000 -1.000000
vn 0.000000 0.000000 -1.000000
vn 0.004240 -0.000017 -0.999991
vn 0.490792 -0.001981 -0.871275
vn 0.027496 -0.766920 0.641153
vn 0.576976 -0.704415 0.413399
vn -0.026791 -0.958302 0.284499
vn -0.021444 -0.767034 0.641248
vn 0.000000 -0.000000 1.000000
vn 0.000000 -0.000000 1.000000
vn 0.000000 -0.000000 1.000000
vn 0.000000 -0.000000 1.000000
vn 0.251011 0.758208 -0.601760
vn 0.216082 0.749085 -0.626243
vn 0.000000 -0.000000 1.000000
vn 0.000000 -0.000000 1.000000
vn -0.238827 -0.749731 0.617143
vn -0.216148 -0.749074 0.626234
vn 0.000000 0.000000 -1.000000
vn 0.000000 0.000000 -1.000000
vn 0.168507 0.912920 -0.371729
vn 0.216574 0.749001 -0.626173
vn 0.000000 -0.000000 1.000000
vn 0.000000 -0.000000 1.000000
vn -0.093077 -0.900690 0.424376
vn -0.216574 -0.749001 0.626173
vn 0.002637 -0.000011 -0.999997
vn 0.603274 -0.002435 -0.797531
vn 0.055434 0.943994 -0.325272
vn 0.451609 0.664187 -0.595739
vn 0.024763 0.885758 -0.463486
vn 0.026423 0.945118 -0.325659
vn 0.792279 0.576079 -0.201065
vn 0.683619 0.696677 0.217501
vn 0.154477 0.861165 -0.484285
vn 0.317782 0.945471 -0.071413
vn -0.233059 0.782953 -0.576774
vn -0.508071 0.731542 -0.454654
vn -0.226075 0.784631 -0.577273
vn -0.227650 0.785589 -0.575349
vn -0.999991 0.004037 -0.001391
vn -0.999991 0.004037 -0.001391
vn -0.999991 0.004037 -0.001411
vn -0.999987 0.004037 -0.003042
vn 0.407704 -0.850424 0.332501
vn -0.003534 -0.875523 0.483163
vn -0.003816 -0.945441 0.325770
vn 0.033641 -0.946882 0.319818
vn -0.015717 -0.994494 0.103608
vn -0.009679 -0.993282 0.115315
vn -0.561446 -0.772856 -0.295757
vn -0.791225 -0.580578 0.192072
vn -0.451609 -0.664184 0.595742
vn -0.055435 -0.943995 0.325271
vn -0.024764 -0.885762 0.463479
vn -0.026423 -0.945118 0.325658
vn 0.999963 -0.004037 0.007611
vn 0.999991 -0.004037 0.001407
vn 0.999991 -0.004037 0.001392
vn 0.999991 -0.004037 0.001392
vn -0.222379 0.843133 0.489566
vn -0.223617 0.747507 0.625482
vn 0.745185 0.626223 0.229226
vn 0.177328 0.922447 -0.342997
vn -0.537513 0.822546 -0.185736
vn 0.021034 0.752401 -0.658370
vn 0.999984 -0.004037 0.003969
vn 0.999992 -0.004037 0.000036
vn 0.537515 -0.822546 0.185731
vn -0.021035 -0.752399 0.658371
vn -0.097235 -0.911975 0.398555
vn -0.692919 -0.706441 -0.144237
vn 0.063684 -0.850483 -0.522133
vn 0.061864 -0.850329 -0.522602
vn -0.999992 0.004037 -0.000008
vn -0.999989 0.004037 0.002309
s 1
g pCube2
usemtl initialShadingGroup
f 1/23/1 2/22/2 12/57/3 9/59/4
s 2
f 3/1/5 4/2/6 36/3/7 25/4/8
s 3
f 10/32/9 11/54/10 8/29/11 7/28/12
s 4
f 30/20/13 31/21/14 2/22/15 1/23/16
s 5
f 2/22/17 31/21/18 32/56/19 12/57/20
s 6
f 29/60/21 30/20/22 1/23/23 9/59/24
f 25/4/25 26/7/26 22/8/27 3/1/28
s 3
f 5/13/29 6/12/30 24/58/31 21/15/32
s 5
f 23/50/33 35/49/34 36/3/35 4/2/36
s 1
f 22/8/37 23/50/38 4/2/39 3/1/40
s 6
f 28/34/41 29/60/21 9/59/24 14/35/42
s 1
f 9/59/4 12/57/3 15/39/43 14/35/44
s 5
f 12/57/20 32/56/19 33/40/45 15/39/46
s 3
f 13/18/47 16/47/48 11/54/10 10/32/9
s 6
f 27/33/49 28/34/41 14/35/42 18/36/50
s 1
f 14/35/44 15/39/43 19/42/51 18/36/52
s 5
f 15/39/46 33/40/45 34/41/53 19/42/54
s 3
f 17/16/55 20/48/56 16/47/48 13/18/47
s 6
f 26/7/26 27/33/49 18/36/50 22/8/27
s 1
f 18/36/52 19/42/51 23/50/38 22/8/37
s 5
f 19/42/54 34/41/53 35/49/34 23/50/33
s 3
f 21/15/32 24/58/31 20/48/56 17/16/55
s 6
f 21/15/57 53/14/58 54/10/59 5/13/60
f 17/16/61 52/17/62 53/14/58 21/15/57
f 13/18/63 51/19/64 52/17/62 17/16/61
f 10/32/65 50/30/66 51/19/64 13/18/63
f 7/28/67 49/26/68 50/30/66 10/32/65
s 4
f 7/28/69 8/29/70 60/27/71 49/26/72
s 5
f 59/53/73 60/27/74 8/29/75 11/54/76
f 58/45/77 59/53/73 11/54/76 16/47/78
f 57/46/79 58/45/77 16/47/78 20/48/80
f 56/52/81 57/46/79 20/48/80 24/58/82
f 55/9/83 56/52/81 24/58/82 6/12/84
s 2
f 54/10/85 55/9/86 6/12/87 5/13/88
s 6
f 38/31/89 37/24/90 30/20/22 29/60/21
f 39/38/91 38/31/89 29/60/21 28/34/41
f 40/37/92 39/38/91 28/34/41 27/33/49
f 41/11/93 40/37/92 27/33/49 26/7/26
f 42/6/94 41/11/93 26/7/26 25/4/25
s 2
f 25/4/8 36/3/7 43/5/95 42/6/96
s 5
f 36/3/35 35/49/34 44/51/97 43/5/98
f 35/49/34 34/41/53 45/44/99 44/51/97
f 34/41/53 33/40/45 46/43/100 45/44/99
f 33/40/45 32/56/19 47/55/101 46/43/100
f 32/56/19 31/21/18 48/25/102 47/55/101
s 4
f 37/24/103 48/25/104 31/21/14 30/20/13
s 6
f 50/30/66 49/26/68 37/24/90 38/31/89
f 51/19/64 50/30/66 38/31/89 39/38/91
f 52/17/62 51/19/64 39/38/91 40/37/92
f 53/14/58 52/17/62 40/37/92 41/11/93
f 54/10/59 53/14/58 41/11/93 42/6/94
s 2
f 42/6/96 43/5/95 55/9/86 54/10/85
s 5
f 43/5/98 44/51/97 56/52/81 55/9/83
f 44/51/97 45/44/99 57/46/79 56/52/81
f 45/44/99 46/43/100 58/45/77 57/46/79
f 46/43/100 47/55/101 59/53/73 58/45/77
f 47/55/101 48/25/102 60/27/74 59/53/73
s 4
f 49/26/72 60/27/71 48/25/104 37/24/103
