# This file uses centimeters as units for non-parametric coordinates.

mtllib SM_SpicySubject_PantsUnfolded_01.mtl
g default
v 0.426588 -0.081547 3.612319
v 0.950107 -0.081547 -3.571840
v 0.451739 -0.079026 3.584556
v -0.450164 -0.079026 3.584553
v -1.000643 -0.079026 -3.528858
v -1.004641 -0.079696 -3.189419
v 1.006473 -0.079696 -3.189410
v 1.004154 -0.079026 -3.528853
v -0.461146 0.064804 3.591984
v -1.025578 0.064804 -3.540208
v -1.032253 0.064804 -3.189304
v 1.032253 0.064804 -3.189304
v 1.027433 0.064804 -3.540208
v 0.461974 0.064804 3.591985
v -0.622157 -0.079696 -0.075099
v -0.639302 0.064804 -0.075090
v 0.639302 0.064804 -0.075090
v 0.623375 -0.079696 -0.075099
v -0.618673 0.064804 0.167848
v -0.602081 -0.079696 0.167841
v 0.603262 -0.079696 0.167841
v 0.618673 0.064804 0.167848
v -0.639981 -0.079696 -0.228466
v -0.657613 0.064804 -0.228451
v 0.657613 0.064804 -0.228451
v 0.641228 -0.079696 -0.228465
v -0.431878 -0.078691 3.625987
v -0.962818 -0.078691 -3.592852
v 0.434544 -0.078691 3.625990
v 0.968775 -0.078691 -3.592847
v -0.440313 0.064804 3.639478
v -0.982560 0.064804 -3.613590
v 0.987196 0.064804 -3.613590
v 0.434544 0.078217 3.625990
v 0.442383 0.064804 3.639478
v -0.610913 -0.079696 0.044500
v -0.627748 0.064804 0.044507
v 0.627748 0.064804 0.044507
v 0.612111 -0.079696 0.044500
v 0.906286 0.082512 -3.592941
vt 0.625000 0.000000
vt 0.625000 1.000000
vt 0.875000 0.000000
vt 0.625000 0.750000
vt 0.626337 0.009757
vt 0.373773 0.009757
vt 0.128981 0.009757
vt 0.139432 0.009757
vt 0.860568 0.009757
vt 0.871019 0.009757
vt 0.375122 0.216726
vt 0.128981 0.218007
vt 0.141921 0.216726
vt 0.858079 0.216726
vt 0.871019 0.218007
vt 0.625098 0.216726
vt 0.248258 0.009757
vt 0.248313 0.216726
vt 0.751687 0.216726
vt 0.751742 0.009757
vt 0.256546 0.216726
vt 0.256491 0.009757
vt 0.743509 0.009757
vt 0.743454 0.216726
vt 0.243695 0.009757
vt 0.243084 0.216726
vt 0.756916 0.216726
vt 0.756305 0.009757
vt 0.379723 0.009757
vt 0.375000 0.740243
vt 0.125000 0.009757
vt 0.620663 0.009757
vt 0.875000 0.009757
vt 0.625000 0.740243
vt 0.381747 0.216726
vt 0.125000 0.219288
vt 0.375000 0.530712
vt 0.875000 0.219288
vt 0.625000 0.530712
vt 0.620663 0.239523
vt 0.618804 0.216726
vt 0.252291 0.009757
vt 0.252374 0.216726
vt 0.747626 0.216726
vt 0.747708 0.009757
vt 0.612510 0.502737
vn -0.047031 -0.363160 0.930539
vn -0.000000 -0.999967 0.008087
vn 0.048576 -0.254402 0.965878
vn 0.048756 0.144900 0.988244
vn -0.050554 0.283502 0.957638
vn -0.136316 0.990645 0.006299
vn -0.126892 0.991903 0.005266
vn 0.126770 0.991919 0.005174
vn 0.136203 0.990661 0.006270
vn -0.028415 -0.520037 -0.853671
vn 0.030418 -0.413024 -0.910212
vn 0.000000 -0.999986 -0.005236
vn 0.135209 -0.990794 0.006707
vn 0.137082 -0.990539 0.006492
vn -0.135078 -0.990812 0.006773
vn -0.136994 -0.990551 0.006511
vn 0.080736 -0.996706 -0.007700
vn -0.080673 -0.996703 -0.008634
vn 0.091768 -0.995731 0.009932
vn -0.091781 -0.995730 0.009878
vn -0.089552 0.995933 0.009855
vn -0.070844 0.997468 0.006287
vn -0.035035 0.479758 -0.876701
vn 0.080921 -0.996670 0.010082
vn -0.080814 -0.996678 0.010061
vn -0.081983 0.996582 0.010207
vn 0.081862 0.996591 0.010200
vn 0.089507 0.995937 0.009907
vn -0.000000 1.000000 0.000000
vn 0.070825 0.997461 0.007392
vn 0.034976 0.414793 -0.909243
vn -0.000000 1.000000 -0.000000
vn -0.111300 -0.993714 0.012005
vn -0.111714 0.993667 0.012069
vn 0.111415 -0.993701 0.012028
vn 0.114941 -0.993326 0.009631
vn -0.114827 -0.993339 0.009612
vn -0.115063 0.993311 0.009648
vn 0.111594 0.993681 0.012066
vn 0.114948 0.993325 0.009646
s 1
g pants_unfolded
usemtl initialShadingGroup
f 27/29/1 1/1/2 29/32/3
f 29/32/3 35/41/4 31/35/5 27/29/1
f 19/21/6 9/11/7 14/16/8 22/24/9
f 28/30/10 30/34/11 2/4/12
f 29/32/3 3/5/13 14/16/8 35/41/4
f 14/16/8 3/5/13 21/23/14 22/24/9
f 3/5/13 4/6/15 20/22/16 21/23/14
f 1/2/2 27/29/1 4/6/15 3/5/13 29/32/3
f 8/10/17 5/7/18 28/31/10 2/3/12 30/33/11
f 7/9/19 6/8/20 5/7/18 8/10/17
f 5/7/18 6/8/20 11/13/21 10/12/22
f 28/31/10 5/7/18 10/12/22 32/36/23
f 26/28/24 23/25/25 6/8/20 7/9/19
f 11/13/21 6/8/20 23/25/25 24/26/26
f 25/27/27 26/28/24 7/9/19 12/14/28
f 31/35/5 9/11/7 4/6/15 27/29/1
f 9/11/7 31/35/5 34/40/29 35/41/4 14/16/8
f 32/36/23 10/12/22 13/15/30 33/38/31 40/46/32
f 11/13/21 12/14/28 13/15/30 10/12/22
f 28/30/10 32/37/23 33/39/31 30/34/11
f 13/15/30 12/14/28 7/9/19 8/10/17
f 33/38/31 13/15/30 8/10/17 30/33/11
f 31/35/5 35/41/4 34/40/29
f 23/25/25 15/17/33 16/18/34 24/26/26
f 18/20/35 15/17/33 23/25/25 26/28/24
f 39/45/36 36/42/37 15/17/33 18/20/35
f 15/17/33 36/42/37 37/43/38 16/18/34
f 17/19/39 16/18/34 37/43/38 38/44/40
f 17/19/39 25/27/27 24/26/26 16/18/34
f 17/19/39 38/44/40 39/45/36 18/20/35
f 25/27/27 17/19/39 18/20/35 26/28/24
f 19/21/6 37/43/38 36/42/37 20/22/16
f 21/23/14 20/22/16 36/42/37 39/45/36
f 21/23/14 39/45/36 38/44/40 22/24/9
f 37/43/38 19/21/6 22/24/9 38/44/40
f 32/37/23 40/46/32 33/39/31
f 11/13/21 24/26/26 25/27/27 12/14/28
f 9/11/7 19/21/6 20/22/16 4/6/15
