# Blender v3.0.0 OBJ File: 'GenericProps2.blend'
# www.blender.org
mtllib SM_GenericProp_SquareLight_Medium.mtl
o SM_GenericProp_SquareLight_Medium_Cube.003
v -14.230356 33.220131 3.155514
v -13.819078 33.058853 3.038083
v -13.936510 33.220131 3.449360
v -14.230356 33.220131 -2.972644
v -13.936510 33.220131 -3.266490
v -13.819078 33.058853 -2.855212
v -7.514505 33.220131 3.155514
v -7.808352 33.220131 3.449360
v -7.925783 33.058853 3.038083
v -7.808352 33.220131 -3.266490
v -7.514505 33.220131 -2.972644
v -7.925783 33.058853 -2.855212
v -14.042340 34.337730 3.025952
v -13.806948 34.337730 3.261345
v -13.806948 34.337730 -3.078475
v -14.042340 34.337730 -2.843081
v -7.702521 34.337730 -2.843081
v -7.937914 34.337730 -3.078475
v -7.937914 34.337730 3.261345
v -7.702521 34.337730 3.025952
v -13.806948 34.033154 -3.078475
v -14.263122 33.706322 -3.299256
v -14.042340 34.033154 -2.843081
v -7.702521 34.033154 -2.843081
v -7.481740 33.706322 -3.299256
v -7.937914 34.033154 -3.078475
v -7.937914 34.033154 3.261345
v -7.481740 33.706322 3.482126
v -7.702521 34.033154 3.025952
v -13.806948 34.033154 3.261345
v -14.042340 34.033154 3.025952
v -14.263122 33.706322 3.482126
v -14.438612 33.411091 -3.180900
v -14.393715 33.656536 -3.429849
v -14.144766 33.411091 -3.474746
v -14.438612 33.411091 3.363770
v -14.144766 33.411091 3.657616
v -14.393715 33.656536 3.612719
v -7.600096 33.411091 -3.474746
v -7.351146 33.656536 -3.429849
v -7.306250 33.411091 -3.180900
v -7.306250 33.411091 3.363770
v -7.351146 33.656536 3.612719
v -7.600096 33.411091 3.657616
vt 0.147647 0.737168
vt 0.352353 0.737168
vt 0.359309 0.744125
vt 0.140691 0.744125
vt 0.501135 0.259282
vt 0.549771 0.259282
vt 0.549771 0.490718
vt 0.501135 0.490718
vt 0.408720 0.250000
vt 0.428665 0.250000
vt 0.428665 0.500000
vt 0.408720 0.500000
vt 0.501135 0.509282
vt 0.549771 0.509282
vt 0.549771 0.740718
vt 0.501135 0.740718
vt 0.501135 0.759282
vt 0.549771 0.759282
vt 0.549771 0.990718
vt 0.501135 0.990718
vt 0.428665 0.750000
vt 0.408720 0.750000
vt 0.408720 0.000000
vt 0.428665 0.000000
vt 0.428665 1.000000
vt 0.408720 1.000000
vt 0.151570 0.526570
vt 0.348430 0.526570
vt 0.348430 0.723430
vt 0.151570 0.723430
vt 0.362168 0.727353
vt 0.362168 0.522648
vt 0.369125 0.515691
vt 0.369125 0.734309
vt 0.501135 0.009282
vt 0.549771 0.009282
vt 0.549771 0.240718
vt 0.501135 0.240718
vt 0.352353 0.512832
vt 0.147647 0.512832
vt 0.140691 0.505875
vt 0.359309 0.505875
vt 0.137832 0.727353
vt 0.137832 0.522648
vt 0.501135 0.000000
vt 0.501135 0.000000
vt 0.462385 0.000000
vt 0.130875 0.515691
vt 0.129415 0.504415
vt 0.134392 0.509392
vt 0.130875 0.734309
vt 0.134392 0.740608
vt 0.129415 0.745584
vt 0.370585 0.504415
vt 0.365608 0.509392
vt 0.369125 0.738645
vt 0.370585 0.745585
vt 0.359309 0.750000
vt 0.125000 0.742625
vt 0.125000 0.507375
vt 0.132375 0.500000
vt 0.367625 0.500000
vt 0.367625 0.750000
vt 0.132375 0.750000
vt 0.549771 0.000000
vn 0.0000 -0.7371 0.6758
vn 0.0000 0.0000 -1.0000
vn 0.0000 0.9344 -0.3562
vn 1.0000 0.0000 0.0000
vn 0.0000 0.0000 1.0000
vn 0.3562 0.9344 0.0000
vn -0.3562 0.9344 0.0000
vn 0.0000 0.9344 0.3562
vn 0.0000 -1.0000 0.0000
vn 0.6758 -0.7371 0.0000
vn -1.0000 0.0000 0.0000
vn 0.0000 -0.7371 -0.6758
vn -0.2801 -0.9182 0.2801
vn -0.2801 -0.9182 -0.2801
vn 0.2801 -0.9182 0.2801
vn 0.2801 -0.9182 -0.2801
vn -0.3987 0.8259 -0.3987
vn 0.3987 0.8259 -0.3987
vn 0.3987 0.8259 0.3987
vn -0.3987 0.8259 0.3987
vn -0.6096 -0.5068 -0.6096
vn -0.6096 -0.5068 0.6096
vn 0.6096 -0.5068 -0.6096
vn 0.6096 -0.5068 0.6096
vn -0.9837 0.1799 0.0000
vn 0.0000 0.1799 -0.9837
vn 0.9837 0.1799 0.0000
vn 0.0000 0.1799 0.9837
vn -0.7071 0.0000 0.7071
vn -0.7071 0.0000 -0.7071
vn 0.7071 0.0000 -0.7071
vn 0.7071 0.0000 0.7071
vn -0.8286 0.5598 0.0000
vn 0.0000 0.5598 -0.8286
vn 0.8286 0.5598 0.0000
vn 0.0000 0.5598 0.8286
vn -0.3651 -0.9310 0.0000
vn 0.0000 -0.9310 -0.3651
vn 0.3651 -0.9310 0.0000
vn 0.0000 -0.9310 0.3651
vn -0.3847 -0.8391 -0.3847
vn -0.3847 -0.8391 0.3847
vn 0.3847 -0.8391 -0.3847
vn 0.3847 -0.8391 0.3847
vn -0.6758 -0.7371 0.0000
vn 0.0000 1.0000 -0.0000
usemtl None
s off
f 3/1/1 8/2/1 44/3/1 37/4/1
f 21/5/2 15/6/2 18/7/2 26/8/2
f 34/9/3 22/10/3 25/11/3 40/12/3
f 24/13/4 17/14/4 20/15/4 29/16/4
f 27/17/5 19/18/5 14/19/5 30/20/5
f 40/12/6 25/11/6 28/21/6 43/22/6
f 38/23/7 32/24/7 22/10/7 34/9/7
f 43/22/8 28/21/8 32/25/8 38/26/8
f 6/27/9 12/28/9 9/29/9 2/30/9
f 7/31/10 11/32/10 41/33/10 42/34/10
f 31/35/11 13/36/11 16/37/11 23/38/11
f 10/39/12 5/40/12 35/41/12 39/42/12
f 1/43/13 2/30/13 3/1/13
f 4/44/14 5/40/14 6/27/14
f 7/31/15 8/2/15 9/29/15
f 10/39/16 11/32/16 12/28/16
f 21/5/17 22/10/17 23/38/17
f 24/13/18 25/11/18 26/8/18
f 27/17/19 28/21/19 29/16/19
f 30/45/20 31/46/20 32/47/20
f 33/48/21 34/49/21 35/50/21
f 36/51/22 37/52/22 38/53/22
f 39/42/23 40/54/23 41/55/23
f 42/56/24 43/57/24 44/58/24
f 33/48/25 36/51/25 38/59/25 34/60/25
f 39/42/26 35/41/26 34/61/26 40/62/26
f 42/34/27 41/33/27 40/12/27 43/22/27
f 37/4/28 44/3/28 43/63/28 38/64/28
f 30/45/29 14/65/29 13/36/29 31/35/29
f 15/6/30 21/5/30 23/38/30 16/37/30
f 17/14/31 24/13/31 26/8/31 18/7/31
f 19/18/32 27/17/32 29/16/32 20/15/32
f 31/35/33 23/38/33 22/10/33 32/24/33
f 21/5/34 26/8/34 25/11/34 22/10/34
f 24/13/35 29/16/35 28/21/35 25/11/35
f 27/17/36 30/20/36 32/25/36 28/21/36
f 6/27/37 2/30/37 1/43/37 4/44/37
f 12/28/38 6/27/38 5/40/38 10/39/38
f 9/29/39 12/28/39 11/32/39 7/31/39
f 2/30/40 9/29/40 8/2/40 3/1/40
f 35/41/41 5/40/41 4/44/41 33/48/41
f 3/1/42 37/4/42 36/51/42 1/43/42
f 41/33/43 11/32/43 10/39/43 39/42/43
f 44/3/44 8/2/44 7/31/44 42/34/44
f 4/44/45 1/43/45 36/51/45 33/48/45
f 14/19/46 19/18/46 20/15/46 17/14/46 18/7/46 15/6/46 16/37/46 13/36/46
