# This file uses centimeters as units for non-parametric coordinates.

mtllib SM_Mall_Trashcan_01.mtl
g default
v -6.512982 -0.908263 -2.089765
v -8.290641 -0.908263 -3.381305
v -10.487949 -0.908263 -3.381308
v -12.265607 -0.908263 -2.089764
v -12.944615 -0.908263 0.000000
v -12.265607 -0.908263 2.089764
v -10.487949 -0.908263 3.381308
v -8.290642 -0.908263 3.381305
v -6.512984 -0.908263 2.089764
v -5.833976 -0.908263 0.000000
v -5.791143 0.839584 0.000000
v -6.478331 0.839584 2.114941
v -8.277405 0.839584 3.422041
v -10.501185 0.839584 3.422045
v -12.300259 0.839584 2.114941
v -12.987448 0.839584 0.000000
v -12.300259 0.839584 -2.114941
v -10.501186 0.839584 -3.422045
v -8.277405 0.839584 -3.422042
v -6.478329 0.839584 -2.114941
v -9.389295 -1.000001 0.000000
v -9.389295 9.916952 0.000000
v -6.430927 9.916950 0.000000
v -5.566270 9.388693 0.000000
v -5.566270 9.841484 0.000000
v -6.296406 9.388693 2.247118
v -6.296406 9.841484 2.247118
v -8.207916 9.388693 3.635908
v -8.207916 9.841484 3.635908
v -10.570675 9.388693 3.635911
v -10.570675 9.841484 3.635912
v -12.482185 9.388693 2.247118
v -12.482185 9.841484 2.247118
v -13.212321 9.388693 0.000000
v -13.212321 9.841484 0.000000
v -12.482185 9.388693 -2.247118
v -12.482185 9.841484 -2.247118
v -10.570676 9.388693 -3.635912
v -10.570676 9.841484 -3.635912
v -8.207915 9.388693 -3.635909
v -8.207915 9.841484 -3.635909
v -6.296404 9.388693 -2.247118
v -6.296404 9.841484 -2.247118
v -12.987448 4.523568 0.000000
v -12.300259 4.523568 -2.114941
v -10.501186 4.523568 -3.422045
v -8.277405 4.523568 -3.422042
v -6.478330 4.523568 -2.114941
v -6.616940 -1.000002 -2.014235
v -8.330349 -1.000002 -3.259096
v -10.448241 -1.000002 -3.259099
v -12.161650 -1.000002 -2.014235
v -12.816116 -1.000002 0.000000
v -12.161650 -1.000002 2.014235
v -10.448241 -1.000002 3.259099
v -8.330350 -1.000002 3.259095
v -6.616942 -1.000002 2.014235
v -5.962474 -1.000002 0.000000
v -5.662644 9.313228 0.000000
v -5.662643 9.916948 0.000000
v -6.374374 9.313228 2.190470
v -6.374374 9.916948 2.190470
v -8.237696 9.313228 3.544251
v -8.237696 9.916948 3.544251
v -10.540893 9.313228 3.544254
v -10.540893 9.916948 3.544254
v -12.404217 9.313228 2.190471
v -12.404217 9.916948 2.190471
v -13.115947 9.313228 0.000000
v -13.115947 9.916948 0.000000
v -12.404217 9.313228 -2.190471
v -12.404217 9.916948 -2.190471
v -10.540894 9.313228 -3.544255
v -10.540894 9.916948 -3.544255
v -8.237696 9.313228 -3.544251
v -8.237696 9.916948 -3.544251
v -6.374372 9.313228 -2.190471
v -6.374372 9.916948 -2.190471
v -6.478330 -0.633047 -2.114941
v -8.277405 -0.633047 -3.422042
v -10.501186 -0.633047 -3.422045
v -12.300259 -0.633047 -2.114941
v -12.987448 -0.633047 0.000000
v -12.300259 -0.633047 2.114941
v -10.501185 -0.633047 3.422045
v -8.277406 -0.633047 3.422041
v -6.478331 -0.633047 2.114941
v -5.791142 -0.633047 0.000000
v -5.791142 4.523568 0.000000
v -6.478331 4.523568 2.114941
v -8.277405 4.523568 3.422041
v -10.501185 4.523568 3.422045
v -12.300259 4.523568 2.114941
vt 0.392073 0.017894
vt 0.393171 0.005887
vt 0.251059 0.775863
vt 0.484347 0.017894
vt 0.335044 0.017894
vt 0.336821 0.005887
vt 0.159604 0.756243
vt 0.251059 0.770521
vt 0.345944 0.760676
vt 0.576622 0.017894
vt 0.484347 0.082145
vt 0.392073 0.082145
vt 0.335044 0.082145
vt 0.342515 0.756244
vt 0.631873 0.005887
vt 0.633650 0.017894
vt 0.576622 0.082145
vt 0.484347 0.242876
vt 0.392073 0.242876
vt 0.335044 0.242876
vt 0.633650 0.082145
vt 0.576622 0.242876
vt 0.484347 0.451848
vt 0.389386 0.452003
vt 0.324506 0.451852
vt 0.633650 0.242876
vt 0.579308 0.452003
vt 0.484347 0.455141
vt 0.389624 0.455087
vt 0.644188 0.451853
vt 0.579070 0.455087
vt 0.563354 0.801271
vt 0.662442 0.783582
vt 0.464267 0.783582
vt 0.563354 0.795726
vt 0.659944 0.780200
vt 0.323065 0.454933
vt 0.325713 0.474896
vt 0.645629 0.454933
vt 0.642981 0.474896
vt 0.466765 0.780199
vt 0.068352 0.017894
vt 0.069450 0.005887
vt 0.251059 0.486456
vt 0.160626 0.017894
vt 0.011323 0.017894
vt 0.013100 0.005887
vt 0.342515 0.507139
vt 0.251059 0.492862
vt 0.252900 0.017894
vt 0.156174 0.502707
vt 0.160626 0.082145
vt 0.068352 0.082145
vt 0.011323 0.082145
vt 0.159604 0.507139
vt 0.252900 0.082145
vt 0.308152 0.005887
vt 0.309929 0.017894
vt 0.160626 0.242876
vt 0.068352 0.242876
vt 0.011323 0.242876
vt 0.309929 0.082145
vt 0.252900 0.242876
vt 0.160626 0.451848
vt 0.065665 0.452003
vt 0.000785 0.451852
vt 0.309929 0.242876
vt 0.255587 0.452003
vt 0.160626 0.455141
vt 0.065902 0.455087
vt 0.320467 0.451852
vt 0.255349 0.455087
vt 0.160626 0.460010
vt 0.464266 0.505964
vt 0.662443 0.505963
vt 0.563354 0.493820
vt 0.466764 0.509346
vt -0.000656 0.454933
vt 0.001992 0.474896
vt 0.321908 0.454932
vt 0.319260 0.474896
vt 0.659945 0.509346
vt 0.251059 0.631691
vt 0.108866 0.585490
vt 0.103534 0.583757
vt 0.108866 0.677893
vt 0.393253 0.585490
vt 0.103534 0.679625
vt 0.345944 0.502707
vt 0.398585 0.583757
vt 0.393253 0.677893
vt 0.156174 0.760675
vt 0.398585 0.679625
vt 0.563354 0.515700
vt 0.563354 0.644773
vt 0.717989 0.594529
vt 0.408720 0.594529
vt 0.721988 0.593229
vt 0.717990 0.695017
vt 0.408719 0.695017
vt 0.404721 0.593229
vt 0.721988 0.696316
vt 0.404720 0.696316
vt 0.832693 0.458886
vt 0.832115 0.470893
vt 0.736247 0.470893
vt 0.735670 0.458886
vt 0.735670 0.394635
vt 0.832693 0.394635
vt 0.735670 0.233904
vt 0.832693 0.233904
vt 0.733937 0.024932
vt 0.732638 0.021639
vt 0.835725 0.021639
vt 0.732638 0.001884
vt 0.835725 0.001884
vt 0.814554 0.486892
vt 0.815132 0.474885
vt 0.911000 0.474885
vt 0.911577 0.486892
vt 0.911577 0.551143
vt 0.814554 0.551143
vt 0.911577 0.711874
vt 0.814554 0.711874
vt 0.913310 0.920846
vt 0.914609 0.924139
vt 0.811523 0.924139
vt 0.914609 0.943894
vt 0.811523 0.943894
vt 0.812822 0.920846
vt 0.834425 0.024932
vt 0.484347 0.017582
vt 0.575523 0.005887
vt 0.160626 -0.006872
vt 0.251802 0.005887
vt 0.563354 0.487211
vt 0.258667 0.474896
vt 0.062585 0.474896
vt 0.386306 0.474896
vt 0.484347 0.488718
vt 0.582388 0.474896
vn 0.808789 -0.023751 -0.587620
vn 0.746905 -0.384257 -0.542659
vn 0.285292 -0.384257 -0.878040
vn 0.308929 -0.023751 -0.950788
vn 0.309017 0.000000 -0.951057
vn 0.809017 -0.000000 -0.587786
vn -0.285291 -0.384258 -0.878040
vn -0.308929 -0.023751 -0.950788
vn -0.309016 0.000000 -0.951057
vn -0.746905 -0.384257 -0.542659
vn -0.808789 -0.023751 -0.587619
vn -0.809017 0.000000 -0.587785
vn -0.923226 -0.384257 0.000000
vn -0.999718 -0.023751 0.000000
vn -1.000000 -0.000000 -0.000000
vn -0.746905 -0.384257 0.542659
vn -0.808789 -0.023751 0.587620
vn -0.809017 0.000000 0.587786
vn -0.285292 -0.384257 0.878040
vn -0.308929 -0.023751 0.950789
vn -0.309016 -0.000000 0.951057
vn 0.285292 -0.384257 0.878040
vn 0.308930 -0.023751 0.950788
vn 0.309017 -0.000000 0.951057
vn 0.746905 -0.384257 0.542659
vn 0.808788 -0.023751 0.587620
vn 0.809017 -0.000000 0.587786
vn 0.923226 -0.384257 0.000000
vn 0.999718 -0.023751 0.000000
vn 1.000000 -0.000000 0.000000
vn 0.999883 -0.015314 0.000000
vn 0.808922 -0.015314 -0.587717
vn 0.998753 -0.049933 0.000000
vn 0.808008 -0.049933 -0.587053
vn 0.808922 -0.015314 0.587717
vn 0.308981 -0.015314 0.950945
vn -0.308980 -0.015314 0.950945
vn -0.808922 -0.015314 0.587717
vn -0.999883 -0.015314 -0.000000
vn -0.808922 -0.015314 -0.587716
vn -0.308980 -0.015314 -0.950945
vn 0.308980 -0.015314 -0.950945
vn 0.988099 -0.153817 0.000000
vn 0.799389 -0.153818 -0.580791
vn 0.799389 0.153817 -0.580791
vn 0.988099 0.153817 0.000000
vn 0.799389 -0.153817 0.580791
vn 0.799389 0.153817 0.580791
vn 0.305339 -0.153818 0.939738
vn 0.305339 0.153817 0.939739
vn -0.305339 -0.153818 0.939738
vn -0.305339 0.153817 0.939739
vn -0.799389 -0.153818 0.580790
vn -0.799389 0.153818 0.580791
vn -0.988099 -0.153818 0.000000
vn -0.988099 0.153818 -0.000000
vn -0.799389 -0.153818 -0.580790
vn -0.799389 0.153818 -0.580791
vn -0.305339 -0.153817 -0.939739
vn -0.305339 0.153817 -0.939739
vn 0.305339 -0.153818 -0.939738
vn 0.305339 0.153817 -0.939738
vn 0.057541 -0.997467 -0.041806
vn 0.071124 -0.997468 0.000000
vn 0.000000 -1.000000 -0.000000
vn 0.021979 -0.997467 -0.067643
vn -0.021979 -0.997468 -0.067644
vn -0.057541 -0.997467 -0.041806
vn -0.071124 -0.997467 0.000000
vn -0.057541 -0.997467 0.041806
vn -0.021979 -0.997468 0.067644
vn 0.021979 -0.997468 0.067643
vn 0.057541 -0.997468 0.041806
vn 0.000001 1.000000 -0.000000
vn 0.055045 0.998484 -0.000000
vn 0.044532 0.998484 -0.032355
vn -0.000000 1.000000 -0.000000
vn 0.017010 0.998484 -0.052351
vn -0.017010 0.998484 -0.052351
vn -0.044532 0.998484 -0.032355
vn -0.055045 0.998484 -0.000000
vn -0.044532 0.998484 0.032355
vn -0.017010 0.998484 0.052351
vn 0.017010 0.998484 0.052351
vn 0.044532 0.998484 0.032355
vn 0.808007 -0.049933 0.587053
vn 0.308631 -0.049933 0.949870
vn -0.308631 -0.049933 0.949870
vn -0.808008 -0.049933 0.587052
vn -0.998753 -0.049933 -0.000000
vn -0.808008 -0.049933 -0.587052
vn -0.308631 -0.049933 -0.949870
vn 0.308631 -0.049933 -0.949870
s 1
g Trashcan
usemtl initialShadingGroup
f 79/50/1 1/135/2 2/57/3 80/58/4
f 19/62/5 20/56/6 79/50/1 80/58/4
f 80/104/4 2/105/3 3/106/7 81/107/8
f 18/108/9 19/109/5 80/104/4 81/107/8
f 81/5/8 3/6/7 4/2/10 82/1/11
f 17/12/12 18/13/9 81/5/8 82/1/11
f 82/1/11 4/2/10 5/132/13 83/4/14
f 16/11/15 17/12/12 82/1/11 83/4/14
f 83/4/14 5/132/13 6/133/16 84/10/17
f 15/17/18 16/11/15 83/4/14 84/10/17
f 84/10/17 6/133/16 7/15/19 85/16/20
f 14/21/21 15/17/18 84/10/17 85/16/20
f 85/117/20 7/118/19 8/119/22 86/120/23
f 13/121/24 14/122/21 85/117/20 86/120/23
f 86/46/23 8/47/22 9/43/25 87/42/26
f 12/53/27 13/54/24 86/46/23 87/42/26
f 87/42/26 9/43/25 10/134/28 88/45/29
f 11/52/30 12/53/27 87/42/26 88/45/29
f 79/50/1 88/45/29 10/134/28 1/135/2
f 11/52/30 88/45/29 79/50/1 20/56/6
f 89/59/31 11/52/30 20/56/6 48/63/32
f 59/64/33 89/59/31 48/63/32 77/68/34
f 89/59/31 90/60/35 12/53/27 11/52/30
f 90/60/35 91/61/36 13/54/24 12/53/27
f 91/123/36 92/124/37 14/122/21 13/121/24
f 92/26/37 93/22/38 15/17/18 14/21/21
f 93/22/38 44/18/39 16/11/15 15/17/18
f 44/18/39 45/19/40 17/12/12 16/11/15
f 45/19/40 46/20/41 18/13/9 17/12/12
f 46/110/41 47/111/42 19/109/5 18/108/9
f 47/67/42 48/63/32 20/56/6 19/62/5
f 24/69/43 42/72/44 43/137/45 25/73/46
f 26/70/47 24/69/43 25/73/46 27/138/48
f 28/78/49 26/70/47 27/138/48 29/79/50
f 30/127/51 28/126/49 29/128/50 31/129/52
f 32/31/53 30/39/51 31/40/52 33/141/54
f 34/28/55 32/31/53 33/141/54 35/140/56
f 36/29/57 34/28/55 35/140/56 37/139/58
f 38/37/59 36/29/57 37/139/58 39/38/60
f 40/114/61 38/113/59 39/115/60 41/116/62
f 42/72/44 40/80/61 41/81/62 43/137/45
f 49/55/63 1/51/2 10/44/28 58/49/64
f 21/83/65 49/55/63 58/49/64
f 49/55/63 50/84/66 2/85/3 1/51/2
f 50/84/66 49/55/63 21/83/65
f 50/84/66 51/86/67 3/88/7 2/85/3
f 51/86/67 50/84/66 21/83/65
f 51/86/67 52/7/68 4/92/10 3/88/7
f 52/7/68 51/86/67 21/83/65
f 52/7/68 53/8/69 5/3/13 4/92/10
f 53/8/69 52/7/68 21/83/65
f 53/8/69 54/14/70 6/9/16 5/3/13
f 54/14/70 53/8/69 21/83/65
f 54/14/70 55/91/71 7/93/19 6/9/16
f 55/91/71 54/14/70 21/83/65
f 55/91/71 56/87/72 8/90/22 7/93/19
f 56/87/72 55/91/71 21/83/65
f 56/87/72 57/48/73 9/89/25 8/90/22
f 57/48/73 56/87/72 21/83/65
f 57/48/73 58/49/64 10/44/28 9/89/25
f 58/49/64 57/48/73 21/83/65
f 23/94/74 60/76/75 78/82/76 22/95/77
f 22/95/77 78/82/76 76/96/78
f 22/95/77 76/96/78 74/99/79
f 22/95/77 74/99/79 72/36/80
f 22/95/77 72/36/80 70/35/81
f 22/95/77 70/35/81 68/41/82
f 22/95/77 68/41/82 66/100/83
f 22/95/77 66/100/83 64/97/84
f 22/95/77 64/97/84 62/77/85
f 22/95/77 62/77/85 60/76/75 23/94/74
f 24/69/43 59/64/33 77/68/34 42/72/44
f 25/136/46 60/76/75 62/77/85 27/74/48
f 59/64/33 61/65/86 90/60/35 89/59/31
f 24/69/43 26/70/47 61/65/86 59/64/33
f 27/74/48 62/77/85 64/97/84 29/101/50
f 61/65/86 63/66/87 91/61/36 90/60/35
f 26/70/47 28/78/49 63/66/87 61/65/86
f 29/101/50 64/97/84 66/100/83 31/103/52
f 63/125/87 65/130/88 92/124/37 91/123/36
f 28/126/49 30/127/51 65/130/88 63/125/87
f 31/103/52 66/100/83 68/41/82 33/34/54
f 65/30/88 67/27/89 93/22/38 92/26/37
f 30/39/51 32/31/53 67/27/89 65/30/88
f 33/34/54 68/41/82 70/35/81 35/32/56
f 67/27/89 69/23/90 44/18/39 93/22/38
f 32/31/53 34/28/55 69/23/90 67/27/89
f 35/32/56 70/35/81 72/36/80 37/33/58
f 69/23/90 71/24/91 45/19/40 44/18/39
f 34/28/55 36/29/57 71/24/91 69/23/90
f 37/33/58 72/36/80 74/99/79 39/102/60
f 71/24/91 73/25/92 46/20/41 45/19/40
f 36/29/57 38/37/59 73/25/92 71/24/91
f 39/102/60 74/99/79 76/96/78 41/98/62
f 73/112/92 75/131/93 47/111/42 46/110/41
f 38/113/59 40/114/61 75/131/93 73/112/92
f 41/98/62 76/96/78 78/82/76 43/75/45
f 75/71/93 77/68/34 48/63/32 47/67/42
f 40/80/61 42/72/44 77/68/34 75/71/93
f 25/136/46 43/75/45 78/82/76 60/76/75
