# This file uses centimeters as units for non-parametric coordinates.

mtllib SM_Mall_Trashcan_01.mtl
g default
v -6.512982 -0.908263 -2.089765
v -8.290641 -0.908263 -3.381305
v -10.487949 -0.908263 -3.381308
v -12.265607 -0.908263 -2.089764
v -12.944615 -0.908263 0.000000
v -12.265607 -0.908263 2.089764
v -10.487949 -0.908263 3.381308
v -8.290642 -0.908263 3.381305
v -6.512984 -0.908263 2.089764
v -5.833976 -0.908263 0.000000
v -5.791143 0.839584 0.000000
v -6.478331 0.839584 2.114941
v -8.277405 0.839584 3.422041
v -10.501185 0.839584 3.422045
v -12.300259 0.839584 2.114941
v -12.987448 0.839584 0.000000
v -12.300259 0.839584 -2.114941
v -10.501186 0.839584 -3.422045
v -8.277405 0.839584 -3.422042
v -6.478329 0.839584 -2.114941
v -9.389295 -1.000001 0.000000
v -9.389295 9.916952 0.000000
v -6.430927 9.916950 0.000000
v -5.566270 9.388693 0.000000
v -5.566270 9.841484 0.000000
v -6.296406 9.388693 2.247118
v -6.296406 9.841484 2.247118
v -8.207916 9.388693 3.635908
v -8.207916 9.841484 3.635908
v -10.570675 9.388693 3.635911
v -10.570675 9.841484 3.635912
v -12.482185 9.388693 2.247118
v -12.482185 9.841484 2.247118
v -13.212321 9.388693 0.000000
v -13.212321 9.841484 0.000000
v -12.482185 9.388693 -2.247118
v -12.482185 9.841484 -2.247118
v -10.570676 9.388693 -3.635912
v -10.570676 9.841484 -3.635912
v -8.207915 9.388693 -3.635909
v -8.207915 9.841484 -3.635909
v -6.296404 9.388693 -2.247118
v -6.296404 9.841484 -2.247118
v -12.987448 4.523568 0.000000
v -12.300259 4.523568 -2.114941
v -10.501186 4.523568 -3.422045
v -8.277405 4.523568 -3.422042
v -6.478330 4.523568 -2.114941
v -6.616940 -1.000002 -2.014235
v -8.330349 -1.000002 -3.259096
v -10.448241 -1.000002 -3.259099
v -12.161650 -1.000002 -2.014235
v -12.816116 -1.000002 0.000000
v -12.161650 -1.000002 2.014235
v -10.448241 -1.000002 3.259099
v -8.330350 -1.000002 3.259095
v -6.616942 -1.000002 2.014235
v -5.962474 -1.000002 0.000000
v -5.662644 9.313228 0.000000
v -5.662643 9.916948 0.000000
v -6.374374 9.313228 2.190470
v -6.374374 9.916948 2.190470
v -8.237696 9.313228 3.544251
v -8.237696 9.916948 3.544251
v -10.540893 9.313228 3.544254
v -10.540893 9.916948 3.544254
v -12.404217 9.313228 2.190471
v -12.404217 9.916948 2.190471
v -13.115947 9.313228 0.000000
v -13.115947 9.916948 0.000000
v -12.404217 9.313228 -2.190471
v -12.404217 9.916948 -2.190471
v -10.540894 9.313228 -3.544255
v -10.540894 9.916948 -3.544255
v -8.237696 9.313228 -3.544251
v -8.237696 9.916948 -3.544251
v -6.374372 9.313228 -2.190471
v -6.374372 9.916948 -2.190471
v -6.478330 -0.633047 -2.114941
v -8.277405 -0.633047 -3.422042
v -10.501186 -0.633047 -3.422045
v -12.300259 -0.633047 -2.114941
v -12.987448 -0.633047 0.000000
v -12.300259 -0.633047 2.114941
v -10.501185 -0.633047 3.422045
v -8.277406 -0.633047 3.422041
v -6.478331 -0.633047 2.114941
v -5.791142 -0.633047 0.000000
v -5.791142 4.523568 0.000000
v -6.478331 4.523568 2.114941
v -8.277405 4.523568 3.422041
v -10.501185 4.523568 3.422045
v -12.300259 4.523568 2.114941
vt 0.322673 0.070283
vt 0.322372 0.058230
vt 0.378496 0.060795
vt 0.378493 0.072893
vt 0.375293 0.137368
vt 0.318420 0.134393
vt 0.474963 0.063991
vt 0.474165 0.076063
vt 0.473091 0.140608
vt 0.531134 0.065146
vt 0.530036 0.077153
vt 0.530036 0.141404
vt 0.622310 0.076841
vt 0.622310 0.077153
vt 0.622310 0.141404
vt 0.713486 0.065146
vt 0.714585 0.077153
vt 0.714585 0.141404
vt 0.769657 0.063992
vt 0.770455 0.076063
vt 0.771529 0.140609
vt 0.866226 0.059632
vt 0.867209 0.071730
vt 0.869357 0.136570
vt 0.081625 0.054294
vt 0.084193 0.042431
vt 0.140419 0.046160
vt 0.138529 0.058068
vt 0.134276 0.122179
vt 0.077372 0.118404
vt 0.232240 0.039464
vt 0.230601 0.064176
vt 0.226348 0.128286
vt 0.215710 0.288665
vt 0.307782 0.294772
vt 0.201879 0.497179
vt 0.296621 0.503619
vt 0.123638 0.282558
vt 0.066734 0.278783
vt 0.874731 0.298774
vt 0.774216 0.302076
vt 0.714585 0.302135
vt 0.622310 0.302135
vt 0.530036 0.302135
vt 0.470404 0.302076
vt 0.367287 0.298660
vt 0.201661 0.500465
vt 0.296180 0.506680
vt 0.298179 0.526665
vt 0.201338 0.505323
vt 0.107148 0.494141
vt 0.102527 0.513687
vt 0.040746 0.489582
vt 0.042067 0.509677
vt 0.782224 0.515261
vt 0.884887 0.512883
vt 0.885548 0.532819
vt 0.781230 0.535210
vt 0.717033 0.514346
vt 0.720351 0.534155
vt 0.622310 0.514400
vt 0.622310 0.547977
vt 0.527587 0.514346
vt 0.524269 0.534155
vt 0.462396 0.515261
vt 0.463390 0.535211
vt 0.361167 0.511907
vt 0.358855 0.531748
vt 0.297567 0.566398
vt 0.294137 0.561966
vt 0.389022 0.545715
vt 0.389022 0.552121
vt 0.389022 0.690950
vt 0.246829 0.644749
vt 0.241497 0.643016
vt 0.246829 0.737152
vt 0.241497 0.738884
vt 0.297567 0.815502
vt 0.294137 0.819934
vt 0.389022 0.829780
vt 0.389022 0.835122
vt 0.480478 0.815503
vt 0.483907 0.819935
vt 0.531216 0.737152
vt 0.536548 0.738884
vt 0.531216 0.644749
vt 0.536548 0.643016
vt 0.480478 0.566398
vt 0.483907 0.561966
vt 0.701317 0.574959
vt 0.701317 0.553079
vt 0.797908 0.568605
vt 0.701317 0.704032
vt 0.855952 0.653788
vt 0.855953 0.754276
vt 0.797907 0.839459
vt 0.701317 0.854985
vt 0.604728 0.839458
vt 0.546682 0.754276
vt 0.546683 0.653788
vt 0.604727 0.568605
vt 0.701317 0.546470
vt 0.602229 0.565223
vt 0.107115 0.491048
vt 0.542684 0.652488
vt 0.042388 0.486604
vt 0.542683 0.755575
vt 0.883466 0.509604
vt 0.782104 0.512038
vt 0.602230 0.842841
vt 0.717271 0.511262
vt 0.701317 0.860530
vt 0.622310 0.511107
vt 0.800405 0.842841
vt 0.527349 0.511262
vt 0.859951 0.755575
vt 0.462516 0.512038
vt 0.859951 0.652488
vt 0.361261 0.508683
vt 0.800406 0.565222
vn 0.808789 -0.023751 -0.587620
vn 0.746905 -0.384257 -0.542659
vn 0.285292 -0.384257 -0.878040
vn 0.308929 -0.023751 -0.950788
vn 0.309017 0.000000 -0.951057
vn 0.809017 0.000000 -0.587786
vn 0.808789 -0.023751 -0.587620
vn 0.308929 -0.023751 -0.950788
vn 0.308929 -0.023751 -0.950788
vn 0.285292 -0.384257 -0.878040
vn -0.285291 -0.384258 -0.878040
vn -0.308929 -0.023751 -0.950788
vn -0.309016 0.000000 -0.951057
vn 0.309017 0.000000 -0.951057
vn 0.308929 -0.023751 -0.950788
vn -0.308929 -0.023751 -0.950788
vn -0.308929 -0.023751 -0.950788
vn -0.285291 -0.384258 -0.878040
vn -0.746905 -0.384257 -0.542659
vn -0.808789 -0.023751 -0.587619
vn -0.809017 0.000000 -0.587785
vn -0.309016 0.000000 -0.951057
vn -0.308929 -0.023751 -0.950788
vn -0.808789 -0.023751 -0.587619
vn -0.808789 -0.023751 -0.587619
vn -0.746905 -0.384257 -0.542659
vn -0.923226 -0.384257 0.000000
vn -0.999718 -0.023751 0.000000
vn -1.000000 0.000000 0.000000
vn -0.809017 0.000000 -0.587785
vn -0.808789 -0.023751 -0.587619
vn -0.999718 -0.023751 0.000000
vn -0.999718 -0.023751 0.000000
vn -0.923226 -0.384257 0.000000
vn -0.746905 -0.384257 0.542659
vn -0.808789 -0.023751 0.587620
vn -0.809017 0.000000 0.587786
vn -1.000000 0.000000 0.000000
vn -0.999718 -0.023751 0.000000
vn -0.808789 -0.023751 0.587620
vn -0.808789 -0.023751 0.587620
vn -0.746905 -0.384257 0.542659
vn -0.285292 -0.384257 0.878040
vn -0.308929 -0.023751 0.950789
vn -0.309016 0.000000 0.951057
vn -0.809017 0.000000 0.587786
vn -0.808789 -0.023751 0.587620
vn -0.308929 -0.023751 0.950789
vn -0.308929 -0.023751 0.950789
vn -0.285292 -0.384257 0.878040
vn 0.285292 -0.384257 0.878040
vn 0.308930 -0.023751 0.950788
vn 0.309017 -0.000000 0.951057
vn -0.309016 0.000000 0.951057
vn -0.308929 -0.023751 0.950789
vn 0.308930 -0.023751 0.950788
vn 0.308930 -0.023751 0.950788
vn 0.285292 -0.384257 0.878040
vn 0.746905 -0.384257 0.542659
vn 0.808788 -0.023751 0.587620
vn 0.809017 -0.000000 0.587786
vn 0.309017 -0.000000 0.951057
vn 0.308930 -0.023751 0.950788
vn 0.808788 -0.023751 0.587620
vn 0.808788 -0.023751 0.587620
vn 0.746905 -0.384257 0.542659
vn 0.923226 -0.384257 0.000000
vn 0.999718 -0.023751 0.000000
vn 1.000000 -0.000000 0.000000
vn 0.809017 -0.000000 0.587786
vn 0.808788 -0.023751 0.587620
vn 0.999718 -0.023751 0.000000
vn 0.808789 -0.023751 -0.587620
vn 0.999718 -0.023751 0.000000
vn 0.923226 -0.384257 0.000000
vn 0.746905 -0.384257 -0.542659
vn 1.000000 -0.000000 0.000000
vn 0.999718 -0.023751 0.000000
vn 0.808789 -0.023751 -0.587620
vn 0.809017 0.000000 -0.587786
vn 0.999883 -0.015314 0.000000
vn 1.000000 -0.000000 0.000000
vn 0.809017 0.000000 -0.587786
vn 0.808922 -0.015314 -0.587717
vn 0.998753 -0.049933 0.000000
vn 0.999883 -0.015314 0.000000
vn 0.808922 -0.015314 -0.587717
vn 0.808007 -0.049933 -0.587053
vn 0.999883 -0.015314 0.000000
vn 0.808922 -0.015314 0.587717
vn 0.809017 -0.000000 0.587786
vn 1.000000 -0.000000 0.000000
vn 0.808922 -0.015314 0.587717
vn 0.308981 -0.015314 0.950945
vn 0.309017 -0.000000 0.951057
vn 0.809017 -0.000000 0.587786
vn 0.308981 -0.015314 0.950945
vn -0.308980 -0.015314 0.950945
vn -0.309016 0.000000 0.951057
vn 0.309017 -0.000000 0.951057
vn -0.308980 -0.015314 0.950945
vn -0.808922 -0.015314 0.587717
vn -0.809017 0.000000 0.587786
vn -0.309016 0.000000 0.951057
vn -0.808922 -0.015314 0.587717
vn -0.999883 -0.015314 0.000000
vn -1.000000 0.000000 0.000000
vn -0.809017 0.000000 0.587786
vn -0.999883 -0.015314 0.000000
vn -0.808922 -0.015314 -0.587716
vn -0.809017 0.000000 -0.587785
vn -1.000000 0.000000 0.000000
vn -0.808922 -0.015314 -0.587716
vn -0.308980 -0.015314 -0.950945
vn -0.309016 0.000000 -0.951057
vn -0.809017 0.000000 -0.587785
vn -0.308980 -0.015314 -0.950945
vn 0.308980 -0.015314 -0.950945
vn 0.309017 0.000000 -0.951057
vn -0.309016 0.000000 -0.951057
vn 0.308980 -0.015314 -0.950945
vn 0.808922 -0.015314 -0.587717
vn 0.809017 0.000000 -0.587786
vn 0.309017 0.000000 -0.951057
vn 0.988099 -0.153817 0.000000
vn 0.799389 -0.153818 -0.580791
vn 0.799389 0.153817 -0.580791
vn 0.988099 0.153817 0.000000
vn 0.799389 -0.153817 0.580791
vn 0.988099 -0.153817 0.000000
vn 0.988099 0.153817 0.000000
vn 0.799389 0.153817 0.580791
vn 0.305339 -0.153818 0.939738
vn 0.799389 -0.153817 0.580791
vn 0.799389 0.153817 0.580791
vn 0.305339 0.153817 0.939739
vn -0.305339 -0.153818 0.939738
vn 0.305339 -0.153818 0.939738
vn 0.305339 0.153817 0.939739
vn -0.305339 0.153817 0.939739
vn -0.799389 -0.153818 0.580790
vn -0.305339 -0.153818 0.939738
vn -0.305339 0.153817 0.939739
vn -0.799389 0.153818 0.580791
vn -0.988099 -0.153818 0.000000
vn -0.799389 -0.153818 0.580790
vn -0.799389 0.153818 0.580791
vn -0.988099 0.153818 -0.000000
vn -0.799389 -0.153818 -0.580790
vn -0.988099 -0.153818 0.000000
vn -0.988099 0.153818 -0.000000
vn -0.799389 0.153818 -0.580791
vn -0.305339 -0.153817 -0.939739
vn -0.799389 -0.153818 -0.580790
vn -0.799389 0.153818 -0.580791
vn -0.305339 0.153817 -0.939739
vn 0.305339 -0.153818 -0.939738
vn -0.305339 -0.153817 -0.939739
vn -0.305339 0.153817 -0.939739
vn 0.305339 0.153817 -0.939738
vn 0.799389 -0.153818 -0.580791
vn 0.305339 -0.153818 -0.939738
vn 0.305339 0.153817 -0.939738
vn 0.799389 0.153817 -0.580791
vn 0.057541 -0.997467 -0.041806
vn 0.746905 -0.384257 -0.542659
vn 0.923226 -0.384257 0.000000
vn 0.071124 -0.997468 0.000000
vn 0.000000 -1.000000 0.000000
vn 0.057541 -0.997467 -0.041806
vn 0.071124 -0.997468 0.000000
vn 0.057541 -0.997467 -0.041806
vn 0.021979 -0.997467 -0.067643
vn 0.285292 -0.384257 -0.878040
vn 0.746905 -0.384257 -0.542659
vn 0.021979 -0.997467 -0.067643
vn 0.057541 -0.997467 -0.041806
vn 0.000000 -1.000000 0.000000
vn 0.021979 -0.997467 -0.067643
vn -0.021979 -0.997467 -0.067644
vn -0.285291 -0.384258 -0.878040
vn 0.285292 -0.384257 -0.878040
vn -0.021979 -0.997467 -0.067644
vn 0.021979 -0.997467 -0.067643
vn 0.000000 -1.000000 0.000000
vn -0.021979 -0.997467 -0.067644
vn -0.057541 -0.997467 -0.041806
vn -0.746905 -0.384257 -0.542659
vn -0.285291 -0.384258 -0.878040
vn -0.057541 -0.997467 -0.041806
vn -0.021979 -0.997467 -0.067644
vn 0.000000 -1.000000 0.000000
vn -0.057541 -0.997467 -0.041806
vn -0.071124 -0.997467 0.000000
vn -0.923226 -0.384257 0.000000
vn -0.746905 -0.384257 -0.542659
vn -0.071124 -0.997467 0.000000
vn -0.057541 -0.997467 -0.041806
vn 0.000000 -1.000000 0.000000
vn -0.071124 -0.997467 0.000000
vn -0.057541 -0.997467 0.041806
vn -0.746905 -0.384257 0.542659
vn -0.923226 -0.384257 0.000000
vn -0.057541 -0.997467 0.041806
vn -0.071124 -0.997467 0.000000
vn 0.000000 -1.000000 0.000000
vn -0.057541 -0.997467 0.041806
vn -0.021979 -0.997467 0.067644
vn -0.285292 -0.384257 0.878040
vn -0.746905 -0.384257 0.542659
vn -0.021979 -0.997467 0.067644
vn -0.057541 -0.997467 0.041806
vn 0.000000 -1.000000 0.000000
vn -0.021979 -0.997467 0.067644
vn 0.021979 -0.997468 0.067643
vn 0.285292 -0.384257 0.878040
vn -0.285292 -0.384257 0.878040
vn 0.021979 -0.997468 0.067643
vn -0.021979 -0.997467 0.067644
vn 0.000000 -1.000000 0.000000
vn 0.021979 -0.997468 0.067643
vn 0.057541 -0.997468 0.041806
vn 0.746905 -0.384257 0.542659
vn 0.285292 -0.384257 0.878040
vn 0.057541 -0.997468 0.041806
vn 0.021979 -0.997468 0.067643
vn 0.000000 -1.000000 0.000000
vn 0.057541 -0.997468 0.041806
vn 0.071124 -0.997468 0.000000
vn 0.923226 -0.384257 0.000000
vn 0.746905 -0.384257 0.542659
vn 0.071124 -0.997468 0.000000
vn 0.057541 -0.997468 0.041806
vn 0.000000 -1.000000 0.000000
vn 0.000001 1.000000 0.000000
vn 0.055045 0.998484 0.000000
vn 0.044532 0.998484 -0.032355
vn -0.000000 1.000000 -0.000000
vn -0.000000 1.000000 -0.000000
vn 0.044532 0.998484 -0.032355
vn 0.017010 0.998484 -0.052351
vn -0.000000 1.000000 -0.000000
vn 0.017010 0.998484 -0.052351
vn -0.017010 0.998484 -0.052351
vn -0.000000 1.000000 -0.000000
vn -0.017010 0.998484 -0.052351
vn -0.044532 0.998484 -0.032355
vn -0.000000 1.000000 -0.000000
vn -0.044532 0.998484 -0.032355
vn -0.055045 0.998484 -0.000000
vn -0.000000 1.000000 -0.000000
vn -0.055045 0.998484 -0.000000
vn -0.044532 0.998484 0.032355
vn -0.000000 1.000000 -0.000000
vn -0.044532 0.998484 0.032355
vn -0.017010 0.998484 0.052351
vn -0.000000 1.000000 -0.000000
vn -0.017010 0.998484 0.052351
vn 0.017010 0.998484 0.052351
vn -0.000000 1.000000 -0.000000
vn 0.017010 0.998484 0.052351
vn 0.044532 0.998484 0.032355
vn -0.000000 1.000000 -0.000000
vn 0.044532 0.998484 0.032355
vn 0.055045 0.998484 0.000000
vn 0.000001 1.000000 0.000000
vn 0.988099 -0.153817 0.000000
vn 0.998753 -0.049933 0.000000
vn 0.808007 -0.049933 -0.587053
vn 0.799389 -0.153818 -0.580791
vn 0.988099 0.153817 0.000000
vn 0.055045 0.998484 0.000000
vn 0.044532 0.998484 0.032355
vn 0.799389 0.153817 0.580791
vn 0.998753 -0.049933 0.000000
vn 0.808007 -0.049933 0.587053
vn 0.808922 -0.015314 0.587717
vn 0.999883 -0.015314 0.000000
vn 0.988099 -0.153817 0.000000
vn 0.799389 -0.153817 0.580791
vn 0.808007 -0.049933 0.587053
vn 0.998753 -0.049933 0.000000
vn 0.799389 0.153817 0.580791
vn 0.044532 0.998484 0.032355
vn 0.017010 0.998484 0.052351
vn 0.305339 0.153817 0.939739
vn 0.808007 -0.049933 0.587053
vn 0.308631 -0.049933 0.949870
vn 0.308981 -0.015314 0.950945
vn 0.808922 -0.015314 0.587717
vn 0.799389 -0.153817 0.580791
vn 0.305339 -0.153818 0.939738
vn 0.308631 -0.049933 0.949870
vn 0.808007 -0.049933 0.587053
vn 0.305339 0.153817 0.939739
vn 0.017010 0.998484 0.052351
vn -0.017010 0.998484 0.052351
vn -0.305339 0.153817 0.939739
vn 0.308631 -0.049933 0.949870
vn -0.308631 -0.049933 0.949870
vn -0.308980 -0.015314 0.950945
vn 0.308981 -0.015314 0.950945
vn 0.305339 -0.153818 0.939738
vn -0.305339 -0.153818 0.939738
vn -0.308631 -0.049933 0.949870
vn 0.308631 -0.049933 0.949870
vn -0.305339 0.153817 0.939739
vn -0.017010 0.998484 0.052351
vn -0.044532 0.998484 0.032355
vn -0.799389 0.153818 0.580791
vn -0.308631 -0.049933 0.949870
vn -0.808008 -0.049933 0.587052
vn -0.808922 -0.015314 0.587717
vn -0.308980 -0.015314 0.950945
vn -0.305339 -0.153818 0.939738
vn -0.799389 -0.153818 0.580790
vn -0.808008 -0.049933 0.587052
vn -0.308631 -0.049933 0.949870
vn -0.799389 0.153818 0.580791
vn -0.044532 0.998484 0.032355
vn -0.055045 0.998484 -0.000000
vn -0.988099 0.153818 -0.000000
vn -0.808008 -0.049933 0.587052
vn -0.998753 -0.049933 0.000000
vn -0.999883 -0.015314 0.000000
vn -0.808922 -0.015314 0.587717
vn -0.799389 -0.153818 0.580790
vn -0.988099 -0.153818 0.000000
vn -0.998753 -0.049933 0.000000
vn -0.808008 -0.049933 0.587052
vn -0.988099 0.153818 -0.000000
vn -0.055045 0.998484 -0.000000
vn -0.044532 0.998484 -0.032355
vn -0.799389 0.153818 -0.580791
vn -0.998753 -0.049933 0.000000
vn -0.808008 -0.049933 -0.587052
vn -0.808922 -0.015314 -0.587716
vn -0.999883 -0.015314 0.000000
vn -0.988099 -0.153818 0.000000
vn -0.799389 -0.153818 -0.580790
vn -0.808008 -0.049933 -0.587052
vn -0.998753 -0.049933 0.000000
vn -0.799389 0.153818 -0.580791
vn -0.044532 0.998484 -0.032355
vn -0.017010 0.998484 -0.052351
vn -0.305339 0.153817 -0.939739
vn -0.808008 -0.049933 -0.587052
vn -0.308631 -0.049933 -0.949870
vn -0.308980 -0.015314 -0.950945
vn -0.808922 -0.015314 -0.587716
vn -0.799389 -0.153818 -0.580790
vn -0.305339 -0.153817 -0.939739
vn -0.308631 -0.049933 -0.949870
vn -0.808008 -0.049933 -0.587052
vn -0.305339 0.153817 -0.939739
vn -0.017010 0.998484 -0.052351
vn 0.017010 0.998484 -0.052351
vn 0.305339 0.153817 -0.939738
vn -0.308631 -0.049933 -0.949870
vn 0.308631 -0.049933 -0.949870
vn 0.308980 -0.015314 -0.950945
vn -0.308980 -0.015314 -0.950945
vn -0.305339 -0.153817 -0.939739
vn 0.305339 -0.153818 -0.939738
vn 0.308631 -0.049933 -0.949870
vn -0.308631 -0.049933 -0.949870
vn 0.305339 0.153817 -0.939738
vn 0.017010 0.998484 -0.052351
vn 0.044532 0.998484 -0.032355
vn 0.799389 0.153817 -0.580791
vn 0.308631 -0.049933 -0.949870
vn 0.808007 -0.049933 -0.587053
vn 0.808922 -0.015314 -0.587717
vn 0.308980 -0.015314 -0.950945
vn 0.305339 -0.153818 -0.939738
vn 0.799389 -0.153818 -0.580791
vn 0.808007 -0.049933 -0.587053
vn 0.308631 -0.049933 -0.949870
vn 0.988099 0.153817 0.000000
vn 0.799389 0.153817 -0.580791
vn 0.044532 0.998484 -0.032355
vn 0.055045 0.998484 0.000000
s off
g SM_Mall_Trashcan_01:Trashcan
usemtl SM_Mall_Trashcan_01:initialShadingGroup
f 79/1/1 1/2/2 2/3/3 80/4/4
f 19/5/5 20/6/6 79/1/7 80/4/8
f 80/4/9 2/3/10 3/7/11 81/8/12
f 18/9/13 19/5/14 80/4/15 81/8/16
f 81/8/17 3/7/18 4/10/19 82/11/20
f 17/12/21 18/9/22 81/8/23 82/11/24
f 82/11/25 4/10/26 5/13/27 83/14/28
f 16/15/29 17/12/30 82/11/31 83/14/32
f 83/14/33 5/13/34 6/16/35 84/17/36
f 15/18/37 16/15/38 83/14/39 84/17/40
f 84/17/41 6/16/42 7/19/43 85/20/44
f 14/21/45 15/18/46 84/17/47 85/20/48
f 85/20/49 7/19/50 8/22/51 86/23/52
f 13/24/53 14/21/54 85/20/55 86/23/56
f 86/25/57 8/26/58 9/27/59 87/28/60
f 12/29/61 13/30/62 86/25/63 87/28/64
f 87/28/65 9/27/66 10/31/67 88/32/68
f 11/33/69 12/29/70 87/28/71 88/32/72
f 79/1/73 88/32/74 10/31/75 1/2/76
f 11/33/77 88/32/78 79/1/79 20/6/80
f 89/34/81 11/33/82 20/6/83 48/35/84
f 59/36/85 89/34/86 48/35/87 77/37/88
f 89/34/89 90/38/90 12/29/91 11/33/92
f 90/38/93 91/39/94 13/30/95 12/29/96
f 91/40/97 92/41/98 14/21/99 13/24/100
f 92/41/101 93/42/102 15/18/103 14/21/104
f 93/42/105 44/43/106 16/15/107 15/18/108
f 44/43/109 45/44/110 17/12/111 16/15/112
f 45/44/113 46/45/114 18/9/115 17/12/116
f 46/45/117 47/46/118 19/5/119 18/9/120
f 47/46/121 48/35/122 20/6/123 19/5/124
f 24/47/125 42/48/126 43/49/127 25/50/128
f 26/51/129 24/47/130 25/50/131 27/52/132
f 28/53/133 26/51/134 27/52/135 29/54/136
f 30/55/137 28/56/138 29/57/139 31/58/140
f 32/59/141 30/55/142 31/58/143 33/60/144
f 34/61/145 32/59/146 33/60/147 35/62/148
f 36/63/149 34/61/150 35/62/151 37/64/152
f 38/65/153 36/63/154 37/64/155 39/66/156
f 40/67/157 38/65/158 39/66/159 41/68/160
f 42/48/161 40/67/162 41/68/163 43/49/164
f 49/69/165 1/70/166 10/71/167 58/72/168
f 21/73/169 49/69/170 58/72/171
f 49/69/172 50/74/173 2/75/174 1/70/175
f 50/74/176 49/69/177 21/73/178
f 50/74/179 51/76/180 3/77/181 2/75/182
f 51/76/183 50/74/184 21/73/185
f 51/76/186 52/78/187 4/79/188 3/77/189
f 52/78/190 51/76/191 21/73/192
f 52/78/193 53/80/194 5/81/195 4/79/196
f 53/80/197 52/78/198 21/73/199
f 53/80/200 54/82/201 6/83/202 5/81/203
f 54/82/204 53/80/205 21/73/206
f 54/82/207 55/84/208 7/85/209 6/83/210
f 55/84/211 54/82/212 21/73/213
f 55/84/214 56/86/215 8/87/216 7/85/217
f 56/86/218 55/84/219 21/73/220
f 56/86/221 57/88/222 9/89/223 8/87/224
f 57/88/225 56/86/226 21/73/227
f 57/88/228 58/72/229 10/71/230 9/89/231
f 58/72/232 57/88/233 21/73/234
f 23/90/235 60/91/236 78/92/237 22/93/238
f 22/93/239 78/92/240 76/94/241
f 22/93/242 76/94/243 74/95/244
f 22/93/245 74/95/246 72/96/247
f 22/93/248 72/96/249 70/97/250
f 22/93/251 70/97/252 68/98/253
f 22/93/254 68/98/255 66/99/256
f 22/93/257 66/99/258 64/100/259
f 22/93/260 64/100/261 62/101/262
f 22/93/263 62/101/264 60/91/265 23/90/266
f 24/47/267 59/36/268 77/37/269 42/48/270
f 25/102/271 60/91/272 62/101/273 27/103/274
f 59/36/275 61/104/276 90/38/277 89/34/278
f 24/47/279 26/51/280 61/104/281 59/36/282
f 27/103/283 62/101/284 64/100/285 29/105/286
f 61/104/287 63/106/288 91/39/289 90/38/290
f 26/51/291 28/53/292 63/106/293 61/104/294
f 29/105/295 64/100/296 66/99/297 31/107/298
f 63/108/299 65/109/300 92/41/301 91/40/302
f 28/56/303 30/55/304 65/109/305 63/108/306
f 31/107/307 66/99/308 68/98/309 33/110/310
f 65/109/311 67/111/312 93/42/313 92/41/314
f 30/55/315 32/59/316 67/111/317 65/109/318
f 33/110/319 68/98/320 70/97/321 35/112/322
f 67/111/323 69/113/324 44/43/325 93/42/326
f 32/59/327 34/61/328 69/113/329 67/111/330
f 35/112/331 70/97/332 72/96/333 37/114/334
f 69/113/335 71/115/336 45/44/337 44/43/338
f 34/61/339 36/63/340 71/115/341 69/113/342
f 37/114/343 72/96/344 74/95/345 39/116/346
f 71/115/347 73/117/348 46/45/349 45/44/350
f 36/63/351 38/65/352 73/117/353 71/115/354
f 39/116/355 74/95/356 76/94/357 41/118/358
f 73/117/359 75/119/360 47/46/361 46/45/362
f 38/65/363 40/67/364 75/119/365 73/117/366
f 41/118/367 76/94/368 78/92/369 43/120/370
f 75/119/371 77/37/372 48/35/373 47/46/374
f 40/67/375 42/48/376 77/37/377 75/119/378
f 25/102/379 43/120/380 78/92/381 60/91/382
