# This file uses centimeters as units for non-parametric coordinates.

mtllib SM_Mall_Stool_01.mtl
g default
v -5.346573 8.711570 -0.522638
v -5.837072 8.711570 -0.805838
v -6.375770 8.726216 -0.692732
v -6.742488 8.713217 -0.283378
v -6.742512 8.713217 0.283000
v -6.375770 8.726216 0.692732
v -5.837739 8.714633 0.805696
v -5.347171 8.714633 0.522405
v -5.175923 8.726216 0.000000
v -4.778543 8.711570 -1.013164
v -5.696139 8.711570 -1.542948
v -6.730750 8.726216 -1.307576
v -7.451192 8.713217 -0.529966
v -7.451216 8.713217 0.529587
v -6.730750 8.726216 1.307576
v -5.696820 8.714633 1.542826
v -4.779146 8.714633 1.012946
v -4.465963 8.726216 0.000000
v -4.218187 8.762636 -1.474829
v -5.577398 8.762636 -2.259570
v -7.123034 8.762636 -1.987032
v -8.131877 8.762636 -0.784741
v -8.131878 8.762636 0.784740
v -7.123035 8.762636 1.987032
v -5.577398 8.762636 2.259570
v -4.218188 8.762636 1.474829
v -3.681394 8.762636 0.000000
v -4.247904 9.606053 -1.449894
v -5.584134 9.606053 -2.221367
v -7.103638 9.606053 -1.953437
v -8.095424 9.606053 -0.771473
v -8.095425 9.606053 0.771472
v -7.103638 9.606053 1.953437
v -5.584134 9.606053 2.221366
v -4.247904 9.606053 1.449894
v -3.720186 9.606053 0.000000
v -4.773792 9.895566 -1.008622
v -5.703343 9.895566 -1.545299
v -6.760389 9.895566 -1.358913
v -7.450328 9.895566 -0.536677
v -7.450328 9.895566 0.536676
v -6.760389 9.895566 1.358913
v -5.703343 9.895566 1.545298
v -4.773792 9.895566 1.008622
v -4.406684 9.895566 0.000000
v -5.363063 9.902596 -0.514165
v -5.836920 9.902596 -0.787746
v -6.375770 9.902596 -0.692732
v -6.727480 9.902596 -0.273581
v -6.727480 9.902596 0.273581
v -6.375770 9.902596 0.692732
v -5.836920 9.902596 0.787746
v -5.363063 9.902596 0.514165
v -5.175923 9.902596 0.000000
v -5.975821 8.726216 -0.000000
v -5.975821 9.662782 -0.000000
v -3.910924 0.098218 -2.821596
v -4.109648 0.098218 -2.940565
v -3.921987 0.098218 -3.310123
v -3.623870 0.098218 -3.133770
v -9.387753 0.071225 -0.228482
v -9.399836 0.071225 -0.023330
v -9.752524 0.071225 0.034011
v -9.740441 0.071225 -0.285823
v -4.190796 0.117680 3.353272
v -3.994418 0.117680 3.206815
v -3.707399 0.117680 3.519083
v -4.003222 0.117680 3.722955
v -5.734476 8.634679 -0.908833
v -5.304754 8.634679 -0.660672
v -5.563832 8.634679 -1.488105
v -4.887537 8.634679 -1.097584
v -6.880071 8.644971 0.246912
v -6.879918 8.644971 -0.249276
v -7.466314 8.644971 0.389288
v -7.466160 8.644971 -0.391652
v -5.308493 8.653817 0.659217
v -5.738647 8.653817 0.907945
v -4.891309 8.653817 1.096222
v -5.568088 8.653817 1.487339
v -4.276076 0.301719 3.254569
v -4.068015 0.301719 3.780226
v -3.620449 0.301719 3.477858
v -4.052261 0.301719 3.081386
v -9.288201 0.197193 -0.238256
v -9.765499 0.197193 -0.367274
v -9.781640 0.197193 0.119127
v -9.304342 0.197193 -0.009891
v -3.966104 0.257927 -2.715243
v -3.534214 0.257927 -3.111504
v -3.984346 0.257927 -3.377028
v -4.192603 0.257927 -2.851653
v -4.048611 0.042319 -3.163823
v -3.715208 0.042319 -2.965564
v -6.564248 8.726216 -1.019185
v -5.859660 8.703332 -1.217593
v -7.087354 8.705905 -0.509230
v -9.590678 0.027135 0.049629
v -9.574251 0.027135 -0.302723
v -6.564248 8.726216 1.019184
v -7.087406 8.705905 0.508639
v -5.860733 8.708116 1.217410
v -3.798408 0.053267 3.350937
v -4.128340 0.053267 3.586540
v -4.798968 8.726216 0.000000
v -4.979081 8.708116 0.708262
v -4.978161 8.703332 -0.708639
v -5.567104 8.871895 -2.317948
v -4.172777 8.871895 -1.512933
v -7.152674 8.871895 -2.038369
v -8.187581 8.871895 -0.805015
v -8.187581 8.871895 0.805015
v -7.152674 8.871895 2.038369
v -5.567104 8.871895 2.317948
v -4.172778 8.871895 1.512933
v -3.622115 8.871895 0.000000
v -5.567104 9.454611 -2.317948
v -4.172777 9.454611 -1.512933
v -7.152674 9.454611 -2.038369
v -8.187581 9.454611 -0.805015
v -8.187581 9.454611 0.805015
v -7.152674 9.454611 2.038369
v -5.567104 9.454611 2.317948
v -4.172778 9.454611 1.512933
v -3.622115 9.454611 0.000000
v -5.741322 8.634679 -1.251692
v -5.003977 8.634679 -0.825905
v -7.173218 8.644971 0.424527
v -7.173013 8.644971 -0.426891
v -5.007656 8.653817 0.824399
v -5.745612 8.653817 1.250962
v -4.227994 0.301720 3.557027
v -3.780406 0.301720 3.239993
v -9.524160 0.197193 -0.362329
v -9.545681 0.197193 0.114182
v -3.693773 0.257928 -2.879879
v -4.144860 0.257928 -3.147835
vt 0.698245 0.121561
vt 0.063777 0.997470
vt 0.667865 0.104021
vt 0.055039 0.998008
vt 0.634347 0.111893
vt 0.610770 0.136985
vt 0.161219 0.002639
vt 0.610770 0.172065
vt 0.172380 0.003208
vt 0.634347 0.197157
vt 0.667865 0.205029
vt 0.223503 0.995191
vt 0.698245 0.187489
vt 0.214773 0.994861
vt 0.708187 0.154525
vt 0.737530 0.088597
vt 0.076247 0.996553
vt 0.676771 0.053517
vt 0.095581 0.996197
vt 0.039875 0.997838
vt 0.612501 0.074055
vt 0.562580 0.119445
vt 0.145886 0.002641
vt 0.209922 0.006356
vt 0.562580 0.189605
vt 0.187624 0.004859
vt 0.612501 0.234995
vt 0.676771 0.255533
vt 0.238633 0.994578
vt 0.182957 0.994216
vt 0.737530 0.220453
vt 0.202290 0.994216
vt 0.751879 0.154525
vt 0.262646 0.002297
vt 0.508805 0.002297
vt 0.776816 0.055633
vt 0.289997 0.002297
vt 0.685676 0.003013
vt 0.317348 0.002297
vt 0.582036 0.021288
vt 0.344699 0.002297
vt 0.514389 0.101905
vt 0.372050 0.002297
vt 0.514389 0.207144
vt 0.399401 0.002297
vt 0.582036 0.287762
vt 0.426752 0.002297
vt 0.685676 0.306037
vt 0.454103 0.002297
vt 0.776816 0.253417
vt 0.481454 0.002297
vt 0.812809 0.154525
vt 0.262646 0.371535
vt 0.889102 0.540965
vt 0.508805 0.371535
vt 0.289997 0.371535
vt 0.797963 0.593584
vt 0.317348 0.371535
vt 0.694323 0.575309
vt 0.344699 0.371535
vt 0.626676 0.494692
vt 0.372050 0.371535
vt 0.626676 0.389453
vt 0.399401 0.371535
vt 0.694323 0.308835
vt 0.426752 0.371535
vt 0.797963 0.290560
vt 0.454103 0.371535
vt 0.889102 0.343180
vt 0.481454 0.371535
vt 0.925096 0.442072
vt 0.845222 0.504144
vt 0.788016 0.537172
vt 0.722964 0.525702
vt 0.680504 0.475100
vt 0.680504 0.409044
vt 0.722964 0.358443
vt 0.788016 0.346972
vt 0.845222 0.380000
vt 0.867814 0.442072
vt 0.808957 0.473715
vt 0.779795 0.490551
vt 0.746634 0.484704
vt 0.724989 0.458909
vt 0.724989 0.425236
vt 0.746634 0.399440
vt 0.779795 0.393593
vt 0.808957 0.410430
vt 0.820474 0.442072
vt 0.658960 0.154525
vt 0.771247 0.442072
vt 0.036331 0.003529
vt 0.018753 0.017145
vt 0.040655 0.003525
vt 0.016355 0.017126
vt 0.044249 0.015992
vt 0.001846 0.017126
vt 0.031244 0.016231
vt 0.113974 0.986718
vt 0.112031 0.983355
vt 0.116126 0.983567
vt 0.128439 0.984901
vt 0.121859 0.996268
vt 0.142595 0.985851
vt 0.099646 0.983353
vt 0.241521 0.009902
vt 0.243473 0.014059
vt 0.240103 0.014162
vt 0.227607 0.013505
vt 0.232386 0.001992
vt 0.214704 0.013505
vt 0.257965 0.013657
vt 0.047050 0.987670
vt 0.069266 0.986808
vt 0.179467 0.013129
vt 0.153109 0.011740
vt 0.209015 0.986468
vt 0.231233 0.986773
vt 0.249958 0.050971
vt 0.232918 0.050941
vt 0.107074 0.957957
vt 0.123777 0.958851
vt 0.026458 0.048878
vt 0.010375 0.049326
vt 0.042452 0.009759
vt 0.009101 0.017126
vt 0.033787 0.009880
vt 0.024999 0.016688
vt 0.622748 0.091803
vt 0.672318 0.078769
vt 0.047457 0.997923
vt 0.586675 0.128215
vt 0.153552 0.002640
vt 0.122110 0.978796
vt 0.117916 0.991493
vt 0.105839 0.983354
vt 0.622748 0.217247
vt 0.586675 0.180835
vt 0.180002 0.004034
vt 0.672318 0.230281
vt 0.231068 0.994885
vt 0.234008 0.022125
vt 0.236954 0.005947
vt 0.250719 0.013858
vt 0.731386 0.154525
vt 0.717888 0.203971
vt 0.208531 0.994538
vt 0.717888 0.105079
vt 0.070012 0.997011
vt 0.289997 0.063837
vt 0.262646 0.063837
vt 0.508805 0.063837
vt 0.317348 0.063837
vt 0.344699 0.063837
vt 0.372050 0.063837
vt 0.399401 0.063837
vt 0.426752 0.063837
vt 0.454103 0.063837
vt 0.481454 0.063837
vt 0.289997 0.309996
vt 0.262646 0.309996
vt 0.508805 0.309996
vt 0.317348 0.309996
vt 0.344699 0.309996
vt 0.372050 0.309996
vt 0.399401 0.309996
vt 0.426752 0.309996
vt 0.454103 0.309996
vt 0.481454 0.309996
vt 0.053747 0.987678
vt 0.063366 0.987241
vt 0.039477 0.987585
vt 0.095044 0.985949
vt 0.076557 0.986386
vt 0.172373 0.012440
vt 0.160236 0.011810
vt 0.187951 0.013933
vt 0.209297 0.015445
vt 0.145457 0.011741
vt 0.214920 0.986770
vt 0.224545 0.986972
vt 0.201718 0.986197
vt 0.183220 0.986107
vt 0.238792 0.986467
vt 0.244065 0.051135
vt 0.257234 0.050769
vt 0.213503 0.050610
vt 0.226573 0.050693
vt 0.238057 0.051177
vt 0.112282 0.957985
vt 0.100844 0.957956
vt 0.144339 0.960485
vt 0.130219 0.959474
vt 0.118597 0.958320
vt 0.021443 0.049222
vt 0.032807 0.048502
vt 0.045935 0.048175
vt 0.003095 0.049326
vt 0.016152 0.049327
vn 0.190960 -0.971304 0.141783
vn 0.068310 -0.753975 0.653342
vn -0.601701 -0.770958 0.208759
vn -0.199854 -0.972650 -0.118366
vn -0.049132 -0.667000 -0.743436
vn 0.682071 -0.680000 -0.269034
vn -0.094966 -0.995328 -0.017417
vn -0.075543 -0.995125 0.063402
vn -0.000500 -0.999997 0.002525
vn -0.007211 -0.999923 -0.010065
vn -0.026853 -0.998577 -0.046075
vn 0.011063 -0.996426 -0.083747
vn 0.082691 -0.996125 -0.029937
vn 0.028864 -0.996352 -0.080310
vn -0.073490 -0.996830 -0.030493
vn 0.018067 -0.975335 -0.219989
vn 0.504092 -0.790189 -0.348557
vn 0.488587 -0.784771 0.381336
vn 0.011448 -0.976052 0.217234
vn -0.581140 -0.727856 0.364008
vn -0.569782 -0.715880 -0.403566
vn 0.028776 -0.996372 0.080098
vn 0.082502 -0.996140 0.029978
vn 0.002125 -0.999997 -0.000764
vn -0.004582 -0.999939 0.010018
vn -0.025795 -0.998652 0.045048
vn -0.073388 -0.996838 0.030469
vn -0.059631 -0.996954 -0.050259
vn -0.074155 -0.997160 0.013165
vn 0.009641 -0.997158 0.074725
vn -0.194869 -0.972761 0.125545
vn -0.651808 -0.731130 -0.201482
vn 0.026392 -0.744427 -0.667182
vn 0.186342 -0.972165 -0.142029
vn 0.752810 -0.602719 0.264589
vn -0.008482 -0.587656 0.809066
vn 0.048469 -0.997158 -0.057678
vn -0.013732 -0.996954 -0.076773
vn -0.001839 -0.999993 0.003152
vn 0.011693 -0.999929 0.002259
vn 0.052693 -0.998611 0.000417
vn 0.059907 -0.997156 0.045718
vn -0.017425 -0.995083 0.097505
vn 0.062906 -0.995265 0.074093
vn 0.067184 -0.996402 -0.051664
vn 0.042248 -0.967901 -0.247756
vn 0.193490 -0.967880 -0.160533
vn -0.123522 -0.969045 -0.213763
vn -0.234678 -0.968190 -0.086794
vn -0.234648 -0.968198 0.086790
vn -0.122883 -0.969295 0.212997
vn 0.042095 -0.968420 0.245744
vn 0.191777 -0.968419 0.159332
vn 0.246508 -0.969141 0.000180
vn 0.763402 -0.082993 -0.640570
vn 0.173049 -0.082993 -0.981410
vn -0.498275 -0.082993 -0.863038
vn -0.936451 -0.082993 -0.340840
vn -0.936451 -0.082993 0.340840
vn -0.498275 -0.082993 0.863038
vn 0.173049 -0.082993 0.981410
vn 0.763402 -0.082993 0.640570
vn 0.996550 -0.082993 0.000000
vn 0.759770 0.127732 -0.637522
vn 0.172226 0.127732 -0.976741
vn -0.495904 0.127731 -0.858932
vn -0.931995 0.127731 -0.339219
vn -0.931995 0.127731 0.339218
vn -0.495905 0.127731 0.858932
vn 0.172226 0.127731 0.976741
vn 0.759769 0.127732 0.637523
vn 0.991809 0.127732 0.000000
vn 0.089658 0.856395 -0.508477
vn 0.395525 0.856395 -0.331885
vn -0.258160 0.856395 -0.447147
vn -0.485183 0.856395 -0.176592
vn -0.485183 0.856395 0.176592
vn -0.258161 0.856395 0.447147
vn 0.089658 0.856395 0.508477
vn 0.395525 0.856395 0.331885
vn 0.516321 0.856395 -0.000000
vn 0.047517 0.961833 -0.269482
vn 0.209620 0.961832 -0.175892
vn -0.136819 0.961833 -0.236978
vn -0.257136 0.961833 -0.093590
vn -0.257136 0.961833 0.093590
vn -0.136819 0.961833 0.236978
vn 0.047517 0.961833 0.269482
vn 0.209620 0.961833 0.175892
vn 0.273639 0.961833 -0.000000
vn -0.009323 0.998558 0.052872
vn -0.041127 0.998558 0.034510
vn 0.026844 0.998558 0.046495
vn 0.050450 0.998558 0.018362
vn 0.050450 0.998558 -0.018362
vn 0.026844 0.998558 -0.046495
vn -0.009323 0.998558 -0.052872
vn -0.041127 0.998558 -0.034510
vn -0.053688 0.998558 -0.000000
vn -0.000063 -0.999999 0.001368
vn 0.000000 1.000000 -0.000000
vn -0.052148 -0.265324 0.962748
vn -0.816888 -0.288468 0.499480
vn -0.829093 -0.272965 0.487950
vn -0.033418 -0.248948 0.967940
vn -0.941696 -0.121785 -0.313651
vn 0.114779 0.232967 -0.965687
vn 0.135872 0.234718 -0.962521
vn -0.937081 -0.107588 -0.332121
vn 0.784253 0.255574 -0.565358
vn 0.774621 0.255602 -0.578471
vn 0.692247 -0.080726 0.717132
vn 0.704796 -0.067040 0.706235
vn 0.864949 -0.270122 -0.422962
vn 0.849503 -0.278572 0.448043
vn 0.846632 -0.261243 0.463645
vn 0.862041 -0.252095 -0.439696
vn 0.253289 -0.121080 0.959783
vn -0.902024 0.227403 0.366935
vn -0.908649 0.229992 0.348512
vn 0.237558 -0.105532 0.965624
vn -0.891430 0.235560 -0.387123
vn -0.897617 0.237399 -0.371383
vn 0.254229 -0.092902 -0.962672
vn 0.238000 -0.077200 -0.968192
vn -0.822545 -0.300187 -0.483019
vn -0.084230 -0.309795 -0.947065
vn -0.068659 -0.294562 -0.953163
vn -0.837905 -0.283587 -0.466362
vn 0.689029 -0.119128 -0.714876
vn 0.792596 0.271447 0.545993
vn 0.780511 0.272528 0.562611
vn 0.703248 -0.104758 -0.703185
vn 0.140736 0.277893 0.950247
vn 0.161820 0.278802 0.946617
vn -0.944612 -0.098846 0.312951
vn -0.938894 -0.082805 0.334097
s 1
g Stool
usemtl initialShadingGroup
f 94/127/1 57/92/2 58/94/3 93/125/4
f 94/127/1 93/125/4 59/96/5 60/98/6
f 96/130/7 2/3/8 3/5/9 95/129/10
f 96/130/7 95/129/10 12/21/11 11/18/12
f 95/129/10 3/5/9 4/6/13 97/132/14
f 95/129/10 97/132/14 13/22/15 12/21/11
f 99/135/16 61/99/17 62/101/18 98/134/19
f 99/135/16 98/134/19 63/102/20 64/103/21
f 101/138/22 5/8/23 6/10/24 100/137/25
f 101/138/22 100/137/25 15/27/26 14/25/27
f 100/137/25 6/10/24 7/11/28 102/140/29
f 100/137/25 102/140/29 16/28/30 15/27/26
f 104/143/31 65/106/32 66/108/33 103/142/34
f 104/143/31 103/142/34 67/109/35 68/110/36
f 106/146/37 8/13/38 9/15/39 105/145/40
f 106/146/37 105/145/40 18/33/41 17/31/42
f 105/145/40 9/15/39 1/1/43 107/148/44
f 105/145/40 107/148/44 10/16/45 18/33/41
f 10/16/45 11/18/12 20/38/46 19/36/47
f 11/18/12 12/21/11 21/40/48 20/38/46
f 12/21/11 13/22/15 22/42/49 21/40/48
f 13/22/15 14/25/27 23/44/50 22/42/49
f 14/25/27 15/27/26 24/46/51 23/44/50
f 15/27/26 16/28/30 25/48/52 24/46/51
f 16/28/30 17/31/42 26/50/53 25/48/52
f 17/31/42 18/33/41 27/52/54 26/50/53
f 18/33/41 10/16/45 19/36/47 27/52/54
f 109/151/55 19/34/47 20/37/46 108/150/56
f 108/150/56 20/37/46 21/39/48 110/153/57
f 110/153/57 21/39/48 22/41/49 111/154/58
f 111/154/58 22/41/49 23/43/50 112/155/59
f 112/155/59 23/43/50 24/45/51 113/156/60
f 113/156/60 24/45/51 25/47/52 114/157/61
f 114/157/61 25/47/52 26/49/53 115/158/62
f 115/158/62 26/49/53 27/51/54 116/159/63
f 116/159/63 27/51/54 19/35/47 109/152/55
f 118/161/64 109/151/55 108/150/56 117/160/65
f 117/160/65 108/150/56 110/153/57 119/163/66
f 119/163/66 110/153/57 111/154/58 120/164/67
f 120/164/67 111/154/58 112/155/59 121/165/68
f 121/165/68 112/155/59 113/156/60 122/166/69
f 122/166/69 113/156/60 114/157/61 123/167/70
f 123/167/70 114/157/61 115/158/62 124/168/71
f 124/168/71 115/158/62 116/159/63 125/169/72
f 125/169/72 116/159/63 109/152/55 118/162/64
f 118/161/64 117/160/65 29/56/73 28/53/74
f 117/160/65 119/163/66 30/58/75 29/56/73
f 119/163/66 120/164/67 31/60/76 30/58/75
f 120/164/67 121/165/68 32/62/77 31/60/76
f 121/165/68 122/166/69 33/64/78 32/62/77
f 122/166/69 123/167/70 34/66/79 33/64/78
f 123/167/70 124/168/71 35/68/80 34/66/79
f 124/168/71 125/169/72 36/70/81 35/68/80
f 125/169/72 118/162/64 28/55/74 36/70/81
f 28/54/74 29/57/73 38/73/82 37/72/83
f 29/57/73 30/59/75 39/74/84 38/73/82
f 30/59/75 31/61/76 40/75/85 39/74/84
f 31/61/76 32/63/77 41/76/86 40/75/85
f 32/63/77 33/65/78 42/77/87 41/76/86
f 33/65/78 34/67/79 43/78/88 42/77/87
f 34/67/79 35/69/80 44/79/89 43/78/88
f 35/69/80 36/71/81 45/80/90 44/79/89
f 36/71/81 28/54/74 37/72/83 45/80/90
f 37/72/83 38/73/82 47/82/91 46/81/92
f 38/73/82 39/74/84 48/83/93 47/82/91
f 39/74/84 40/75/85 49/84/94 48/83/93
f 40/75/85 41/76/86 50/85/95 49/84/94
f 41/76/86 42/77/87 51/86/96 50/85/95
f 42/77/87 43/78/88 52/87/97 51/86/96
f 43/78/88 44/79/89 53/88/98 52/87/97
f 44/79/89 45/80/90 54/89/99 53/88/98
f 45/80/90 37/72/83 46/81/92 54/89/99
f 2/3/8 1/1/43 55/90/100
f 3/5/9 2/3/8 55/90/100
f 4/6/13 3/5/9 55/90/100
f 5/8/23 4/6/13 55/90/100
f 6/10/24 5/8/23 55/90/100
f 7/11/28 6/10/24 55/90/100
f 8/13/38 7/11/28 55/90/100
f 9/15/39 8/13/38 55/90/100
f 55/90/100 1/1/43 9/15/39
f 46/81/92 47/82/91 56/91/101
f 56/91/101 47/82/91 48/83/93
f 56/91/101 48/83/93 49/84/94
f 56/91/101 49/84/94 50/85/95
f 56/91/101 50/85/95 51/86/96
f 56/91/101 51/86/96 52/87/97
f 56/91/101 52/87/97 53/88/98
f 56/91/101 53/88/98 54/89/99
f 56/91/101 54/89/99 46/81/92
f 70/171/102 1/2/43 2/4/8 69/170/103
f 70/171/102 69/170/103 92/199/104 89/195/105
f 2/4/8 96/131/7 126/113/106 69/170/103
f 96/131/7 11/20/12 71/172/107 126/113/106
f 126/113/106 71/172/107 91/198/108 137/124/109
f 69/170/103 126/113/106 137/124/109 92/199/104
f 71/173/107 11/19/12 10/17/45 72/174/110
f 71/173/107 72/174/110 90/196/111 91/197/108
f 10/17/45 107/149/44 127/114/112 72/174/110
f 107/149/44 1/2/43 70/171/102 127/114/112
f 127/114/112 70/171/102 89/195/105 136/123/113
f 72/174/110 127/114/112 136/123/113 90/196/111
f 74/176/114 4/7/13 5/9/23 73/175/115
f 74/176/114 73/175/115 88/194/116 85/190/117
f 5/9/23 101/139/22 128/115/118 73/175/115
f 101/139/22 14/26/27 75/177/119 128/115/118
f 128/115/118 75/177/119 87/193/120 135/122/121
f 73/175/115 128/115/118 135/122/121 88/194/116
f 75/177/119 14/26/27 13/24/15 76/178/122
f 75/177/119 76/178/122 86/192/123 87/193/120
f 13/23/15 97/133/14 129/116/124 76/179/122
f 97/133/14 4/7/13 74/176/114 129/116/124
f 129/116/124 74/176/114 85/190/117 134/121/125
f 76/179/122 129/116/124 134/121/125 86/191/123
f 78/181/126 7/12/28 8/14/38 77/180/127
f 78/181/126 77/180/127 84/189/128 81/185/129
f 8/14/38 106/147/37 130/117/130 77/180/127
f 106/147/37 17/32/42 79/182/131 130/117/130
f 130/117/130 79/182/131 83/188/132 133/120/133
f 77/180/127 130/117/130 133/120/133 84/189/128
f 79/182/131 17/32/42 16/30/30 80/183/134
f 79/182/131 80/183/134 82/187/135 83/188/132
f 16/29/30 102/141/29 131/118/136 80/184/134
f 102/141/29 7/12/28 78/181/126 131/118/136
f 131/118/136 78/181/126 81/185/129 132/119/137
f 80/184/134 131/118/136 132/119/137 82/186/135
f 132/119/137 81/185/129 65/107/32 104/144/31
f 82/186/135 132/119/137 104/144/31 68/112/36
f 82/187/135 68/111/36 67/109/35 83/188/132
f 133/120/133 83/188/132 67/109/35 103/142/34
f 84/189/128 133/120/133 103/142/34 66/108/33
f 84/189/128 66/108/33 65/107/32 81/185/129
f 134/121/125 85/190/117 61/100/17 99/136/16
f 86/191/123 134/121/125 99/136/16 64/105/21
f 86/192/123 64/104/21 63/102/20 87/193/120
f 135/122/121 87/193/120 63/102/20 98/134/19
f 88/194/116 135/122/121 98/134/19 62/101/18
f 88/194/116 62/101/18 61/100/17 85/190/117
f 136/123/113 89/195/105 57/93/2 94/128/1
f 90/196/111 136/123/113 94/128/1 60/98/6
f 90/196/111 60/98/6 59/96/5 91/197/108
f 137/124/109 91/198/108 59/97/5 93/126/4
f 92/199/104 137/124/109 93/126/4 58/95/3
f 92/199/104 58/95/3 57/93/2 89/195/105
